{
.appVersion = "983";
copyright = "Copyright © 2018 by Cadson Demak Co.,Ltd.. All rights reserved.";
customParameters = (
{
name = vendorID;
value = CDK;
},
{
name = description;
value = "Copyright (c) 2018, Cadson Demak (info@cadsondemak.com)";
},
{
name = license;

glyphs = (
{
glyphname = A;
lastChange = "2017-12-19 06:11:23 +0000";
layers = (
{
layerId = "0B1DFD06-3317-40CA-B510-4969A0718C16";
paths = (
{
closed = 1;
nodes = (
"340 676 LINE",
"344 681 OFFCURVE",
"350 690 OFFCURVE",
"347 696 CURVE",
"344 703 OFFCURVE",
"323 725 OFFCURVE",
"307 722 CURVE",
"301 721 OFFCURVE",
"281 710 OFFCURVE",
"269 684 CURVE",
"270 684 OFFCURVE",
"9 0 OFFCURVE",
"9 0 CURVE",
"65 -12 LINE",
"142 193 LINE",
"464 193 LINE",
"538 -12 LINE",
"595 0 LINE"
);
},
{
closed = 1;
nodes = (
"161 242 LINE",
"301 614 LINE",
"445 242 LINE"
);
}
);
width = 606;
}
);
note = A;
unicode = 0041;
},
{
glyphname = B;
lastChange = "2017-12-19 06:11:23 +0000";
layers = (
{
layerId = "0B1DFD06-3317-40CA-B510-4969A0718C16";
paths = (
{
closed = 1;
nodes = (
"143 642 LINE",
"276 642 LINE SMOOTH",
"380 642 OFFCURVE",
"415 607 OFFCURVE",
"415 524 CURVE SMOOTH",
"415 439 OFFCURVE",
"349 391 OFFCURVE",
"266 391 CURVE SMOOTH",
"143 391 LINE"
);
},
{
closed = 1;
nodes = (
"142 58 LINE",
"142 337 LINE",
"279 337 LINE SMOOTH",
"406 337 OFFCURVE",
"456 269 OFFCURVE",
"456 195 CURVE SMOOTH",
"456 102 OFFCURVE",
"403 58 OFFCURVE",
"301 58 CURVE SMOOTH"
);
},
{
closed = 1;
nodes = (
"86 0 LINE",
"328 0 LINE SMOOTH",
"434 0 OFFCURVE",
"513 68 OFFCURVE",
"513 196 CURVE SMOOTH",
"513 300 OFFCURVE",
"427 363 OFFCURVE",
"353 371 CURVE",
"408 380 OFFCURVE",
"473 431 OFFCURVE",
"473 530 CURVE SMOOTH",
"473 619 OFFCURVE",
"408 700 OFFCURVE",
"288 700 CURVE SMOOTH",
"121 700 LINE",
"114 709 OFFCURVE",
"102 718 OFFCURVE",
"96 718 CURVE SMOOTH",
"77 718 OFFCURVE",
"64 696 OFFCURVE",
"61 687 CURVE",
"56 669 OFFCURVE",
"86 666 OFFCURVE",
"86 631 CURVE SMOOTH"
);
}
);
width = 578;
}
);
note = B;
unicode = 0042;
},
{
glyphname = C;
lastChange = "2017-12-19 06:11:23 +0000";
layers = (
{
layerId = "0B1DFD06-3317-40CA-B510-4969A0718C16";
paths = (
{
closed = 1;
nodes = (
"508 106 LINE",
"450 40 OFFCURVE",
"344 34 OFFCURVE",
"272 61 CURVE SMOOTH",
"174 97 OFFCURVE",
"115 204 OFFCURVE",
"115 346 CURVE SMOOTH",
"115 487 OFFCURVE",
"174 595 OFFCURVE",
"272 632 CURVE SMOOTH",
"352 663 OFFCURVE",
"450 640 OFFCURVE",
"504 582 CURVE",
"530 640 LINE",
"458 705 OFFCURVE",
"347 725 OFFCURVE",
"251 690 CURVE SMOOTH",
"177 662 OFFCURVE",
"53 580 OFFCURVE",
"53 346 CURVE SMOOTH",
"53 112 OFFCURVE",
"177 31 OFFCURVE",
"251 3 CURVE SMOOTH",
"349 -35 OFFCURVE",
"468 -18 OFFCURVE",
"548 58 CURVE"
);
}
);
width = 591;
}
);
note = C;
unicode = 0043;
},
{
glyphname = D;
lastChange = "2017-12-19 06:11:23 +0000";
layers = (
{
layerId = "0B1DFD06-3317-40CA-B510-4969A0718C16";
paths = (
{
closed = 1;
nodes = (
"78 0 LINE",
"250 0 LINE SMOOTH",
"456 0 OFFCURVE",
"611 118 OFFCURVE",
"611 352 CURVE SMOOTH",
"611 582 OFFCURVE",
"456 700 OFFCURVE",
"250 700 CURVE SMOOTH",
"114 700 LINE",
"106 709 OFFCURVE",
"95 718 OFFCURVE",
"89 718 CURVE SMOOTH",
"69 718 OFFCURVE",
"56 696 OFFCURVE",
"53 687 CURVE",
"49 669 OFFCURVE",
"78 666 OFFCURVE",
"78 631 CURVE SMOOTH"
);
},
{
closed = 1;
nodes = (
"136 58 LINE",
"136 642 LINE",
"225 642 LINE SMOOTH",
"405 642 OFFCURVE",
"549 557 OFFCURVE",
"549 352 CURVE SMOOTH",
"549 174 OFFCURVE",
"440 58 OFFCURVE",
"263 58 CURVE SMOOTH"
);
}
);
width = 666;
}
);
note = D;
unicode = 0044;
},
{
glyphname = E;
lastChange = "2017-12-19 06:11:23 +0000";
layers = (
{
layerId = "0B1DFD06-3317-40CA-B510-4969A0718C16";
paths = (
{
closed = 1;
nodes = (
"86 0 LINE",
"449 0 LINE",
"449 58 LINE",
"145 58 LINE",
"145 334 LINE",
"418 334 LINE",
"418 391 LINE",
"145 391 LINE",
"145 642 LINE",
"450 642 LINE",
"450 700 LINE",
"121 700 LINE",
"114 709 OFFCURVE",
"102 718 OFFCURVE",
"96 718 CURVE SMOOTH",
"77 718 OFFCURVE",
"64 696 OFFCURVE",
"61 687 CURVE",
"56 669 OFFCURVE",
"86 666 OFFCURVE",
"86 631 CURVE SMOOTH"
);
}
);
width = 505;
}
);
note = E;
unicode = 0045;
},
{
glyphname = F;
lastChange = "2017-12-19 06:11:23 +0000";
layers = (
{
layerId = "0B1DFD06-3317-40CA-B510-4969A0718C16";
paths = (
{
closed = 1;
nodes = (
"83 0 LINE",
"142 0 LINE",
"142 334 LINE",
"415 334 LINE",
"415 391 LINE",
"142 391 LINE",
"142 642 LINE",
"448 642 LINE",
"448 700 LINE",
"118 700 LINE",
"111 709 OFFCURVE",
"99 718 OFFCURVE",
"93 718 CURVE SMOOTH",
"74 718 OFFCURVE",
"61 696 OFFCURVE",
"58 687 CURVE",
"53 669 OFFCURVE",
"83 666 OFFCURVE",
"83 631 CURVE SMOOTH"
);
}
);
width = 493;
}
);
note = F;
unicode = 0046;
},
{
glyphname = G;
lastChange = "2017-12-19 06:11:23 +0000";
layers = (
{
layerId = "0B1DFD06-3317-40CA-B510-4969A0718C16";
paths = (
{
closed = 1;
nodes = (
"332 353 LINE",
"332 295 LINE",
"493 295 LINE",
"493 69 LINE",
"448 53 OFFCURVE",
"400 38 OFFCURVE",
"354 38 CURVE SMOOTH",
"182 38 OFFCURVE",
"115 167 OFFCURVE",
"115 347 CURVE SMOOTH",
"115 492 OFFCURVE",
"171 653 OFFCURVE",
"323 653 CURVE SMOOTH",
"394 653 OFFCURVE",
"461 616 OFFCURVE",
"479 538 CURVE",
"539 560 LINE",
"514 660 OFFCURVE",
"418 710 OFFCURVE",
"323 710 CURVE SMOOTH",
"140 710 OFFCURVE",
"56 527 OFFCURVE",
"56 347 CURVE SMOOTH",
"56 130 OFFCURVE",
"152 -19 OFFCURVE",
"323 -19 CURVE SMOOTH",
"405 -19 OFFCURVE",
"474 -9 OFFCURVE",
"549 24 CURVE",
"549 284 LINE SMOOTH",
"549 319 OFFCURVE",
"576 318 OFFCURVE",
"572 335 CURVE",
"569 344 OFFCURVE",
"555 366 OFFCURVE",
"536 366 CURVE SMOOTH",
"530 366 OFFCURVE",
"521 362 OFFCURVE",
"514 353 CURVE"
);
}
);
width = 623;
}
);
note = G;
unicode = 0047;
},
{
glyphname = H;
lastChange = "2017-12-19 06:11:23 +0000";
layers = (
{
layerId = "0B1DFD06-3317-40CA-B510-4969A0718C16";
paths = (
{
closed = 1;
nodes = (
"484 700 LINE",
"484 391 LINE",
"140 391 LINE",
"140 700 LINE",
"83 700 LINE",
"83 0 LINE",
"140 0 LINE",
"140 334 LINE",
"484 334 LINE",
"484 0 LINE",
"539 0 LINE",
"539 700 LINE"
);
}
);
width = 623;
}
);
note = H;
unicode = 0048;
},
{
glyphname = I;
lastChange = "2017-12-19 06:11:23 +0000";
layers = (
{
layerId = "0B1DFD06-3317-40CA-B510-4969A0718C16";
paths = (
{
closed = 1;
nodes = (
"95 700 LINE",
"95 0 LINE",
"151 0 LINE",
"151 700 LINE"
);
}
);
width = 241;
}
);
note = I;
unicode = 0049;
},
{
glyphname = J;
lastChange = "2017-12-19 06:11:23 +0000";
layers = (
{
layerId = "0B1DFD06-3317-40CA-B510-4969A0718C16";
paths = (
{
closed = 1;
nodes = (
"236 700 LINE",
"236 160 LINE SMOOTH",
"236 109 OFFCURVE",
"213 68 OFFCURVE",
"176 47 CURVE SMOOTH",
"123 19 OFFCURVE",
"62 41 OFFCURVE",
"37 64 CURVE",
"19 15 LINE",
"69 -15 OFFCURVE",
"133 -30 OFFCURVE",
"201 1 CURVE SMOOTH",
"248 22 OFFCURVE",
"294 83 OFFCURVE",
"294 168 CURVE SMOOTH",
"294 700 LINE"
);
}
);
width = 369;
}
);
note = J;
unicode = 004A;
},
{
glyphname = K;
lastChange = "2017-12-19 06:11:23 +0000";
layers = (
{
layerId = "0B1DFD06-3317-40CA-B510-4969A0718C16";
paths = (
{
closed = 1;
nodes = (
"213 366 LINE",
"551 691 LINE",
"490 706 LINE",
"146 375 LINE",
"146 700 LINE",
"90 700 LINE",
"90 0 LINE",
"146 0 LINE",
"146 356 LINE",
"510 -9 LINE",
"578 0 LINE"
);
}
);
width = 579;
}
);
note = K;
unicode = 004B;
},
{
glyphname = L;
lastChange = "2017-12-19 06:11:23 +0000";
layers = (
{
layerId = "0B1DFD06-3317-40CA-B510-4969A0718C16";
paths = (
{
closed = 1;
nodes = (
"86 69 LINE SMOOTH",
"86 34 OFFCURVE",
"56 31 OFFCURVE",
"61 13 CURVE",
"64 4 OFFCURVE",
"77 -18 OFFCURVE",
"96 -18 CURVE SMOOTH",
"102 -18 OFFCURVE",
"114 -9 OFFCURVE",
"121 0 CURVE",
"446 0 LINE",
"446 52 LINE",
"143 52 LINE",
"143 700 LINE",
"86 700 LINE"
);
}
);
width = 479;
}
);
note = L;
unicode = 004C;
},
{
glyphname = M;
lastChange = "2017-12-19 06:11:23 +0000";
layers = (
{
layerId = "0B1DFD06-3317-40CA-B510-4969A0718C16";
paths = (
{
closed = 1;
nodes = (
"641 589 LINE",
"744 -10 LINE",
"799 3 LINE",
"682 666 LINE",
"693 679 LINE",
"699 688 OFFCURVE",
"679 715 OFFCURVE",
"660 718 CURVE SMOOTH",
"641 721 OFFCURVE",
"616 682 OFFCURVE",
"614 676 CURVE",
"414 99 LINE",
"213 676 LINE",
"211 682 OFFCURVE",
"186 721 OFFCURVE",
"167 718 CURVE SMOOTH",
"148 715 OFFCURVE",
"128 688 OFFCURVE",
"134 679 CURVE",
"145 666 LINE",
"28 3 LINE",
"83 -10 LINE",
"186 589 LINE",
"393 -7 LINE",
"403 -30 OFFCURVE",
"461 -10 OFFCURVE",
"448 12 CURVE",
"445 22 LINE"
);
}
);
width = 817;
}
);
note = M;
unicode = 004D;
},
{
glyphname = N;
lastChange = "2017-12-19 06:11:23 +0000";
layers = (
{
layerId = "0B1DFD06-3317-40CA-B510-4969A0718C16";
paths = (
{
closed = 1;
nodes = (
"80 0 LINE",
"136 0 LINE",
"136 557 LINE",
"499 0 LINE",
"499 0 OFFCURVE",
"549 0 OFFCURVE",
"549 0 CURVE",
"549 700 LINE",
"493 700 LINE",
"493 96 LINE",
"118 699 LINE",
"111 707 OFFCURVE",
"99 716 OFFCURVE",
"93 716 CURVE SMOOTH",
"74 716 OFFCURVE",
"61 694 OFFCURVE",
"58 685 CURVE",
"53 668 OFFCURVE",
"80 668 OFFCURVE",
"80 632 CURVE SMOOTH"
);
}
);
width = 629;
}
);
note = N;
unicode = 004E;
},
{
glyphname = O;
lastChange = "2017-12-19 06:11:23 +0000";
layers = (
{
layerId = "0B1DFD06-3317-40CA-B510-4969A0718C16";
paths = (
{
closed = 1;
nodes = (
"158 710 OFFCURVE",
"59 564 OFFCURVE",
"59 346 CURVE SMOOTH",
"59 127 OFFCURVE",
"158 -19 OFFCURVE",
"340 -19 CURVE SMOOTH",
"518 -19 OFFCURVE",
"620 127 OFFCURVE",
"620 346 CURVE SMOOTH",
"620 564 OFFCURVE",
"518 710 OFFCURVE",
"340 710 CURVE SMOOTH"
);
},
{
closed = 1;
nodes = (
"180 35 OFFCURVE",
"117 191 OFFCURVE",
"117 346 CURVE SMOOTH",
"117 499 OFFCURVE",
"180 656 OFFCURVE",
"340 656 CURVE SMOOTH",
"498 656 OFFCURVE",
"561 499 OFFCURVE",
"561 346 CURVE SMOOTH",
"561 191 OFFCURVE",
"498 35 OFFCURVE",
"340 35 CURVE SMOOTH"
);
}
);
width = 678;
}
);
note = O;
unicode = 004F;
},
{
glyphname = P;
lastChange = "2017-12-19 06:11:23 +0000";
layers = (
{
layerId = "0B1DFD06-3317-40CA-B510-4969A0718C16";
paths = (
{
closed = 1;
nodes = (
"87 0 LINE",
"145 0 LINE",
"145 282 LINE",
"253 282 LINE SMOOTH",
"371 282 OFFCURVE",
"502 331 OFFCURVE",
"502 490 CURVE SMOOTH",
"502 651 OFFCURVE",
"375 700 OFFCURVE",
"247 700 CURVE SMOOTH",
"123 700 LINE",
"115 709 OFFCURVE",
"103 718 OFFCURVE",
"97 718 CURVE SMOOTH",
"78 718 OFFCURVE",
"65 696 OFFCURVE",
"62 687 CURVE",
"58 669 OFFCURVE",
"87 665 OFFCURVE",
"87 629 CURVE SMOOTH"
);
},
{
closed = 1;
nodes = (
"248 647 LINE SMOOTH",
"387 647 OFFCURVE",
"446 575 OFFCURVE",
"446 490 CURVE SMOOTH",
"446 396 OFFCURVE",
"381 337 OFFCURVE",
"250 337 CURVE SMOOTH",
"145 337 LINE",
"145 647 LINE"
);
}
);
width = 541;
}
);
note = P;
unicode = 0050;
},
{
glyphname = Q;
lastChange = "2017-12-19 06:11:23 +0000";
layers = (
{
layerId = "0B1DFD06-3317-40CA-B510-4969A0718C16";
paths = (
{
closed = 1;
nodes = (
"642 21 LINE",
"554 96 LINE",
"595 160 OFFCURVE",
"616 245 OFFCURVE",
"616 347 CURVE SMOOTH",
"616 564 OFFCURVE",
"515 710 OFFCURVE",
"335 710 CURVE SMOOTH",
"154 710 OFFCURVE",
"56 564 OFFCURVE",
"56 347 CURVE SMOOTH",
"56 127 OFFCURVE",
"154 -19 OFFCURVE",
"335 -19 CURVE SMOOTH",
"411 -19 OFFCURVE",
"471 6 OFFCURVE",
"517 52 CURVE",
"604 -24 LINE"
);
},
{
closed = 1;
nodes = (
"177 38 OFFCURVE",
"115 192 OFFCURVE",
"115 347 CURVE SMOOTH",
"115 499 OFFCURVE",
"177 653 OFFCURVE",
"335 653 CURVE SMOOTH",
"492 653 OFFCURVE",
"555 499 OFFCURVE",
"555 347 CURVE SMOOTH",
"555 270 OFFCURVE",
"539 195 OFFCURVE",
"505 137 CURVE",
"431 202 LINE",
"393 157 LINE",
"470 92 LINE",
"436 59 OFFCURVE",
"393 38 OFFCURVE",
"335 38 CURVE SMOOTH"
);
}
);
width = 672;
}
);
note = Q;
unicode = 0051;
},
{
glyphname = R;
lastChange = "2017-12-19 06:11:23 +0000";
layers = (
{
layerId = "0B1DFD06-3317-40CA-B510-4969A0718C16";
paths = (
{
closed = 1;
nodes = (
"87 0 LINE",
"145 0 LINE",
"145 282 LINE",
"275 282 LINE",
"464 -13 LINE",
"523 1 LINE",
"338 291 LINE",
"427 312 OFFCURVE",
"502 369 OFFCURVE",
"502 490 CURVE SMOOTH",
"502 651 OFFCURVE",
"375 700 OFFCURVE",
"247 700 CURVE SMOOTH",
"123 700 LINE",
"115 709 OFFCURVE",
"103 718 OFFCURVE",
"97 718 CURVE SMOOTH",
"78 718 OFFCURVE",
"65 696 OFFCURVE",
"62 687 CURVE",
"58 669 OFFCURVE",
"87 666 OFFCURVE",
"87 631 CURVE SMOOTH"
);
},
{
closed = 1;
nodes = (
"248 647 LINE SMOOTH",
"387 647 OFFCURVE",
"446 575 OFFCURVE",
"446 490 CURVE SMOOTH",
"446 396 OFFCURVE",
"381 337 OFFCURVE",
"250 337 CURVE SMOOTH",
"145 337 LINE",
"145 647 LINE"
);
}
);
width = 578;
}
);
note = R;
unicode = 0052;
},
{
glyphname = S;
lastChange = "2017-12-19 06:11:23 +0000";
layers = (
{
layerId = "0B1DFD06-3317-40CA-B510-4969A0718C16";
paths = (
{
closed = 1;
nodes = (
"523 284 OFFCURVE",
"430 328 OFFCURVE",
"306 372 CURVE SMOOTH",
"192 412 OFFCURVE",
"123 465 OFFCURVE",
"123 536 CURVE SMOOTH",
"123 606 OFFCURVE",
"183 659 OFFCURVE",
"275 659 CURVE SMOOTH",
"353 659 OFFCURVE",
"412 632 OFFCURVE",
"449 606 CURVE",
"479 656 LINE",
"431 691 OFFCURVE",
"344 716 OFFCURVE",
"276 716 CURVE SMOOTH",
"130 716 OFFCURVE",
"53 622 OFFCURVE",
"61 526 CURVE SMOOTH",
"66 445 OFFCURVE",
"134 368 OFFCURVE",
"264 322 CURVE SMOOTH",
"414 269 OFFCURVE",
"464 235 OFFCURVE",
"464 160 CURVE SMOOTH",
"464 90 OFFCURVE",
"384 37 OFFCURVE",
"282 35 CURVE SMOOTH",
"182 34 OFFCURVE",
"126 86 OFFCURVE",
"90 120 CURVE",
"43 74 LINE",
"86 37 OFFCURVE",
"160 -21 OFFCURVE",
"275 -19 CURVE SMOOTH",
"442 -18 OFFCURVE",
"523 62 OFFCURVE",
"523 174 CURVE SMOOTH"
);
}
);
width = 573;
}
);
note = S;
unicode = 0053;
},
{
glyphname = T;
lastChange = "2017-12-19 06:11:23 +0000";
layers = (
{
layerId = "0B1DFD06-3317-40CA-B510-4969A0718C16";
paths = (
{
closed = 1;
nodes = (
"462 647 LINE SMOOTH",
"471 647 OFFCURVE",
"473 659 OFFCURVE",
"474 671 CURVE SMOOTH",
"477 691 OFFCURVE",
"476 700 OFFCURVE",
"458 700 CURVE SMOOTH",
"34 700 LINE SMOOTH",
"16 700 OFFCURVE",
"15 691 OFFCURVE",
"18 671 CURVE SMOOTH",
"19 659 OFFCURVE",
"21 647 OFFCURVE",
"30 647 CURVE SMOOTH",
"219 647 LINE",
"219 0 LINE",
"275 0 LINE",
"275 647 LINE"
);
}
);
width = 492;
}
);
note = T;
unicode = 0054;
},
{
glyphname = U;
lastChange = "2017-12-19 06:11:23 +0000";
layers = (
{
layerId = "0B1DFD06-3317-40CA-B510-4969A0718C16";
paths = (
{
closed = 1;
nodes = (
"530 700 LINE",
"530 216 LINE SMOOTH",
"530 89 OFFCURVE",
"439 41 OFFCURVE",
"335 41 CURVE SMOOTH",
"230 41 OFFCURVE",
"139 89 OFFCURVE",
"139 216 CURVE SMOOTH",
"139 700 LINE",
"83 700 LINE",
"83 214 LINE SMOOTH",
"83 64 OFFCURVE",
"183 -16 OFFCURVE",
"335 -16 CURVE SMOOTH",
"487 -16 OFFCURVE",
"585 64 OFFCURVE",
"585 214 CURVE SMOOTH",
"585 700 LINE"
);
}
);
width = 672;
}
);
note = U;
unicode = 0055;
},
{
glyphname = V;
lastChange = "2017-12-19 06:11:23 +0000";
layers = (
{
layerId = "0B1DFD06-3317-40CA-B510-4969A0718C16";
paths = (
{
closed = 1;
nodes = (
"335 22 OFFCURVE",
"595 700 OFFCURVE",
"595 700 CURVE",
"539 712 LINE",
"303 81 LINE",
"66 712 LINE",
"9 700 LINE",
"267 31 LINE",
"258 18 LINE",
"253 7 OFFCURVE",
"273 -16 OFFCURVE",
"292 -19 CURVE SMOOTH",
"301 -21 OFFCURVE",
"329 10 OFFCURVE",
"337 22 CURVE"
);
}
);
width = 607;
}
);
note = V;
unicode = 0056;
},
{
glyphname = W;
lastChange = "2017-12-19 06:11:23 +0000";
layers = (
{
layerId = "0B1DFD06-3317-40CA-B510-4969A0718C16";
paths = (
{
closed = 1;
nodes = (
"445 678 LINE",
"448 688 LINE",
"461 710 OFFCURVE",
"403 730 OFFCURVE",
"393 707 CURVE",
"186 111 LINE",
"83 710 LINE",
"28 697 LINE",
"145 34 LINE",
"134 21 LINE",
"128 12 OFFCURVE",
"148 -15 OFFCURVE",
"167 -18 CURVE SMOOTH",
"186 -21 OFFCURVE",
"211 18 OFFCURVE",
"213 24 CURVE",
"414 601 LINE",
"614 24 LINE",
"616 18 OFFCURVE",
"641 -21 OFFCURVE",
"660 -18 CURVE SMOOTH",
"679 -15 OFFCURVE",
"699 12 OFFCURVE",
"693 21 CURVE",
"682 34 LINE",
"799 697 LINE",
"744 710 LINE",
"641 111 LINE"
);
}
);
width = 824;
}
);
note = W;
unicode = 0057;
},
{
glyphname = X;
lastChange = "2017-12-19 06:11:23 +0000";
layers = (
{
layerId = "0B1DFD06-3317-40CA-B510-4969A0718C16";
paths = (
{
closed = 1;
nodes = (
"53 6 LINE",
"281 332 LINE",
"507 3 LINE",
"551 32 LINE",
"312 375 LINE",
"529 693 LINE",
"482 721 LINE",
"281 427 LINE",
"83 722 LINE",
"34 693 LINE",
"247 385 LINE",
"9 37 LINE"
);
}
);
width = 555;
}
);
note = X;
unicode = 0058;
},
{
glyphname = Y;
lastChange = "2017-12-19 06:11:23 +0000";
layers = (
{
layerId = "0B1DFD06-3317-40CA-B510-4969A0718C16";
paths = (
{
closed = 1;
nodes = (
"236 297 LINE",
"236 0 LINE",
"288 0 LINE",
"288 297 LINE",
"353 417 OFFCURVE",
"515 700 OFFCURVE",
"515 700 CURVE",
"468 719 LINE",
"261 352 LINE",
"58 721 LINE",
"10 702 LINE",
"236 298 LINE"
);
}
);
width = 527;
}
);
note = Y;
unicode = 0059;
},
{
glyphname = Z;
lastChange = "2017-12-19 06:11:23 +0000";
layers = (
{
layerId = "0B1DFD06-3317-40CA-B510-4969A0718C16";
paths = (
{
closed = 1;
nodes = (
"495 710 OFFCURVE",
"484 700 OFFCURVE",
"484 700 CURVE SMOOTH",
"46 700 LINE",
"46 642 LINE",
"446 642 LINE",
"65 64 LINE",
"59 56 OFFCURVE",
"53 49 OFFCURVE",
"44 41 CURVE SMOOTH",
"30 30 OFFCURVE",
"24 27 OFFCURVE",
"31 13 CURVE",
"47 -13 OFFCURVE",
"61 -16 OFFCURVE",
"68 -13 CURVE",
"77 -10 OFFCURVE",
"84 0 OFFCURVE",
"93 0 CURVE SMOOTH",
"533 0 LINE",
"533 58 LINE",
"134 58 LINE",
"517 637 LINE",
"536 663 LINE",
"549 676 OFFCURVE",
"555 684 OFFCURVE",
"538 705 CURVE SMOOTH",
"523 721 OFFCURVE",
"507 721 OFFCURVE",
"502 716 CURVE"
);
}
);
width = 585;
}
);
note = Z;
unicode = 005A;
},
{
glyphname = a;
lastChange = "2017-12-19 06:11:59 +0000";
layers = (
{
layerId = "0B1DFD06-3317-40CA-B510-4969A0718C16";
paths = (
{
closed = 1;
nodes = (
"462 515 LINE",
"406 515 LINE",
"406 422 LINE",
"374 477 OFFCURVE",
"319 515 OFFCURVE",
"242 515 CURVE SMOOTH",
"99 515 OFFCURVE",
"31 383 OFFCURVE",
"31 251 CURVE SMOOTH",
"31 120 OFFCURVE",
"99 -13 OFFCURVE",
"242 -13 CURVE SMOOTH",
"319 -13 OFFCURVE",
"375 25 OFFCURVE",
"409 81 CURVE",
"409 24 OFFCURVE",
"430 1 OFFCURVE",
"436 -10 CURVE",
"484 9 LINE",
"476 30 OFFCURVE",
"462 53 OFFCURVE",
"462 118 CURVE SMOOTH"
);
},
{
closed = 1;
nodes = (
"346 462 OFFCURVE",
"397 368 OFFCURVE",
"408 281 CURVE",
"408 223 LINE",
"399 134 OFFCURVE",
"346 40 OFFCURVE",
"242 40 CURVE SMOOTH",
"127 40 OFFCURVE",
"81 158 OFFCURVE",
"81 251 CURVE SMOOTH",
"81 343 OFFCURVE",
"127 462 OFFCURVE",
"242 462 CURVE SMOOTH"
);
}
);
width = 517;
}
);
note = a;
unicode = 0061;
},
{
glyphname = b;
lastChange = "2017-12-19 06:11:59 +0000";
layers = (
{
layerId = "0B1DFD06-3317-40CA-B510-4969A0718C16";
paths = (
{
closed = 1;
nodes = (
"142 28 OFFCURVE",
"198 -13 OFFCURVE",
"275 -13 CURVE SMOOTH",
"418 -13 OFFCURVE",
"486 120 OFFCURVE",
"486 251 CURVE SMOOTH",
"486 381 OFFCURVE",
"418 514 OFFCURVE",
"275 514 CURVE SMOOTH",
"198 514 OFFCURVE",
"143 477 OFFCURVE",
"109 422 CURVE",
"109 734 LINE",
"55 734 LINE",
"55 118 LINE SMOOTH",
"55 53 OFFCURVE",
"41 30 OFFCURVE",
"32 9 CURVE",
"81 -10 LINE",
"87 1 OFFCURVE",
"108 24 OFFCURVE",
"108 81 CURVE"
);
},
{
closed = 1;
nodes = (
"436 157 OFFCURVE",
"390 40 OFFCURVE",
"275 40 CURVE SMOOTH",
"171 40 OFFCURVE",
"118 134 OFFCURVE",
"109 223 CURVE",
"109 281 LINE",
"120 366 OFFCURVE",
"171 461 OFFCURVE",
"275 461 CURVE SMOOTH",
"390 461 OFFCURVE",
"436 343 OFFCURVE",
"436 251 CURVE SMOOTH"
);
}
);
width = 523;
}
);
note = b;
unicode = 0062;
},
{
glyphname = c;
lastChange = "2017-12-19 06:11:59 +0000";
layers = (
{
layerId = "0B1DFD06-3317-40CA-B510-4969A0718C16";
paths = (
{
closed = 1;
nodes = (
"409 44 LINE",
"375 86 LINE",
"335 34 OFFCURVE",
"256 32 OFFCURVE",
"207 50 CURVE SMOOTH",
"136 77 OFFCURVE",
"95 152 OFFCURVE",
"95 253 CURVE SMOOTH",
"95 353 OFFCURVE",
"136 428 OFFCURVE",
"207 455 CURVE SMOOTH",
"260 476 OFFCURVE",
"338 459 OFFCURVE",
"372 412 CURVE",
"396 465 LINE",
"341 517 OFFCURVE",
"257 532 OFFCURVE",
"186 505 CURVE SMOOTH",
"133 484 OFFCURVE",
"41 424 OFFCURVE",
"41 253 CURVE SMOOTH",
"41 81 OFFCURVE",
"133 21 OFFCURVE",
"186 0 CURVE SMOOTH",
"266 -30 OFFCURVE",
"356 -9 OFFCURVE",
"406 41 CURVE SMOOTH"
);
}
);
width = 436;
}
);
note = c;
unicode = 0063;
},
{
glyphname = d;
lastChange = "2017-12-19 06:11:59 +0000";
layers = (
{
layerId = "0B1DFD06-3317-40CA-B510-4969A0718C16";
paths = (
{
closed = 1;
nodes = (
"90 343 OFFCURVE",
"136 461 OFFCURVE",
"251 461 CURVE SMOOTH",
"354 461 OFFCURVE",
"406 366 OFFCURVE",
"417 281 CURVE",
"417 223 LINE",
"408 134 OFFCURVE",
"354 40 OFFCURVE",
"251 40 CURVE SMOOTH",
"136 40 OFFCURVE",
"90 157 OFFCURVE",
"90 251 CURVE SMOOTH"
);
},
{
closed = 1;
nodes = (
"471 734 LINE",
"417 734 LINE",
"417 422 LINE",
"383 477 OFFCURVE",
"328 514 OFFCURVE",
"251 514 CURVE SMOOTH",
"108 514 OFFCURVE",
"40 381 OFFCURVE",
"40 251 CURVE SMOOTH",
"40 120 OFFCURVE",
"108 -13 OFFCURVE",
"251 -13 CURVE SMOOTH",
"328 -13 OFFCURVE",
"384 28 OFFCURVE",
"418 81 CURVE",
"418 24 OFFCURVE",
"439 1 OFFCURVE",
"445 -10 CURVE",
"493 9 LINE",
"484 30 OFFCURVE",
"471 53 OFFCURVE",
"471 118 CURVE SMOOTH"
);
}
);
width = 527;
}
);
note = d;
unicode = 0064;
},
{
glyphname = e;
lastChange = "2017-12-19 06:11:59 +0000";
layers = (
{
layerId = "0B1DFD06-3317-40CA-B510-4969A0718C16";
paths = (
{
closed = 1;
nodes = (
"103 514 OFFCURVE",
"37 363 OFFCURVE",
"37 248 CURVE SMOOTH",
"37 123 OFFCURVE",
"99 43 OFFCURVE",
"173 6 CURVE SMOOTH",
"258 -37 OFFCURVE",
"377 0 OFFCURVE",
"422 32 CURVE",
"388 77 LINE",
"368 62 OFFCURVE",
"297 13 OFFCURVE",
"210 49 CURVE SMOOTH",
"154 72 OFFCURVE",
"100 136 OFFCURVE",
"100 225 CURVE",
"442 225 LINE SMOOTH",
"458 225 OFFCURVE",
"470 226 OFFCURVE",
"474 230 CURVE",
"480 235 OFFCURVE",
"483 245 OFFCURVE",
"483 260 CURVE SMOOTH",
"484 316 OFFCURVE",
"459 514 OFFCURVE",
"267 514 CURVE SMOOTH"
);
},
{
closed = 1;
nodes = (
"99 281 LINE",
"100 344 OFFCURVE",
"143 465 OFFCURVE",
"264 465 CURVE SMOOTH",
"383 465 OFFCURVE",
"430 353 OFFCURVE",
"427 281 CURVE"
);
}
);
width = 520;
}
);
note = e;
unicode = 0065;
},
{
glyphname = f;
lastChange = "2017-12-19 06:11:59 +0000";
layers = (
{
layerId = "0B1DFD06-3317-40CA-B510-4969A0718C16";
paths = (
{
closed = 1;
nodes = (
"96 4 LINE SMOOTH",
"96 -58 OFFCURVE",
"78 -117 OFFCURVE",
"49 -154 CURVE",
"97 -168 LINE",
"97 -168 OFFCURVE",
"149 -99 OFFCURVE",
"149 6 CURVE SMOOTH",
"149 470 LINE",
"257 470 LINE",
"269 514 LINE",
"149 514 LINE",
"149 583 LINE SMOOTH",
"149 685 OFFCURVE",
"193 696 OFFCURVE",
"278 678 CURVE",
"285 725 LINE",
"183 755 OFFCURVE",
"96 725 OFFCURVE",
"96 603 CURVE SMOOTH",
"96 514 LINE",
"19 514 LINE",
"7 470 LINE",
"96 470 LINE"
);
}
);
width = 287;
}
);
note = f;
unicode = 0066;
},
{
glyphname = g;
lastChange = "2017-12-19 06:11:59 +0000";
layers = (
{
layerId = "0B1DFD06-3317-40CA-B510-4969A0718C16";
paths = (
{
closed = 1;
nodes = (
"380 477 OFFCURVE",
"325 515 OFFCURVE",
"248 515 CURVE SMOOTH",
"105 515 OFFCURVE",
"37 381 OFFCURVE",
"37 250 CURVE SMOOTH",
"37 117 OFFCURVE",
"105 -16 OFFCURVE",
"248 -16 CURVE SMOOTH",
"323 -16 OFFCURVE",
"378 21 OFFCURVE",
"414 75 CURVE",
"414 22 LINE SMOOTH",
"414 -136 OFFCURVE",
"301 -188 OFFCURVE",
"182 -165 CURVE",
"180 -174 OFFCURVE",
"182 -167 OFFCURVE",
"162 -217 CURVE",
"267 -241 OFFCURVE",
"471 -210 OFFCURVE",
"470 9 CURVE SMOOTH",
"468 387 LINE",
"468 452 OFFCURVE",
"482 476 OFFCURVE",
"490 496 CURVE",
"442 515 LINE",
"436 504 OFFCURVE",
"414 479 OFFCURVE",
"414 421 CURVE"
);
},
{
closed = 1;
nodes = (
"414 219 LINE",
"403 133 OFFCURVE",
"352 37 OFFCURVE",
"248 37 CURVE SMOOTH",
"133 37 OFFCURVE",
"86 157 OFFCURVE",
"86 250 CURVE SMOOTH",
"86 344 OFFCURVE",
"133 462 OFFCURVE",
"248 462 CURVE SMOOTH",
"352 462 OFFCURVE",
"405 366 OFFCURVE",
"414 278 CURVE"
);
}
);
width = 530;
}
);
note = g;
unicode = 0067;
},
{
glyphname = h;
lastChange = "2017-12-19 06:11:59 +0000";
layers = (
{
layerId = "0B1DFD06-3317-40CA-B510-4969A0718C16";
paths = (
{
closed = 1;
nodes = (
"402 87 LINE SMOOTH",
"402 30 OFFCURVE",
"421 -3 OFFCURVE",
"427 -15 CURVE",
"476 4 LINE",
"471 6 OFFCURVE",
"455 49 OFFCURVE",
"455 87 CURVE SMOOTH",
"455 315 LINE SMOOTH",
"455 421 OFFCURVE",
"381 505 OFFCURVE",
"275 505 CURVE SMOOTH",
"208 505 OFFCURVE",
"152 465 OFFCURVE",
"124 412 CURVE",
"124 734 LINE",
"69 734 LINE",
"69 0 LINE",
"123 0 LINE",
"123 278 LINE SMOOTH",
"123 371 OFFCURVE",
"182 456 OFFCURVE",
"272 456 CURVE SMOOTH",
"328 456 OFFCURVE",
"402 415 OFFCURVE",
"402 315 CURVE SMOOTH"
);
}
);
width = 524;
}
);
note = h;
unicode = 0068;
},
{
glyphname = i;
lastChange = "2017-12-19 06:11:59 +0000";
layers = (
{
layerId = "0B1DFD06-3317-40CA-B510-4969A0718C16";
paths = (
{
closed = 1;
nodes = (
"75 0 LINE",
"128 0 LINE",
"128 514 LINE",
"75 514 LINE"
);
},
{
closed = 1;
nodes = (
"77 697 OFFCURVE",
"56 678 OFFCURVE",
"56 653 CURVE SMOOTH",
"56 629 OFFCURVE",
"77 609 OFFCURVE",
"102 609 CURVE SMOOTH",
"126 609 OFFCURVE",
"145 629 OFFCURVE",
"145 653 CURVE SMOOTH",
"145 678 OFFCURVE",
"126 697 OFFCURVE",
"102 697 CURVE SMOOTH"
);
}
);
width = 204;
}
);
note = i;
unicode = 0069;
},
{
glyphname = j;
lastChange = "2017-12-19 06:11:59 +0000";
layers = (
{
layerId = "0B1DFD06-3317-40CA-B510-4969A0718C16";
paths = (
{
closed = 1;
nodes = (
"75 696 OFFCURVE",
"55 676 OFFCURVE",
"55 651 CURVE SMOOTH",
"55 628 OFFCURVE",
"75 607 OFFCURVE",
"99 607 CURVE SMOOTH",
"124 607 OFFCURVE",
"143 628 OFFCURVE",
"143 651 CURVE SMOOTH",
"143 676 OFFCURVE",
"124 696 OFFCURVE",
"99 696 CURVE SMOOTH"
);
},
{
closed = 1;
nodes = (
"-40 -220 OFFCURVE",
"-69 -174 OFFCURVE",
"-66 -174 CURVE",
"83 -161 OFFCURVE",
"75 -114 OFFCURVE",
"75 12 CURVE SMOOTH",
"75 514 LINE",
"128 514 LINE",
"128 -15 LINE SMOOTH",
"128 -154 OFFCURVE",
"97 -205 OFFCURVE",
"-43 -220 CURVE"
);
}
);
width = 204;
}
);
note = j;
unicode = 006A;
},
{
glyphname = k;
lastChange = "2017-12-19 06:11:59 +0000";
layers = (
{
layerId = "0B1DFD06-3317-40CA-B510-4969A0718C16";
paths = (
{
closed = 1;
nodes = (
"177 298 LINE",
"412 504 LINE",
"365 523 LINE",
"128 321 LINE",
"128 734 LINE",
"74 734 LINE",
"74 0 LINE",
"128 0 LINE",
"128 275 LINE",
"402 -15 LINE",
"449 3 LINE"
);
}
);
width = 458;
}
);
note = k;
unicode = 006B;
},
{
glyphname = l;
lastChange = "2017-12-19 06:11:59 +0000";
layers = (
{
layerId = "0B1DFD06-3317-40CA-B510-4969A0718C16";
paths = (
{
closed = 1;
nodes = (
"75 719 LINE",
"75 0 LINE",
"128 0 LINE",
"128 746 LINE",
"102 746 LINE"
);
}
);
width = 204;
}
);
note = l;
unicode = 006C;
},
{
glyphname = m;
lastChange = "2017-12-19 06:11:59 +0000";
layers = (
{
layerId = "0B1DFD06-3317-40CA-B510-4969A0718C16";
paths = (
{
closed = 1;
nodes = (
"68 0 LINE",
"121 0 LINE",
"121 294 LINE SMOOTH",
"121 383 OFFCURVE",
"162 464 OFFCURVE",
"251 464 CURVE SMOOTH",
"322 464 OFFCURVE",
"378 414 OFFCURVE",
"378 329 CURVE SMOOTH",
"378 0 LINE",
"431 0 LINE",
"431 294 LINE SMOOTH",
"431 383 OFFCURVE",
"482 464 OFFCURVE",
"570 464 CURVE SMOOTH",
"642 464 OFFCURVE",
"687 414 OFFCURVE",
"687 329 CURVE SMOOTH",
"687 90 LINE SMOOTH",
"687 32 OFFCURVE",
"705 0 OFFCURVE",
"710 -12 CURVE",
"759 7 LINE",
"755 9 OFFCURVE",
"740 52 OFFCURVE",
"740 90 CURVE SMOOTH",
"740 318 LINE SMOOTH",
"740 377 OFFCURVE",
"716 515 OFFCURVE",
"570 515 CURVE SMOOTH",
"501 515 OFFCURVE",
"439 473 OFFCURVE",
"415 411 CURVE",
"394 476 OFFCURVE",
"332 515 OFFCURVE",
"264 515 CURVE SMOOTH",
"205 515 OFFCURVE",
"148 482 OFFCURVE",
"121 428 CURVE",
"118 482 OFFCURVE",
"102 505 OFFCURVE",
"96 517 CURVE",
"46 498 LINE",
"55 477 OFFCURVE",
"68 458 OFFCURVE",
"68 393 CURVE SMOOTH"
);
}
);
width = 802;
}
);
note = m;
unicode = 006D;
},
{
glyphname = n;
lastChange = "2017-12-19 06:11:59 +0000";
layers = (
{
layerId = "0B1DFD06-3317-40CA-B510-4969A0718C16";
paths = (
{
closed = 1;
nodes = (
"68 0 LINE",
"123 0 LINE",
"123 295 LINE SMOOTH",
"123 383 OFFCURVE",
"173 462 OFFCURVE",
"260 462 CURVE SMOOTH",
"334 462 OFFCURVE",
"388 415 OFFCURVE",
"388 329 CURVE SMOOTH",
"388 87 LINE SMOOTH",
"388 30 OFFCURVE",
"406 -3 OFFCURVE",
"412 -15 CURVE",
"461 4 LINE",
"456 6 OFFCURVE",
"442 49 OFFCURVE",
"442 87 CURVE SMOOTH",
"442 328 LINE SMOOTH",
"442 385 OFFCURVE",
"415 517 OFFCURVE",
"270 517 CURVE SMOOTH",
"211 517 OFFCURVE",
"151 484 OFFCURVE",
"121 424 CURVE",
"121 482 OFFCURVE",
"102 505 OFFCURVE",
"96 517 CURVE",
"46 498 LINE",
"55 477 OFFCURVE",
"68 459 OFFCURVE",
"68 394 CURVE SMOOTH"
);
}
);
width = 504;
}
);
note = n;
unicode = 006E;
},
{
glyphname = o;
lastChange = "2017-12-19 06:11:59 +0000";
layers = (
{
layerId = "0B1DFD06-3317-40CA-B510-4969A0718C16";
paths = (
{
closed = 1;
nodes = (
"100 514 OFFCURVE",
"31 383 OFFCURVE",
"31 251 CURVE SMOOTH",
"31 121 OFFCURVE",
"100 -12 OFFCURVE",
"242 -12 CURVE SMOOTH",
"384 -12 OFFCURVE",
"455 121 OFFCURVE",
"455 251 CURVE SMOOTH",
"455 383 OFFCURVE",
"384 514 OFFCURVE",
"242 514 CURVE SMOOTH"
);
},
{
closed = 1;
nodes = (
"134 35 OFFCURVE",
"83 152 OFFCURVE",
"83 251 CURVE SMOOTH",
"83 350 OFFCURVE",
"134 467 OFFCURVE",
"242 467 CURVE SMOOTH",
"350 467 OFFCURVE",
"402 347 OFFCURVE",
"402 251 CURVE SMOOTH",
"402 152 OFFCURVE",
"350 35 OFFCURVE",
"242 35 CURVE SMOOTH"
);
}
);
width = 486;
}
);
note = o;
unicode = 006F;
},
{
glyphname = p;
lastChange = "2017-12-19 06:11:59 +0000";
layers = (
{
layerId = "0B1DFD06-3317-40CA-B510-4969A0718C16";
paths = (
{
closed = 1;
nodes = (
"176 40 OFFCURVE",
"124 136 OFFCURVE",
"114 223 CURVE",
"114 281 LINE",
"123 369 OFFCURVE",
"174 465 OFFCURVE",
"279 465 CURVE SMOOTH",
"393 465 OFFCURVE",
"440 347 OFFCURVE",
"440 253 CURVE SMOOTH",
"440 160 OFFCURVE",
"393 40 OFFCURVE",
"279 40 CURVE SMOOTH"
);
},
{
closed = 1;
nodes = (
"59 -130 LINE SMOOTH",
"59 -168 OFFCURVE",
"44 -211 OFFCURVE",
"40 -213 CURVE",
"90 -232 LINE",
"96 -220 OFFCURVE",
"114 -188 OFFCURVE",
"114 -130 CURVE SMOOTH",
"114 78 LINE",
"148 24 OFFCURVE",
"202 -13 OFFCURVE",
"279 -13 CURVE SMOOTH",
"422 -13 OFFCURVE",
"490 120 OFFCURVE",
"490 253 CURVE SMOOTH",
"490 384 OFFCURVE",
"422 518 OFFCURVE",
"279 518 CURVE SMOOTH",
"202 518 OFFCURVE",
"146 479 OFFCURVE",
"112 422 CURVE",
"112 480 OFFCURVE",
"92 505 OFFCURVE",
"86 517 CURVE",
"37 498 LINE",
"46 477 OFFCURVE",
"59 453 OFFCURVE",
"59 388 CURVE SMOOTH"
);
}
);
width = 527;
}
);
note = p;
unicode = 0070;
},
{
glyphname = q;
lastChange = "2017-12-19 06:11:59 +0000";
layers = (
{
layerId = "0B1DFD06-3317-40CA-B510-4969A0718C16";
paths = (
{
closed = 1;
nodes = (
"140 40 OFFCURVE",
"93 160 OFFCURVE",
"93 253 CURVE SMOOTH",
"93 347 OFFCURVE",
"140 465 OFFCURVE",
"254 465 CURVE SMOOTH",
"359 465 OFFCURVE",
"411 369 OFFCURVE",
"419 281 CURVE",
"419 223 LINE",
"409 136 OFFCURVE",
"357 40 OFFCURVE",
"254 40 CURVE SMOOTH"
);
},
{
closed = 1;
nodes = (
"474 388 LINE SMOOTH",
"474 453 OFFCURVE",
"487 477 OFFCURVE",
"496 498 CURVE",
"446 517 LINE",
"440 505 OFFCURVE",
"421 479 OFFCURVE",
"421 421 CURVE",
"387 477 OFFCURVE",
"331 518 OFFCURVE",
"254 518 CURVE SMOOTH",
"111 518 OFFCURVE",
"43 384 OFFCURVE",
"43 253 CURVE SMOOTH",
"43 120 OFFCURVE",
"111 -13 OFFCURVE",
"254 -13 CURVE SMOOTH",
"331 -13 OFFCURVE",
"385 24 OFFCURVE",
"419 78 CURVE",
"419 -130 LINE SMOOTH",
"419 -188 OFFCURVE",
"437 -220 OFFCURVE",
"443 -232 CURVE",
"493 -213 LINE",
"489 -211 OFFCURVE",
"474 -168 OFFCURVE",
"474 -130 CURVE SMOOTH"
);
}
);
width = 535;
}
);
note = q;
unicode = 0071;
},
{
glyphname = r;
lastChange = "2017-12-19 06:11:59 +0000";
layers = (
{
layerId = "0B1DFD06-3317-40CA-B510-4969A0718C16";
paths = (
{
closed = 1;
nodes = (
"69 0 LINE",
"124 0 LINE",
"124 284 LINE",
"133 459 OFFCURVE",
"241 484 OFFCURVE",
"301 452 CURVE",
"329 504 LINE",
"235 546 OFFCURVE",
"137 513 OFFCURVE",
"120 405 CURVE",
"127 458 OFFCURVE",
"102 505 OFFCURVE",
"96 517 CURVE",
"47 498 LINE",
"56 477 OFFCURVE",
"69 453 OFFCURVE",
"69 388 CURVE SMOOTH"
);
}
);
width = 328;
}
);
note = r;
unicode = 0072;
},
{
glyphname = s;
lastChange = "2017-12-19 06:11:59 +0000";
layers = (
{
layerId = "0B1DFD06-3317-40CA-B510-4969A0718C16";
paths = (
{
closed = 1;
nodes = (
"393 214 OFFCURVE",
"323 247 OFFCURVE",
"229 281 CURVE SMOOTH",
"146 312 OFFCURVE",
"97 334 OFFCURVE",
"97 387 CURVE SMOOTH",
"97 434 OFFCURVE",
"139 471 OFFCURVE",
"207 471 CURVE SMOOTH",
"266 471 OFFCURVE",
"321 440 OFFCURVE",
"337 428 CURVE",
"360 477 LINE",
"331 498 OFFCURVE",
"258 523 OFFCURVE",
"208 523 CURVE SMOOTH",
"97 523 OFFCURVE",
"40 452 OFFCURVE",
"40 380 CURVE SMOOTH",
"40 316 OFFCURVE",
"96 270 OFFCURVE",
"193 235 CURVE SMOOTH",
"306 195 OFFCURVE",
"337 177 OFFCURVE",
"337 121 CURVE SMOOTH",
"337 69 OFFCURVE",
"285 37 OFFCURVE",
"208 35 CURVE SMOOTH",
"133 34 OFFCURVE",
"84 69 OFFCURVE",
"58 95 CURVE",
"19 55 LINE",
"52 27 OFFCURVE",
"105 -15 OFFCURVE",
"207 -13 CURVE SMOOTH",
"332 -12 OFFCURVE",
"393 47 OFFCURVE",
"393 131 CURVE SMOOTH"
);
}
);
width = 419;
}
);
note = s;
unicode = 0073;
},
{
glyphname = t;
lastChange = "2017-12-19 06:11:59 +0000";
layers = (
{
layerId = "0B1DFD06-3317-40CA-B510-4969A0718C16";
paths = (
{
closed = 1;
nodes = (
"173 38 OFFCURVE",
"145 52 OFFCURVE",
"145 112 CURVE SMOOTH",
"145 470 LINE",
"253 470 LINE",
"264 514 LINE",
"145 514 LINE",
"145 668 LINE",
"126 668 LINE",
"92 641 LINE",
"92 514 LINE",
"22 514 LINE",
"10 470 LINE",
"92 470 LINE",
"92 134 LINE SMOOTH",
"92 68 OFFCURVE",
"92 -13 OFFCURVE",
"205 -13 CURVE SMOOTH",
"225 -13 OFFCURVE",
"257 -4 OFFCURVE",
"276 0 CURVE",
"260 50 LINE",
"248 47 OFFCURVE",
"232 38 OFFCURVE",
"214 38 CURVE SMOOTH"
);
}
);
width = 295;
}
);
note = t;
unicode = 0074;
},
{
glyphname = u;
lastChange = "2017-12-19 06:11:59 +0000";
layers = (
{
layerId = "0B1DFD06-3317-40CA-B510-4969A0718C16";
paths = (
{
closed = 1;
nodes = (
"450 514 LINE",
"396 514 LINE",
"396 208 LINE SMOOTH",
"396 121 OFFCURVE",
"340 35 OFFCURVE",
"253 35 CURVE SMOOTH",
"179 35 OFFCURVE",
"118 89 OFFCURVE",
"118 174 CURVE SMOOTH",
"118 514 LINE",
"65 514 LINE",
"65 176 LINE SMOOTH",
"65 118 OFFCURVE",
"97 -13 OFFCURVE",
"242 -13 CURVE SMOOTH",
"301 -13 OFFCURVE",
"368 13 OFFCURVE",
"397 74 CURVE",
"397 16 OFFCURVE",
"418 -6 OFFCURVE",
"424 -18 CURVE",
"473 1 LINE",
"464 22 OFFCURVE",
"450 46 OFFCURVE",
"450 111 CURVE SMOOTH"
);
}
);
width = 524;
}
);
note = u;
unicode = 0075;
},
{
glyphname = v;
lastChange = "2017-12-19 06:11:59 +0000";
layers = (
{
layerId = "0B1DFD06-3317-40CA-B510-4969A0718C16";
paths = (
{
closed = 1;
nodes = (
"247 83 LINE",
"83 521 LINE",
"28 511 LINE",
"216 22 LINE",
"213 16 LINE",
"199 -6 OFFCURVE",
"261 -31 OFFCURVE",
"270 0 CURVE",
"269 0 OFFCURVE",
"465 511 OFFCURVE",
"465 511 CURVE",
"409 521 LINE"
);
}
);
width = 495;
}
);
note = v;
unicode = 0076;
},
{
glyphname = w;
lastChange = "2017-12-19 06:11:59 +0000";
layers = (
{
layerId = "0B1DFD06-3317-40CA-B510-4969A0718C16";
paths = (
{
closed = 1;
nodes = (
"222 81 LINE",
"84 526 LINE",
"30 513 LINE",
"183 30 LINE",
"179 15 LINE SMOOTH",
"171 -12 OFFCURVE",
"245 -19 OFFCURVE",
"245 12 CURVE",
"383 408 LINE",
"518 12 LINE",
"518 -19 OFFCURVE",
"592 -12 OFFCURVE",
"585 15 CURVE SMOOTH",
"580 30 LINE",
"736 514 LINE",
"681 527 LINE",
"544 81 LINE",
"414 471 LINE",
"418 490 LINE",
"431 513 OFFCURVE",
"375 532 OFFCURVE",
"365 510 CURVE"
);
}
);
width = 768;
}
);
note = w;
unicode = 0077;
},
{
glyphname = x;
lastChange = "2017-12-19 06:11:59 +0000";
layers = (
{
layerId = "0B1DFD06-3317-40CA-B510-4969A0718C16";
paths = (
{
closed = 1;
nodes = (
"456 499 LINE",
"412 530 LINE",
"244 295 LINE",
"75 530 LINE",
"31 499 LINE",
"211 256 LINE",
"31 25 LINE",
"77 -9 LINE",
"244 216 LINE",
"412 -9 LINE",
"456 25 LINE",
"275 256 LINE"
);
}
);
width = 490;
}
);
note = x;
unicode = 0078;
},
{
glyphname = y;
lastChange = "2017-12-19 06:11:59 +0000";
layers = (
{
layerId = "0B1DFD06-3317-40CA-B510-4969A0718C16";
paths = (
{
closed = 1;
nodes = (
"251 -99 OFFCURVE",
"480 502 OFFCURVE",
"480 505 CURVE",
"431 529 LINE",
"264 80 LINE",
"84 529 LINE",
"31 505 LINE",
"233 15 LINE",
"192 -131 OFFCURVE",
"179 -140 OFFCURVE",
"74 -185 CURVE",
"90 -232 LINE",
"100 -226 OFFCURVE",
"140 -217 OFFCURVE",
"186 -186 CURVE",
"214 -165 OFFCURVE",
"232 -139 OFFCURVE",
"247 -103 CURVE"
);
}
);
width = 511;
}
);
note = y;
unicode = 0079;
},
{
glyphname = z;
lastChange = "2017-12-19 06:11:59 +0000";
layers = (
{
layerId = "0B1DFD06-3317-40CA-B510-4969A0718C16";
paths = (
{
closed = 1;
nodes = (
"427 0 LINE",
"427 52 LINE",
"112 52 LINE",
"414 461 LINE",
"437 461 OFFCURVE",
"439 514 OFFCURVE",
"414 514 CURVE SMOOTH",
"411 514 OFFCURVE",
"47 514 OFFCURVE",
"47 514 CURVE",
"47 461 LINE",
"346 461 LINE",
"46 52 LINE",
"24 52 OFFCURVE",
"21 0 OFFCURVE",
"46 0 CURVE SMOOTH"
);
}
);
width = 459;
}
);
note = z;
unicode = 007A;
},
{
glyphname = AE;
lastChange = "2017-12-19 06:12:08 +0000";
layers = (
{
layerId = "0B1DFD06-3317-40CA-B510-4969A0718C16";
paths = (
{
closed = 1;
nodes = (
"798 645 LINE",
"799 703 LINE",
"433 703 LINE SMOOTH",
"405 703 OFFCURVE",
"384 681 OFFCURVE",
"372 656 CURVE",
"3 16 LINE",
"53 -10 LINE",
"173 188 LINE",
"449 188 LINE",
"448 56 LINE SMOOTH",
"448 31 OFFCURVE",
"467 1 OFFCURVE",
"502 1 CURVE SMOOTH",
"798 1 LINE",
"798 59 LINE",
"508 59 LINE",
"508 335 LINE",
"767 335 LINE",
"765 393 LINE",
"508 393 LINE",
"508 645 LINE"
);
},
{
closed = 1;
nodes = (
"201 241 LINE",
"422 642 LINE",
"449 644 LINE",
"449 642 OFFCURVE",
"449 642 OFFCURVE",
"449 641 CURVE SMOOTH",
"449 241 LINE"
);
}
);
width = 832;
}
);
note = AE;
unicode = 00C6;
},
{
glyphname = Eth;
lastChange = "2017-12-19 06:12:24 +0000";
layers = (
{
layerId = "0B1DFD06-3317-40CA-B510-4969A0718C16";
paths = (
{
closed = 1;
nodes = (
"97 0 LINE",
"269 0 LINE SMOOTH",
"476 0 OFFCURVE",
"631 118 OFFCURVE",
"631 352 CURVE SMOOTH",
"631 582 OFFCURVE",
"476 700 OFFCURVE",
"269 700 CURVE SMOOTH",
"133 700 LINE",
"126 707 OFFCURVE",
"117 713 OFFCURVE",
"111 713 CURVE SMOOTH",
"92 713 OFFCURVE",
"78 697 OFFCURVE",
"75 688 CURVE",
"71 671 OFFCURVE",
"96 659 OFFCURVE",
"97 642 CURVE",
"97 384 LINE",
"3 384 LINE",
"3 328 LINE",
"97 328 LINE"
);
},
{
closed = 1;
nodes = (
"155 58 LINE",
"155 328 LINE",
"315 328 LINE",
"315 384 LINE",
"155 384 LINE",
"155 642 LINE",
"244 642 LINE SMOOTH",
"424 642 OFFCURVE",
"569 557 OFFCURVE",
"569 352 CURVE SMOOTH",
"569 174 OFFCURVE",
"459 58 OFFCURVE",
"282 58 CURVE SMOOTH"
);
}
);
width = 703;
}
);
note = Eth;
unicode = 00D0;
},
{
glyphname = Dcroat;
lastChange = "2017-12-19 07:48:04 +0000";
layers = (
{
layerId = "0B1DFD06-3317-40CA-B510-4969A0718C16";
paths = (
{
closed = 1;
nodes = (
"97 0 LINE",
"269 0 LINE SMOOTH",
"476 0 OFFCURVE",
"631 118 OFFCURVE",
"631 352 CURVE SMOOTH",
"631 582 OFFCURVE",
"476 700 OFFCURVE",
"269 700 CURVE SMOOTH",
"133 700 LINE",
"126 707 OFFCURVE",
"117 713 OFFCURVE",
"111 713 CURVE SMOOTH",
"92 713 OFFCURVE",
"78 697 OFFCURVE",
"75 688 CURVE",
"71 671 OFFCURVE",
"96 659 OFFCURVE",
"97 642 CURVE",
"97 384 LINE",
"3 384 LINE",
"3 328 LINE",
"97 328 LINE"
);
},
{
closed = 1;
nodes = (
"155 58 LINE",
"155 328 LINE",
"315 328 LINE",
"315 384 LINE",
"155 384 LINE",
"155 642 LINE",
"244 642 LINE SMOOTH",
"424 642 OFFCURVE",
"569 557 OFFCURVE",
"569 352 CURVE SMOOTH",
"569 174 OFFCURVE",
"459 58 OFFCURVE",
"282 58 CURVE SMOOTH"
);
}
);
width = 703;
}
);
note = Dcroat;
unicode = 0110;
},
{
glyphname = Eacute;
lastChange = "2017-12-19 05:21:12 +0000";
layers = (
{
background = {
paths = (
{
closed = 1;
nodes = (
"554 0 LINE",
"571 179 LINE",
"544 179 LINE",
"538 124 OFFCURVE",
"520 40 OFFCURVE",
"456 40 CURVE SMOOTH",
"201 40 LINE",
"201 659 LINE",
"441 659 LINE SMOOTH",
"516 659 OFFCURVE",
"525 567 OFFCURVE",
"528 527 CURVE",
"555 527 LINE",
"555 700 LINE",
"16 700 LINE",
"16 673 LINE",
"44 673 LINE SMOOTH",
"83 673 OFFCURVE",
"103 662 OFFCURVE",
"103 637 CURVE SMOOTH",
"103 62 LINE SMOOTH",
"103 37 OFFCURVE",
"83 26 OFFCURVE",
"44 26 CURVE SMOOTH",
"16 26 LINE",
"16 0 LINE"
);
},
{
closed = 1;
nodes = (
"455 251 LINE",
"455 485 LINE",
"431 485 LINE",
"427 436 OFFCURVE",
"424 388 OFFCURVE",
"379 388 CURVE SMOOTH",
"162 388 LINE",
"162 348 LINE",
"379 348 LINE SMOOTH",
"424 348 OFFCURVE",
"427 300 OFFCURVE",
"431 251 CURVE"
);
},
{
closed = 1;
nodes = (
"398 865 LINE SMOOTH",
"420 877 OFFCURVE",
"432 890 OFFCURVE",
"432 907 CURVE SMOOTH",
"432 922 OFFCURVE",
"420 937 OFFCURVE",
"398 937 CURVE SMOOTH",
"377 937 OFFCURVE",
"362 921 OFFCURVE",
"354 914 CURVE SMOOTH",
"239 807 LINE",
"256 782 LINE"
);
}
);
};
components = (
{
name = E;
},
{
name = acute;
transform = "{1, 0, 0, 1, 56, 230}";
}
);
layerId = "0B1DFD06-3317-40CA-B510-4969A0718C16";
width = 607;
}
);
note = Eacute;
unicode = 00C9;
},
{
glyphname = Ebreve;
lastChange = "2017-12-19 05:21:12 +0000";
layers = (
{
background = {
paths = (
{
closed = 1;
nodes = (
"554 0 LINE",
"571 179 LINE",
"544 179 LINE",
"538 124 OFFCURVE",
"520 40 OFFCURVE",
"456 40 CURVE SMOOTH",
"201 40 LINE",
"201 659 LINE",
"441 659 LINE SMOOTH",
"516 659 OFFCURVE",
"525 567 OFFCURVE",
"528 527 CURVE",
"555 527 LINE",
"555 700 LINE",
"16 700 LINE",
"16 673 LINE",
"44 673 LINE SMOOTH",
"83 673 OFFCURVE",
"103 662 OFFCURVE",
"103 637 CURVE SMOOTH",
"103 62 LINE SMOOTH",
"103 37 OFFCURVE",
"83 26 OFFCURVE",
"44 26 CURVE SMOOTH",
"16 26 LINE",
"16 0 LINE"
);
},
{
closed = 1;
nodes = (
"455 251 LINE",
"455 485 LINE",
"431 485 LINE",
"427 436 OFFCURVE",
"424 388 OFFCURVE",
"379 388 CURVE SMOOTH",
"162 388 LINE",
"162 348 LINE",
"379 348 LINE SMOOTH",
"424 348 OFFCURVE",
"427 300 OFFCURVE",
"431 251 CURVE"
);
},
{
closed = 1;
nodes = (
"432 776 OFFCURVE",
"474 832 OFFCURVE",
"478 907 CURVE",
"445 907 LINE",
"439 848 OFFCURVE",
"397 822 OFFCURVE",
"333 822 CURVE SMOOTH",
"269 822 OFFCURVE",
"226 848 OFFCURVE",
"219 907 CURVE",
"186 907 LINE",
"190 829 OFFCURVE",
"232 776 OFFCURVE",
"333 776 CURVE SMOOTH"
);
}
);
};
components = (
{
name = E;
},
{
name = breve;
transform = "{1, 0, 0, 1, 68, 230}";
}
);
layerId = "0B1DFD06-3317-40CA-B510-4969A0718C16";
width = 607;
}
);
note = Ebreve;
unicode = 0114;
},
{
glyphname = Ecaron;
lastChange = "2017-12-19 05:21:12 +0000";
layers = (
{
background = {
paths = (
{
closed = 1;
nodes = (
"554 0 LINE",
"571 179 LINE",
"544 179 LINE",
"538 124 OFFCURVE",
"520 40 OFFCURVE",
"456 40 CURVE SMOOTH",
"201 40 LINE",
"201 659 LINE",
"441 659 LINE SMOOTH",
"516 659 OFFCURVE",
"525 567 OFFCURVE",
"528 527 CURVE",
"555 527 LINE",
"555 700 LINE",
"16 700 LINE",
"16 673 LINE",
"44 673 LINE SMOOTH",
"83 673 OFFCURVE",
"103 662 OFFCURVE",
"103 637 CURVE SMOOTH",
"103 62 LINE SMOOTH",
"103 37 OFFCURVE",
"83 26 OFFCURVE",
"44 26 CURVE SMOOTH",
"16 26 LINE",
"16 0 LINE"
);
},
{
closed = 1;
nodes = (
"455 251 LINE",
"455 485 LINE",
"431 485 LINE",
"427 436 OFFCURVE",
"424 388 OFFCURVE",
"379 388 CURVE SMOOTH",
"162 388 LINE",
"162 348 LINE",
"379 348 LINE SMOOTH",
"424 348 OFFCURVE",
"427 300 OFFCURVE",
"431 251 CURVE"
);
},
{
closed = 1;
nodes = (
"357 782 LINE",
"481 911 LINE",
"462 932 LINE",
"354 847 LINE",
"346 840 OFFCURVE",
"337 836 OFFCURVE",
"331 836 CURVE SMOOTH",
"325 836 OFFCURVE",
"317 840 OFFCURVE",
"307 847 CURVE",
"199 932 LINE",
"180 911 LINE",
"304 782 LINE"
);
}
);
};
components = (
{
name = E;
},
{
name = caron;
transform = "{1, 0, 0, 1, 68, 230}";
}
);
layerId = "0B1DFD06-3317-40CA-B510-4969A0718C16";
width = 607;
}
);
note = Ecaron;
unicode = 011A;
},
{
glyphname = Ecircumflex;
lastChange = "2017-12-19 05:21:12 +0000";
layers = (
{
background = {
paths = (
{
closed = 1;
nodes = (
"554 0 LINE",
"571 179 LINE",
"544 179 LINE",
"538 124 OFFCURVE",
"520 40 OFFCURVE",
"456 40 CURVE SMOOTH",
"201 40 LINE",
"201 659 LINE",
"441 659 LINE SMOOTH",
"516 659 OFFCURVE",
"525 567 OFFCURVE",
"528 527 CURVE",
"555 527 LINE",
"555 700 LINE",
"16 700 LINE",
"16 673 LINE",
"44 673 LINE SMOOTH",
"83 673 OFFCURVE",
"103 662 OFFCURVE",
"103 637 CURVE SMOOTH",
"103 62 LINE SMOOTH",
"103 37 OFFCURVE",
"83 26 OFFCURVE",
"44 26 CURVE SMOOTH",
"16 26 LINE",
"16 0 LINE"
);
},
{
closed = 1;
nodes = (
"455 251 LINE",
"455 485 LINE",
"431 485 LINE",
"427 436 OFFCURVE",
"424 388 OFFCURVE",
"379 388 CURVE SMOOTH",
"162 388 LINE",
"162 348 LINE",
"379 348 LINE SMOOTH",
"424 348 OFFCURVE",
"427 300 OFFCURVE",
"431 251 CURVE"
);
},
{
closed = 1;
nodes = (
"304 868 LINE SMOOTH",
"312 874 OFFCURVE",
"322 879 OFFCURVE",
"328 879 CURVE SMOOTH",
"334 879 OFFCURVE",
"342 874 OFFCURVE",
"351 868 CURVE",
"459 782 LINE",
"478 803 LINE",
"354 932 LINE",
"301 932 LINE",
"177 803 LINE",
"196 782 LINE"
);
}
);
};
components = (
{
name = E;
},
{
name = circumflex;
transform = "{1, 0, 0, 1, 68, 230}";
}
);
layerId = "0B1DFD06-3317-40CA-B510-4969A0718C16";
width = 607;
}
);
note = Ecircumflex;
unicode = 00CA;
},
{
glyphname = Ecircumflexacute;
lastChange = "2017-12-19 05:21:12 +0000";
layers = (
{
background = {
paths = (
{
closed = 1;
nodes = (
"554 0 LINE",
"571 179 LINE",
"544 179 LINE",
"538 124 OFFCURVE",
"520 40 OFFCURVE",
"456 40 CURVE SMOOTH",
"201 40 LINE",
"201 659 LINE",
"441 659 LINE SMOOTH",
"516 659 OFFCURVE",
"525 567 OFFCURVE",
"528 527 CURVE",
"555 527 LINE",
"555 700 LINE",
"16 700 LINE",
"16 673 LINE",
"44 673 LINE SMOOTH",
"83 673 OFFCURVE",
"103 662 OFFCURVE",
"103 637 CURVE SMOOTH",
"103 62 LINE SMOOTH",
"103 37 OFFCURVE",
"83 26 OFFCURVE",
"44 26 CURVE SMOOTH",
"16 26 LINE",
"16 0 LINE"
);
},
{
closed = 1;
nodes = (
"455 251 LINE",
"455 485 LINE",
"431 485 LINE",
"427 436 OFFCURVE",
"424 388 OFFCURVE",
"379 388 CURVE SMOOTH",
"162 388 LINE",
"162 348 LINE",
"379 348 LINE SMOOTH",
"424 348 OFFCURVE",
"427 300 OFFCURVE",
"431 251 CURVE"
);
},
{
closed = 1;
nodes = (
"290 862 LINE SMOOTH",
"300 870 OFFCURVE",
"310 878 OFFCURVE",
"318 878 CURVE SMOOTH",
"324 878 OFFCURVE",
"332 873 OFFCURVE",
"341 867 CURVE",
"447 781 LINE",
"466 803 LINE",
"344 932 LINE",
"293 932 LINE",
"171 803 LINE",
"189 781 LINE"
);
},
{
closed = 1;
nodes = (
"555 960 LINE SMOOTH",
"578 972 OFFCURVE",
"591 988 OFFCURVE",
"591 1003 CURVE SMOOTH",
"591 1017 OFFCURVE",
"580 1034 OFFCURVE",
"557 1034 CURVE SMOOTH",
"538 1034 OFFCURVE",
"521 1018 OFFCURVE",
"511 1008 CURVE SMOOTH",
"415 915 LINE",
"433 893 LINE"
);
}
);
};
components = (
{
name = E;
},
{
name = circumflexacute;
transform = "{1, 0, 0, 1, 564, 230}";
}
);
layerId = "0B1DFD06-3317-40CA-B510-4969A0718C16";
width = 607;
}
);
note = Ecircumflexacute;
unicode = 1EBE;
},
{
glyphname = Ecircumflexdotbelow;
lastChange = "2017-12-19 05:21:12 +0000";
layers = (
{
background = {
paths = (
{
closed = 1;
nodes = (
"554 0 LINE",
"571 179 LINE",
"544 179 LINE",
"538 124 OFFCURVE",
"520 40 OFFCURVE",
"456 40 CURVE SMOOTH",
"201 40 LINE",
"201 659 LINE",
"441 659 LINE SMOOTH",
"516 659 OFFCURVE",
"525 567 OFFCURVE",
"528 527 CURVE",
"555 527 LINE",
"555 700 LINE",
"16 700 LINE",
"16 673 LINE",
"44 673 LINE SMOOTH",
"83 673 OFFCURVE",
"103 662 OFFCURVE",
"103 637 CURVE SMOOTH",
"103 62 LINE SMOOTH",
"103 37 OFFCURVE",
"83 26 OFFCURVE",
"44 26 CURVE SMOOTH",
"16 26 LINE",
"16 0 LINE"
);
},
{
closed = 1;
nodes = (
"350 -159 OFFCURVE",
"368 -140 OFFCURVE",
"368 -112 CURVE SMOOTH",
"368 -84 OFFCURVE",
"350 -64 OFFCURVE",
"322 -64 CURVE SMOOTH",
"294 -64 OFFCURVE",
"275 -84 OFFCURVE",
"275 -112 CURVE SMOOTH",
"275 -140 OFFCURVE",
"294 -159 OFFCURVE",
"322 -159 CURVE SMOOTH"
);
},
{
closed = 1;
nodes = (
"455 251 LINE",
"455 485 LINE",
"431 485 LINE",
"427 436 OFFCURVE",
"424 388 OFFCURVE",
"379 388 CURVE SMOOTH",
"162 388 LINE",
"162 348 LINE",
"379 348 LINE SMOOTH",
"424 348 OFFCURVE",
"427 300 OFFCURVE",
"431 251 CURVE"
);
},
{
closed = 1;
nodes = (
"294 868 LINE SMOOTH",
"302 874 OFFCURVE",
"312 879 OFFCURVE",
"318 879 CURVE SMOOTH",
"324 879 OFFCURVE",
"332 874 OFFCURVE",
"341 868 CURVE",
"449 782 LINE",
"468 803 LINE",
"344 932 LINE",
"291 932 LINE",
"167 803 LINE",
"186 782 LINE"
);
}
);
};
components = (
{
name = E;
},
{
name = dotbelowcomb;
transform = "{1, 0, 0, 1, 565, 0}";
},
{
name = circumflex;
transform = "{1, 0, 0, 1, 68, 230}";
}
);
layerId = "0B1DFD06-3317-40CA-B510-4969A0718C16";
width = 607;
}
);
note = Ecircumflexdotbelow;
unicode = 1EC6;
},
{
glyphname = Ecircumflexgrave;
lastChange = "2017-12-19 05:21:12 +0000";
layers = (
{
background = {
paths = (
{
closed = 1;
nodes = (
"554 0 LINE",
"571 179 LINE",
"544 179 LINE",
"538 124 OFFCURVE",
"520 40 OFFCURVE",
"456 40 CURVE SMOOTH",
"201 40 LINE",
"201 659 LINE",
"441 659 LINE SMOOTH",
"516 659 OFFCURVE",
"525 567 OFFCURVE",
"528 527 CURVE",
"555 527 LINE",
"555 700 LINE",
"16 700 LINE",
"16 673 LINE",
"44 673 LINE SMOOTH",
"83 673 OFFCURVE",
"103 662 OFFCURVE",
"103 637 CURVE SMOOTH",
"103 62 LINE SMOOTH",
"103 37 OFFCURVE",
"83 26 OFFCURVE",
"44 26 CURVE SMOOTH",
"16 26 LINE",
"16 0 LINE"
);
},
{
closed = 1;
nodes = (
"455 251 LINE",
"455 485 LINE",
"431 485 LINE",
"427 436 OFFCURVE",
"424 388 OFFCURVE",
"379 388 CURVE SMOOTH",
"162 388 LINE",
"162 348 LINE",
"379 348 LINE SMOOTH",
"424 348 OFFCURVE",
"427 300 OFFCURVE",
"431 251 CURVE"
);
},
{
closed = 1;
nodes = (
"227 915 LINE",
"132 1008 LINE SMOOTH",
"122 1018 OFFCURVE",
"105 1034 OFFCURVE",
"85 1034 CURVE SMOOTH",
"63 1034 OFFCURVE",
"52 1017 OFFCURVE",
"52 1003 CURVE SMOOTH",
"52 988 OFFCURVE",
"65 972 OFFCURVE",
"88 960 CURVE SMOOTH",
"210 893 LINE"
);
},
{
closed = 1;
nodes = (
"290 862 LINE SMOOTH",
"300 870 OFFCURVE",
"310 878 OFFCURVE",
"318 878 CURVE SMOOTH",
"324 878 OFFCURVE",
"332 873 OFFCURVE",
"341 867 CURVE",
"447 781 LINE",
"466 803 LINE",
"344 932 LINE",
"293 932 LINE",
"171 803 LINE",
"189 781 LINE"
);
}
);
};
components = (
{
name = E;
},
{
name = circumflexgrave;
transform = "{1, 0, 0, 1, 564, 230}";
}
);
layerId = "0B1DFD06-3317-40CA-B510-4969A0718C16";
width = 607;
}
);
note = Ecircumflexgrave;
unicode = 1EC0;
},
{
glyphname = Ecircumflexhookabove;
lastChange = "2017-12-19 05:21:12 +0000";
layers = (
{
background = {
paths = (
{
closed = 1;
nodes = (
"554 0 LINE",
"571 179 LINE",
"544 179 LINE",
"538 124 OFFCURVE",
"520 40 OFFCURVE",
"456 40 CURVE SMOOTH",
"201 40 LINE",
"201 659 LINE",
"441 659 LINE SMOOTH",
"516 659 OFFCURVE",
"525 567 OFFCURVE",
"528 527 CURVE",
"555 527 LINE",
"555 700 LINE",
"16 700 LINE",
"16 673 LINE",
"44 673 LINE SMOOTH",
"83 673 OFFCURVE",
"103 662 OFFCURVE",
"103 637 CURVE SMOOTH",
"103 62 LINE SMOOTH",
"103 37 OFFCURVE",
"83 26 OFFCURVE",
"44 26 CURVE SMOOTH",
"16 26 LINE",
"16 0 LINE"
);
},
{
closed = 1;
nodes = (
"455 251 LINE",
"455 485 LINE",
"431 485 LINE",
"427 436 OFFCURVE",
"424 388 OFFCURVE",
"379 388 CURVE SMOOTH",
"162 388 LINE",
"162 348 LINE",
"379 348 LINE SMOOTH",
"424 348 OFFCURVE",
"427 300 OFFCURVE",
"431 251 CURVE"
);
},
{
closed = 1;
nodes = (
"286 858 LINE",
"297 868 OFFCURVE",
"309 878 OFFCURVE",
"318 878 CURVE SMOOTH",
"324 878 OFFCURVE",
"332 873 OFFCURVE",
"341 867 CURVE",
"447 781 LINE",
"466 803 LINE",
"344 932 LINE",
"293 932 LINE",
"171 803 LINE",
"189 781 LINE"
);
},
{
closed = 1;
nodes = (
"493 898 LINE",
"474 905 OFFCURVE",
"464 912 OFFCURVE",
"464 926 CURVE SMOOTH",
"464 954 OFFCURVE",
"544 965 OFFCURVE",
"544 1010 CURVE SMOOTH",
"544 1047 OFFCURVE",
"502 1063 OFFCURVE",
"460 1063 CURVE SMOOTH",
"429 1063 OFFCURVE",
"384 1053 OFFCURVE",
"384 1022 CURVE SMOOTH",
"384 1010 OFFCURVE",
"395 1001 OFFCURVE",
"405 1001 CURVE SMOOTH",
"434 1001 OFFCURVE",
"421 1040 OFFCURVE",
"464 1040 CURVE SMOOTH",
"483 1040 OFFCURVE",
"494 1028 OFFCURVE",
"494 1013 CURVE SMOOTH",
"494 973 OFFCURVE",
"421 965 OFFCURVE",
"421 925 CURVE SMOOTH",
"421 901 OFFCURVE",
"437 880 OFFCURVE",
"484 880 CURVE"
);
}
);
};
components = (
{
name = E;
},
{
name = circumflexhookabove;
transform = "{1, 0, 0, 1, 564, 230}";
}
);
layerId = "0B1DFD06-3317-40CA-B510-4969A0718C16";
width = 607;
}
);
note = Ecircumflexhookabove;
unicode = 1EC2;
},
{
glyphname = Ecircumflextilde;
lastChange = "2017-12-19 05:21:12 +0000";
layers = (
{
background = {
paths = (
{
closed = 1;
nodes = (
"554 0 LINE",
"571 179 LINE",
"544 179 LINE",
"538 124 OFFCURVE",
"520 40 OFFCURVE",
"456 40 CURVE SMOOTH",
"201 40 LINE",
"201 659 LINE",
"441 659 LINE SMOOTH",
"516 659 OFFCURVE",
"525 567 OFFCURVE",
"528 527 CURVE",
"555 527 LINE",
"555 700 LINE",
"16 700 LINE",
"16 673 LINE",
"44 673 LINE SMOOTH",
"83 673 OFFCURVE",
"103 662 OFFCURVE",
"103 637 CURVE SMOOTH",
"103 62 LINE SMOOTH",
"103 37 OFFCURVE",
"83 26 OFFCURVE",
"44 26 CURVE SMOOTH",
"16 26 LINE",
"16 0 LINE"
);
},
{
closed = 1;
nodes = (
"455 251 LINE",
"455 485 LINE",
"431 485 LINE",
"427 436 OFFCURVE",
"424 388 OFFCURVE",
"379 388 CURVE SMOOTH",
"162 388 LINE",
"162 348 LINE",
"379 348 LINE SMOOTH",
"424 348 OFFCURVE",
"427 300 OFFCURVE",
"431 251 CURVE"
);
},
{
closed = 1;
nodes = (
"290 862 LINE SMOOTH",
"300 870 OFFCURVE",
"310 878 OFFCURVE",
"318 878 CURVE SMOOTH",
"324 878 OFFCURVE",
"332 873 OFFCURVE",
"341 867 CURVE",
"447 781 LINE",
"466 803 LINE",
"344 932 LINE",
"293 932 LINE",
"171 803 LINE",
"189 781 LINE"
);
},
{
closed = 1;
nodes = (
"193 997 OFFCURVE",
"211 1018 OFFCURVE",
"242 1018 CURVE SMOOTH",
"291 1018 OFFCURVE",
"338 964 OFFCURVE",
"387 964 CURVE SMOOTH",
"440 964 OFFCURVE",
"469 1012 OFFCURVE",
"481 1063 CURVE",
"460 1075 LINE",
"447 1035 OFFCURVE",
"431 1012 OFFCURVE",
"398 1012 CURVE SMOOTH",
"351 1012 OFFCURVE",
"302 1065 OFFCURVE",
"253 1065 CURVE SMOOTH",
"202 1065 OFFCURVE",
"170 1021 OFFCURVE",
"160 970 CURVE",
"180 958 LINE"
);
}
);
};
components = (
{
name = E;
},
{
name = circumflextilde;
transform = "{1, 0, 0, 1, 564, 230}";
}
);
layerId = "0B1DFD06-3317-40CA-B510-4969A0718C16";
width = 607;
}
);
note = Ecircumflextilde;
unicode = 1EC4;
},
{
glyphname = Edieresis;
lastChange = "2017-12-19 05:21:12 +0000";
layers = (
{
background = {
paths = (
{
closed = 1;
nodes = (
"554 0 LINE",
"571 179 LINE",
"544 179 LINE",
"538 124 OFFCURVE",
"520 40 OFFCURVE",
"456 40 CURVE SMOOTH",
"201 40 LINE",
"201 659 LINE",
"441 659 LINE SMOOTH",
"516 659 OFFCURVE",
"525 567 OFFCURVE",
"528 527 CURVE",
"555 527 LINE",
"555 700 LINE",
"16 700 LINE",
"16 673 LINE",
"44 673 LINE SMOOTH",
"83 673 OFFCURVE",
"103 662 OFFCURVE",
"103 637 CURVE SMOOTH",
"103 62 LINE SMOOTH",
"103 37 OFFCURVE",
"83 26 OFFCURVE",
"44 26 CURVE SMOOTH",
"16 26 LINE",
"16 0 LINE"
);
},
{
closed = 1;
nodes = (
"455 251 LINE",
"455 485 LINE",
"431 485 LINE",
"427 436 OFFCURVE",
"424 388 OFFCURVE",
"379 388 CURVE SMOOTH",
"162 388 LINE",
"162 348 LINE",
"379 348 LINE SMOOTH",
"424 348 OFFCURVE",
"427 300 OFFCURVE",
"431 251 CURVE"
);
},
{
closed = 1;
nodes = (
"254 781 OFFCURVE",
"272 800 OFFCURVE",
"272 827 CURVE SMOOTH",
"272 855 OFFCURVE",
"254 875 OFFCURVE",
"225 875 CURVE SMOOTH",
"197 875 OFFCURVE",
"179 855 OFFCURVE",
"179 827 CURVE SMOOTH",
"179 800 OFFCURVE",
"197 781 OFFCURVE",
"225 781 CURVE SMOOTH"
);
},
{
closed = 1;
nodes = (
"470 781 OFFCURVE",
"488 800 OFFCURVE",
"488 827 CURVE SMOOTH",
"488 855 OFFCURVE",
"470 875 OFFCURVE",
"441 875 CURVE SMOOTH",
"412 875 OFFCURVE",
"394 855 OFFCURVE",
"394 827 CURVE SMOOTH",
"394 800 OFFCURVE",
"412 781 OFFCURVE",
"441 781 CURVE SMOOTH"
);
}
);
};
components = (
{
name = E;
},
{
name = dieresis;
transform = "{1, 0, 0, 1, 68, 230}";
}
);
layerId = "0B1DFD06-3317-40CA-B510-4969A0718C16";
width = 607;
}
);
note = Edieresis;
unicode = 00CB;
},
{
glyphname = Edotaccent;
lastChange = "2017-12-19 05:21:12 +0000";
layers = (
{
background = {
paths = (
{
closed = 1;
nodes = (
"554 0 LINE",
"571 179 LINE",
"544 179 LINE",
"538 124 OFFCURVE",
"520 40 OFFCURVE",
"456 40 CURVE SMOOTH",
"201 40 LINE",
"201 659 LINE",
"441 659 LINE SMOOTH",
"516 659 OFFCURVE",
"525 567 OFFCURVE",
"528 527 CURVE",
"555 527 LINE",
"555 700 LINE",
"16 700 LINE",
"16 673 LINE",
"44 673 LINE SMOOTH",
"83 673 OFFCURVE",
"103 662 OFFCURVE",
"103 637 CURVE SMOOTH",
"103 62 LINE SMOOTH",
"103 37 OFFCURVE",
"83 26 OFFCURVE",
"44 26 CURVE SMOOTH",
"16 26 LINE",
"16 0 LINE"
);
},
{
closed = 1;
nodes = (
"455 251 LINE",
"455 485 LINE",
"431 485 LINE",
"427 436 OFFCURVE",
"424 388 OFFCURVE",
"379 388 CURVE SMOOTH",
"162 388 LINE",
"162 348 LINE",
"379 348 LINE SMOOTH",
"424 348 OFFCURVE",
"427 300 OFFCURVE",
"431 251 CURVE"
);
},
{
closed = 1;
nodes = (
"362 765 OFFCURVE",
"380 784 OFFCURVE",
"380 811 CURVE SMOOTH",
"380 839 OFFCURVE",
"362 858 OFFCURVE",
"334 858 CURVE SMOOTH",
"305 858 OFFCURVE",
"287 839 OFFCURVE",
"287 811 CURVE SMOOTH",
"287 784 OFFCURVE",
"305 765 OFFCURVE",
"334 765 CURVE SMOOTH"
);
}
);
};
components = (
{
name = E;
},
{
name = dotaccent;
transform = "{1, 0, 0, 1, 68, 230}";
}
);
layerId = "0B1DFD06-3317-40CA-B510-4969A0718C16";
width = 607;
}
);
note = Edotaccent;
unicode = 0116;
},
{
glyphname = Edotbelow;
lastChange = "2017-12-19 05:21:12 +0000";
layers = (
{
background = {
paths = (
{
closed = 1;
nodes = (
"554 0 LINE",
"571 179 LINE",
"544 179 LINE",
"538 124 OFFCURVE",
"520 40 OFFCURVE",
"456 40 CURVE SMOOTH",
"201 40 LINE",
"201 659 LINE",
"441 659 LINE SMOOTH",
"516 659 OFFCURVE",
"525 567 OFFCURVE",
"528 527 CURVE",
"555 527 LINE",
"555 700 LINE",
"16 700 LINE",
"16 673 LINE",
"44 673 LINE SMOOTH",
"83 673 OFFCURVE",
"103 662 OFFCURVE",
"103 637 CURVE SMOOTH",
"103 62 LINE SMOOTH",
"103 37 OFFCURVE",
"83 26 OFFCURVE",
"44 26 CURVE SMOOTH",
"16 26 LINE",
"16 0 LINE"
);
},
{
closed = 1;
nodes = (
"343 -159 OFFCURVE",
"361 -140 OFFCURVE",
"361 -112 CURVE SMOOTH",
"361 -84 OFFCURVE",
"343 -64 OFFCURVE",
"315 -64 CURVE SMOOTH",
"287 -64 OFFCURVE",
"268 -84 OFFCURVE",
"268 -112 CURVE SMOOTH",
"268 -140 OFFCURVE",
"287 -159 OFFCURVE",
"315 -159 CURVE SMOOTH"
);
},
{
closed = 1;
nodes = (
"455 251 LINE",
"455 485 LINE",
"431 485 LINE",
"427 436 OFFCURVE",
"424 388 OFFCURVE",
"379 388 CURVE SMOOTH",
"162 388 LINE",
"162 348 LINE",
"379 348 LINE SMOOTH",
"424 348 OFFCURVE",
"427 300 OFFCURVE",
"431 251 CURVE"
);
}
);
};
components = (
{
name = E;
},
{
name = dotbelowcomb;
transform = "{1, 0, 0, 1, 565, 0}";
}
);
layerId = "0B1DFD06-3317-40CA-B510-4969A0718C16";
width = 607;
}
);
note = Edotbelow;
unicode = 1EB8;
},
{
glyphname = Egrave;
lastChange = "2017-12-19 05:21:12 +0000";
layers = (
{
background = {
paths = (
{
closed = 1;
nodes = (
"554 0 LINE",
"571 179 LINE",
"544 179 LINE",
"538 124 OFFCURVE",
"520 40 OFFCURVE",
"456 40 CURVE SMOOTH",
"201 40 LINE",
"201 659 LINE",
"441 659 LINE SMOOTH",
"516 659 OFFCURVE",
"525 567 OFFCURVE",
"528 527 CURVE",
"555 527 LINE",
"555 700 LINE",
"16 700 LINE",
"16 673 LINE",
"44 673 LINE SMOOTH",
"83 673 OFFCURVE",
"103 662 OFFCURVE",
"103 637 CURVE SMOOTH",
"103 62 LINE SMOOTH",
"103 37 OFFCURVE",
"83 26 OFFCURVE",
"44 26 CURVE SMOOTH",
"16 26 LINE",
"16 0 LINE"
);
},
{
closed = 1;
nodes = (
"455 251 LINE",
"455 485 LINE",
"431 485 LINE",
"427 436 OFFCURVE",
"424 388 OFFCURVE",
"379 388 CURVE SMOOTH",
"162 388 LINE",
"162 348 LINE",
"379 348 LINE SMOOTH",
"424 348 OFFCURVE",
"427 300 OFFCURVE",
"431 251 CURVE"
);
},
{
closed = 1;
nodes = (
"425 807 LINE",
"310 913 LINE",
"301 922 OFFCURVE",
"285 937 OFFCURVE",
"265 937 CURVE SMOOTH",
"245 937 OFFCURVE",
"233 924 OFFCURVE",
"233 908 CURVE SMOOTH",
"233 890 OFFCURVE",
"245 876 OFFCURVE",
"264 865 CURVE SMOOTH",
"407 782 LINE"
);
}
);
};
components = (
{
name = E;
},
{
name = grave;
transform = "{1, 0, 0, 1, 68, 230}";
}
);
layerId = "0B1DFD06-3317-40CA-B510-4969A0718C16";
width = 607;
}
);
note = Egrave;
unicode = 00C8;
},
{
glyphname = Ehookabove;
lastChange = "2017-12-19 05:21:12 +0000";
layers = (
{
background = {
paths = (
{
closed = 1;
nodes = (
"554 0 LINE",
"571 179 LINE",
"544 179 LINE",
"538 124 OFFCURVE",
"520 40 OFFCURVE",
"456 40 CURVE SMOOTH",
"201 40 LINE",
"201 659 LINE",
"441 659 LINE SMOOTH",
"516 659 OFFCURVE",
"525 567 OFFCURVE",
"528 527 CURVE",
"555 527 LINE",
"555 700 LINE",
"16 700 LINE",
"16 673 LINE",
"44 673 LINE SMOOTH",
"83 673 OFFCURVE",
"103 662 OFFCURVE",
"103 637 CURVE SMOOTH",
"103 62 LINE SMOOTH",
"103 37 OFFCURVE",
"83 26 OFFCURVE",
"44 26 CURVE SMOOTH",
"16 26 LINE",
"16 0 LINE"
);
},
{
closed = 1;
nodes = (
"455 251 LINE",
"455 485 LINE",
"431 485 LINE",
"427 436 OFFCURVE",
"424 388 OFFCURVE",
"379 388 CURVE SMOOTH",
"162 388 LINE",
"162 348 LINE",
"379 348 LINE SMOOTH",
"424 348 OFFCURVE",
"427 300 OFFCURVE",
"431 251 CURVE"
);
},
{
closed = 1;
nodes = (
"367 798 LINE",
"348 805 OFFCURVE",
"336 811 OFFCURVE",
"336 828 CURVE SMOOTH",
"336 861 OFFCURVE",
"425 876 OFFCURVE",
"425 927 CURVE SMOOTH",
"425 969 OFFCURVE",
"389 991 OFFCURVE",
"336 991 CURVE SMOOTH",
"289 991 OFFCURVE",
"248 974 OFFCURVE",
"248 940 CURVE SMOOTH",
"248 923 OFFCURVE",
"256 915 OFFCURVE",
"271 915 CURVE SMOOTH",
"294 915 OFFCURVE",
"296 934 OFFCURVE",
"299 942 CURVE SMOOTH",
"304 956 OFFCURVE",
"321 962 OFFCURVE",
"337 962 CURVE SMOOTH",
"358 962 OFFCURVE",
"371 947 OFFCURVE",
"371 930 CURVE SMOOTH",
"371 885 OFFCURVE",
"289 874 OFFCURVE",
"289 828 CURVE SMOOTH",
"289 801 OFFCURVE",
"307 778 OFFCURVE",
"358 778 CURVE"
);
}
);
};
components = (
{
name = E;
},
{
name = hookabovecomb;
transform = "{1, 0, 0, 1, 565, 230}";
}
);
layerId = "0B1DFD06-3317-40CA-B510-4969A0718C16";
width = 607;
}
);
note = Ehookabove;
unicode = 1EBA;
},
{
glyphname = Emacron;
lastChange = "2017-12-19 05:21:12 +0000";
layers = (
{
background = {
paths = (
{
closed = 1;
nodes = (
"554 0 LINE",
"571 179 LINE",
"544 179 LINE",
"538 124 OFFCURVE",
"520 40 OFFCURVE",
"456 40 CURVE SMOOTH",
"201 40 LINE",
"201 659 LINE",
"441 659 LINE SMOOTH",
"516 659 OFFCURVE",
"525 567 OFFCURVE",
"528 527 CURVE",
"555 527 LINE",
"555 700 LINE",
"16 700 LINE",
"16 673 LINE",
"44 673 LINE SMOOTH",
"83 673 OFFCURVE",
"103 662 OFFCURVE",
"103 637 CURVE SMOOTH",
"103 62 LINE SMOOTH",
"103 37 OFFCURVE",
"83 26 OFFCURVE",
"44 26 CURVE SMOOTH",
"16 26 LINE",
"16 0 LINE"
);
},
{
closed = 1;
nodes = (
"455 251 LINE",
"455 485 LINE",
"431 485 LINE",
"427 436 OFFCURVE",
"424 388 OFFCURVE",
"379 388 CURVE SMOOTH",
"162 388 LINE",
"162 348 LINE",
"379 348 LINE SMOOTH",
"424 348 OFFCURVE",
"427 300 OFFCURVE",
"431 251 CURVE"
);
},
{
closed = 1;
nodes = (
"495 782 LINE",
"495 824 LINE",
"162 824 LINE",
"162 782 LINE"
);
}
);
};
components = (
{
name = E;
},
{
name = macron;
transform = "{1, 0, 0, 1, 68, 230}";
}
);
layerId = "0B1DFD06-3317-40CA-B510-4969A0718C16";
width = 607;
}
);
note = Emacron;
unicode = 0112;
},
{
glyphname = Eogonek;
lastChange = "2017-12-19 05:21:12 +0000";
layers = (
{
background = {
paths = (
{
closed = 1;
nodes = (
"554 0 LINE",
"571 179 LINE",
"544 179 LINE",
"538 124 OFFCURVE",
"520 40 OFFCURVE",
"456 40 CURVE SMOOTH",
"201 40 LINE",
"201 659 LINE",
"441 659 LINE SMOOTH",
"516 659 OFFCURVE",
"525 567 OFFCURVE",
"528 527 CURVE",
"555 527 LINE",
"555 700 LINE",
"16 700 LINE",
"16 673 LINE",
"44 673 LINE SMOOTH",
"83 673 OFFCURVE",
"103 662 OFFCURVE",
"103 637 CURVE SMOOTH",
"103 62 LINE SMOOTH",
"103 37 OFFCURVE",
"83 26 OFFCURVE",
"44 26 CURVE SMOOTH",
"16 26 LINE",
"16 0 LINE"
);
},
{
closed = 1;
nodes = (
"496 -196 OFFCURVE",
"524 -189 OFFCURVE",
"549 -172 CURVE",
"543 -152 LINE",
"527 -158 OFFCURVE",
"510 -162 OFFCURVE",
"497 -162 CURVE SMOOTH",
"464 -162 OFFCURVE",
"437 -146 OFFCURVE",
"437 -106 CURVE SMOOTH",
"437 -66 OFFCURVE",
"464 -26 OFFCURVE",
"510 4 CURVE",
"469 4 LINE",
"416 -22 OFFCURVE",
"376 -64 OFFCURVE",
"376 -114 CURVE SMOOTH",
"376 -147 OFFCURVE",
"395 -196 OFFCURVE",
"470 -196 CURVE SMOOTH"
);
},
{
closed = 1;
nodes = (
"455 251 LINE",
"455 485 LINE",
"431 485 LINE",
"427 436 OFFCURVE",
"424 388 OFFCURVE",
"379 388 CURVE SMOOTH",
"162 388 LINE",
"162 348 LINE",
"379 348 LINE SMOOTH",
"424 348 OFFCURVE",
"427 300 OFFCURVE",
"431 251 CURVE"
);
}
);
};
components = (
{
name = E;
},
{
name = ogonek;
transform = "{1, 0, 0, 1, 256, 0}";
}
);
layerId = "0B1DFD06-3317-40CA-B510-4969A0718C16";
width = 607;
}
);
note = Eogonek;
unicode = 0118;
},
{
glyphname = Etilde;
lastChange = "2017-12-19 05:21:12 +0000";
layers = (
{
background = {
paths = (
{
closed = 1;
nodes = (
"554 0 LINE",
"571 179 LINE",
"544 179 LINE",
"538 124 OFFCURVE",
"520 40 OFFCURVE",
"456 40 CURVE SMOOTH",
"201 40 LINE",
"201 659 LINE",
"441 659 LINE SMOOTH",
"516 659 OFFCURVE",
"525 567 OFFCURVE",
"528 527 CURVE",
"555 527 LINE",
"555 700 LINE",
"16 700 LINE",
"16 673 LINE",
"44 673 LINE SMOOTH",
"83 673 OFFCURVE",
"103 662 OFFCURVE",
"103 637 CURVE SMOOTH",
"103 62 LINE SMOOTH",
"103 37 OFFCURVE",
"83 26 OFFCURVE",
"44 26 CURVE SMOOTH",
"16 26 LINE",
"16 0 LINE"
);
},
{
closed = 1;
nodes = (
"455 251 LINE",
"455 485 LINE",
"431 485 LINE",
"427 436 OFFCURVE",
"424 388 OFFCURVE",
"379 388 CURVE SMOOTH",
"162 388 LINE",
"162 348 LINE",
"379 348 LINE SMOOTH",
"424 348 OFFCURVE",
"427 300 OFFCURVE",
"431 251 CURVE"
);
},
{
closed = 1;
nodes = (
"190 817 OFFCURVE",
"208 838 OFFCURVE",
"241 838 CURVE SMOOTH",
"292 838 OFFCURVE",
"341 784 OFFCURVE",
"392 784 CURVE SMOOTH",
"450 784 OFFCURVE",
"480 832 OFFCURVE",
"492 884 CURVE",
"471 895 LINE",
"455 855 OFFCURVE",
"439 833 OFFCURVE",
"405 833 CURVE SMOOTH",
"356 833 OFFCURVE",
"304 886 OFFCURVE",
"253 886 CURVE SMOOTH",
"199 886 OFFCURVE",
"166 842 OFFCURVE",
"154 790 CURVE",
"176 779 LINE"
);
}
);
};
components = (
{
name = E;
},
{
name = tilde;
transform = "{1, 0, 0, 1, 68, 230}";
}
);
layerId = "0B1DFD06-3317-40CA-B510-4969A0718C16";
width = 607;
}
);
note = Etilde;
unicode = 1EBC;
},
{
glyphname = Hbar;
lastChange = "2017-12-19 05:21:12 +0000";
layers = (
{
components = (
{
name = H;
}
);
layerId = "0B1DFD06-3317-40CA-B510-4969A0718C16";
paths = (
{
closed = 1;
nodes = (
"719 504 LINE",
"719 544 LINE",
"43 544 LINE",
"43 504 LINE"
);
}
);
width = 773;
}
);
note = Hbar;
unicode = 0126;
},
{
color = 0;
glyphname = IJ;
lastChange = "2017-12-19 05:22:42 +0000";
layers = (
{
layerId = "0B1DFD06-3317-40CA-B510-4969A0718C16";
paths = (
{
closed = 1;
nodes = (
"472 -114 OFFCURVE",
"561 -45 OFFCURVE",
"561 89 CURVE SMOOTH",
"561 637 LINE SMOOTH",
"561 662 OFFCURVE",
"581 673 OFFCURVE",
"619 673 CURVE SMOOTH",
"649 673 LINE",
"649 700 LINE",
"376 700 LINE",
"376 673 LINE",
"405 673 LINE SMOOTH",
"444 673 OFFCURVE",
"463 662 OFFCURVE",
"463 637 CURVE SMOOTH",
"463 90 LINE SMOOTH",
"463 -8 OFFCURVE",
"424 -75 OFFCURVE",
"339 -93 CURVE",
"343 -114 LINE"
);
},
{
closed = 1;
nodes = (
"298 0 LINE",
"298 26 LINE",
"270 26 LINE SMOOTH",
"231 26 OFFCURVE",
"211 37 OFFCURVE",
"211 62 CURVE SMOOTH",
"211 637 LINE SMOOTH",
"211 662 OFFCURVE",
"231 673 OFFCURVE",
"270 673 CURVE SMOOTH",
"298 673 LINE",
"298 700 LINE",
"26 700 LINE",
"26 673 LINE",
"55 673 LINE SMOOTH",
"93 673 OFFCURVE",
"113 662 OFFCURVE",
"113 637 CURVE SMOOTH",
"113 62 LINE SMOOTH",
"113 37 OFFCURVE",
"93 26 OFFCURVE",
"55 26 CURVE SMOOTH",
"26 26 LINE",
"26 0 LINE"
);
}
);
width = 675;
}
);
note = IJ;
rightKerningGroup = J;
unicode = 0132;
},
{
glyphname = Lslash;
lastChange = "2017-12-19 06:12:31 +0000";
layers = (
{
layerId = "0B1DFD06-3317-40CA-B510-4969A0718C16";
paths = (
{
closed = 1;
nodes = (
"90 309 LINE",
"90 69 LINE SMOOTH",
"90 34 OFFCURVE",
"61 31 OFFCURVE",
"65 13 CURVE",
"68 4 OFFCURVE",
"81 -18 OFFCURVE",
"100 -18 CURVE SMOOTH",
"106 -18 OFFCURVE",
"118 -9 OFFCURVE",
"126 0 CURVE",
"450 0 LINE",
"450 52 LINE",
"148 52 LINE",
"148 347 LINE",
"301 449 LINE",
"301 505 LINE",
"148 403 LINE",
"148 700 LINE",
"90 700 LINE",
"90 365 LINE",
"-7 300 LINE",
"-7 244 LINE"
);
}
);
width = 470;
}
);
note = Lslash;
unicode = 0141;
},
{
glyphname = Nacute;
lastChange = "2017-12-19 05:21:12 +0000";
layers = (
{
background = {
paths = (
{
closed = 1;
nodes = (
"247 0 LINE",
"247 26 LINE",
"217 26 LINE SMOOTH",
"179 26 OFFCURVE",
"159 37 OFFCURVE",
"159 62 CURVE SMOOTH",
"159 642 LINE",
"587 0 LINE",
"645 0 LINE",
"645 637 LINE SMOOTH",
"645 662 OFFCURVE",
"665 673 OFFCURVE",
"703 673 CURVE SMOOTH",
"733 673 LINE",
"733 700 LINE",
"508 700 LINE",
"508 673 LINE",
"537 673 LINE SMOOTH",
"576 673 OFFCURVE",
"595 662 OFFCURVE",
"595 637 CURVE SMOOTH",
"595 126 LINE",
"217 700 LINE",
"22 700 LINE",
"22 673 LINE",
"51 673 LINE SMOOTH",
"90 673 OFFCURVE",
"109 662 OFFCURVE",
"109 637 CURVE SMOOTH",
"109 62 LINE SMOOTH",
"109 37 OFFCURVE",
"90 26 OFFCURVE",
"51 26 CURVE SMOOTH",
"22 26 LINE",
"22 0 LINE"
);
},
{
closed = 1;
nodes = (
"458 865 LINE SMOOTH",
"480 877 OFFCURVE",
"492 890 OFFCURVE",
"492 907 CURVE SMOOTH",
"492 922 OFFCURVE",
"480 937 OFFCURVE",
"458 937 CURVE SMOOTH",
"437 937 OFFCURVE",
"422 921 OFFCURVE",
"414 914 CURVE SMOOTH",
"299 807 LINE",
"316 782 LINE"
);
}
);
};
components = (
{
name = N;
},
{
name = acute;
transform = "{1, 0, 0, 1, 120, 230}";
}
);
layerId = "0B1DFD06-3317-40CA-B510-4969A0718C16";
width = 755;
}
);
note = Nacute;
unicode = 0143;
},
{
glyphname = Ncaron;
lastChange = "2017-12-19 05:21:12 +0000";
layers = (
{
background = {
paths = (
{
closed = 1;
nodes = (
"247 0 LINE",
"247 26 LINE",
"217 26 LINE SMOOTH",
"179 26 OFFCURVE",
"159 37 OFFCURVE",
"159 62 CURVE SMOOTH",
"159 642 LINE",
"587 0 LINE",
"645 0 LINE",
"645 637 LINE SMOOTH",
"645 662 OFFCURVE",
"665 673 OFFCURVE",
"703 673 CURVE SMOOTH",
"733 673 LINE",
"733 700 LINE",
"508 700 LINE",
"508 673 LINE",
"537 673 LINE SMOOTH",
"576 673 OFFCURVE",
"595 662 OFFCURVE",
"595 637 CURVE SMOOTH",
"595 126 LINE",
"217 700 LINE",
"22 700 LINE",
"22 673 LINE",
"51 673 LINE SMOOTH",
"90 673 OFFCURVE",
"109 662 OFFCURVE",
"109 637 CURVE SMOOTH",
"109 62 LINE SMOOTH",
"109 37 OFFCURVE",
"90 26 OFFCURVE",
"51 26 CURVE SMOOTH",
"22 26 LINE",
"22 0 LINE"
);
},
{
closed = 1;
nodes = (
"403 782 LINE",
"527 911 LINE",
"508 932 LINE",
"400 847 LINE",
"392 840 OFFCURVE",
"383 836 OFFCURVE",
"377 836 CURVE SMOOTH",
"371 836 OFFCURVE",
"363 840 OFFCURVE",
"353 847 CURVE",
"245 932 LINE",
"226 911 LINE",
"350 782 LINE"
);
}
);
};
components = (
{
name = N;
},
{
name = caron;
transform = "{1, 0, 0, 1, 132, 230}";
}
);
layerId = "0B1DFD06-3317-40CA-B510-4969A0718C16";
width = 755;
}
);
note = Ncaron;
unicode = 0147;
},
{
glyphname = Ncommaaccent;
lastChange = "2017-12-19 05:21:12 +0000";
layers = (
{
background = {
paths = (
{
closed = 1;
nodes = (
"247 0 LINE",
"247 26 LINE",
"217 26 LINE SMOOTH",
"179 26 OFFCURVE",
"159 37 OFFCURVE",
"159 62 CURVE SMOOTH",
"159 642 LINE",
"587 0 LINE",
"645 0 LINE",
"645 637 LINE SMOOTH",
"645 662 OFFCURVE",
"665 673 OFFCURVE",
"703 673 CURVE SMOOTH",
"733 673 LINE",
"733 700 LINE",
"508 700 LINE",
"508 673 LINE",
"537 673 LINE SMOOTH",
"576 673 OFFCURVE",
"595 662 OFFCURVE",
"595 637 CURVE SMOOTH",
"595 126 LINE",
"217 700 LINE",
"22 700 LINE",
"22 673 LINE",
"51 673 LINE SMOOTH",
"90 673 OFFCURVE",
"109 662 OFFCURVE",
"109 637 CURVE SMOOTH",
"109 62 LINE SMOOTH",
"109 37 OFFCURVE",
"90 26 OFFCURVE",
"51 26 CURVE SMOOTH",
"22 26 LINE",
"22 0 LINE"
);
},
{
closed = 1;
nodes = (
"369 -258 OFFCURVE",
"413 -198 OFFCURVE",
"413 -135 CURVE SMOOTH",
"413 -87 OFFCURVE",
"389 -67 OFFCURVE",
"360 -67 CURVE SMOOTH",
"331 -67 OFFCURVE",
"314 -87 OFFCURVE",
"314 -111 CURVE SMOOTH",
"314 -145 OFFCURVE",
"349 -152 OFFCURVE",
"349 -187 CURVE SMOOTH",
"349 -223 OFFCURVE",
"323 -256 OFFCURVE",
"296 -282 CURVE",
"313 -299 LINE"
);
}
);
};
components = (
{
name = N;
},
{
name = commaaccentcomb;
}
);
layerId = "0B1DFD06-3317-40CA-B510-4969A0718C16";
width = 707;
}
);
note = Ncommaaccent;
unicode = 0145;
},
{
glyphname = Ndotaccent;
lastChange = "2017-12-19 05:21:12 +0000";
layers = (
{
background = {
paths = (
{
closed = 1;
nodes = (
"247 0 LINE",
"247 26 LINE",
"217 26 LINE SMOOTH",
"179 26 OFFCURVE",
"159 37 OFFCURVE",
"159 62 CURVE SMOOTH",
"159 642 LINE",
"587 0 LINE",
"645 0 LINE",
"645 637 LINE SMOOTH",
"645 662 OFFCURVE",
"665 673 OFFCURVE",
"703 673 CURVE SMOOTH",
"733 673 LINE",
"733 700 LINE",
"508 700 LINE",
"508 673 LINE",
"537 673 LINE SMOOTH",
"576 673 OFFCURVE",
"595 662 OFFCURVE",
"595 637 CURVE SMOOTH",
"595 126 LINE",
"217 700 LINE",
"22 700 LINE",
"22 673 LINE",
"51 673 LINE SMOOTH",
"90 673 OFFCURVE",
"109 662 OFFCURVE",
"109 637 CURVE SMOOTH",
"109 62 LINE SMOOTH",
"109 37 OFFCURVE",
"90 26 OFFCURVE",
"51 26 CURVE SMOOTH",
"22 26 LINE",
"22 0 LINE"
);
},
{
closed = 1;
nodes = (
"405 765 OFFCURVE",
"423 784 OFFCURVE",
"423 811 CURVE SMOOTH",
"423 839 OFFCURVE",
"405 858 OFFCURVE",
"377 858 CURVE SMOOTH",
"348 858 OFFCURVE",
"330 839 OFFCURVE",
"330 811 CURVE SMOOTH",
"330 784 OFFCURVE",
"348 765 OFFCURVE",
"377 765 CURVE SMOOTH"
);
}
);
};
components = (
{
name = N;
},
{
name = dotaccent;
transform = "{1, 0, 0, 1, 132, 230}";
}
);
layerId = "0B1DFD06-3317-40CA-B510-4969A0718C16";
width = 755;
}
);
note = Ndotaccent;
unicode = 1E44;
},
{
glyphname = Ndotbelow;
lastChange = "2017-12-19 05:21:12 +0000";
layers = (
{
background = {
paths = (
{
closed = 1;
nodes = (
"247 0 LINE",
"247 26 LINE",
"217 26 LINE SMOOTH",
"179 26 OFFCURVE",
"159 37 OFFCURVE",
"159 62 CURVE SMOOTH",
"159 642 LINE",
"587 0 LINE",
"645 0 LINE",
"645 637 LINE SMOOTH",
"645 662 OFFCURVE",
"665 673 OFFCURVE",
"703 673 CURVE SMOOTH",
"733 673 LINE",
"733 700 LINE",
"508 700 LINE",
"508 673 LINE",
"537 673 LINE SMOOTH",
"576 673 OFFCURVE",
"595 662 OFFCURVE",
"595 637 CURVE SMOOTH",
"595 126 LINE",
"217 700 LINE",
"22 700 LINE",
"22 673 LINE",
"51 673 LINE SMOOTH",
"90 673 OFFCURVE",
"109 662 OFFCURVE",
"109 637 CURVE SMOOTH",
"109 62 LINE SMOOTH",
"109 37 OFFCURVE",
"90 26 OFFCURVE",
"51 26 CURVE SMOOTH",
"22 26 LINE",
"22 0 LINE"
);
},
{
closed = 1;
nodes = (
"415 -159 OFFCURVE",
"433 -140 OFFCURVE",
"433 -112 CURVE SMOOTH",
"433 -84 OFFCURVE",
"415 -64 OFFCURVE",
"387 -64 CURVE SMOOTH",
"359 -64 OFFCURVE",
"340 -84 OFFCURVE",
"340 -112 CURVE SMOOTH",
"340 -140 OFFCURVE",
"359 -159 OFFCURVE",
"387 -159 CURVE SMOOTH"
);
}
);
};
components = (
{
name = N;
},
{
name = dotbelowcomb;
transform = "{1, 0, 0, 1, 629, 0}";
}
);
layerId = "0B1DFD06-3317-40CA-B510-4969A0718C16";
width = 755;
}
);
note = uni1E46;
unicode = 1E46;
},
{
color = 0;
glyphname = Eng;
lastChange = "2017-12-19 05:23:35 +0000";
layers = (
{
background = {
paths = (
{
closed = 1;
nodes = (
"592 -259 OFFCURVE",
"645 -182 OFFCURVE",
"645 -36 CURVE SMOOTH",
"645 637 LINE SMOOTH",
"645 662 OFFCURVE",
"665 673 OFFCURVE",
"703 673 CURVE SMOOTH",
"733 673 LINE",
"733 700 LINE",
"508 700 LINE",
"508 673 LINE",
"537 673 LINE SMOOTH",
"576 673 OFFCURVE",
"595 662 OFFCURVE",
"595 637 CURVE SMOOTH",
"595 125 LINE",
"219 700 LINE",
"22 700 LINE",
"22 673 LINE",
"51 673 LINE SMOOTH",
"90 673 OFFCURVE",
"109 662 OFFCURVE",
"109 637 CURVE SMOOTH",
"109 62 LINE SMOOTH",
"109 37 OFFCURVE",
"93 26 OFFCURVE",
"51 26 CURVE SMOOTH",
"22 26 LINE",
"22 0 LINE",
"247 0 LINE",
"247 26 LINE",
"217 26 LINE SMOOTH",
"179 26 OFFCURVE",
"159 37 OFFCURVE",
"159 62 CURVE SMOOTH",
"159 647 LINE",
"586 0 LINE",
"586 -76 LINE SMOOTH",
"586 -173 OFFCURVE",
"510 -238 OFFCURVE",
"423 -243 CURVE",
"427 -268 LINE"
);
}
);
};
layerId = "0B1DFD06-3317-40CA-B510-4969A0718C16";
paths = (
{
closed = 1;
nodes = (
"592 -259 OFFCURVE",
"645 -182 OFFCURVE",
"645 -36 CURVE SMOOTH",
"645 637 LINE SMOOTH",
"645 662 OFFCURVE",
"665 673 OFFCURVE",
"703 673 CURVE SMOOTH",
"733 673 LINE",
"733 700 LINE",
"508 700 LINE",
"508 673 LINE",
"537 673 LINE SMOOTH",
"576 673 OFFCURVE",
"595 662 OFFCURVE",
"595 637 CURVE SMOOTH",
"595 125 LINE",
"219 700 LINE",
"22 700 LINE",
"22 673 LINE",
"51 673 LINE SMOOTH",
"90 673 OFFCURVE",
"109 662 OFFCURVE",
"109 637 CURVE SMOOTH",
"109 62 LINE SMOOTH",
"109 37 OFFCURVE",
"93 26 OFFCURVE",
"51 26 CURVE SMOOTH",
"22 26 LINE",
"22 0 LINE",
"247 0 LINE",
"247 26 LINE",
"217 26 LINE SMOOTH",
"179 26 OFFCURVE",
"159 37 OFFCURVE",
"159 62 CURVE SMOOTH",
"159 647 LINE",
"586 0 LINE",
"586 -76 LINE SMOOTH",
"586 -173 OFFCURVE",
"510 -238 OFFCURVE",
"423 -243 CURVE",
"427 -268 LINE"
);
}
);
width = 755;
}
);
note = Eng;
unicode = 014A;
},
{
glyphname = Nlinebelow;
lastChange = "2017-12-19 05:21:12 +0000";
layers = (
{
background = {
paths = (
{
closed = 1;
nodes = (
"247 0 LINE",
"247 26 LINE",
"217 26 LINE SMOOTH",
"179 26 OFFCURVE",
"159 37 OFFCURVE",
"159 62 CURVE SMOOTH",
"159 642 LINE",
"587 0 LINE",
"645 0 LINE",
"645 637 LINE SMOOTH",
"645 662 OFFCURVE",
"665 673 OFFCURVE",
"703 673 CURVE SMOOTH",
"733 673 LINE",
"733 700 LINE",
"508 700 LINE",
"508 673 LINE",
"537 673 LINE SMOOTH",
"576 673 OFFCURVE",
"595 662 OFFCURVE",
"595 637 CURVE SMOOTH",
"595 126 LINE",
"217 700 LINE",
"22 700 LINE",
"22 673 LINE",
"51 673 LINE SMOOTH",
"90 673 OFFCURVE",
"109 662 OFFCURVE",
"109 637 CURVE SMOOTH",
"109 62 LINE SMOOTH",
"109 37 OFFCURVE",
"90 26 OFFCURVE",
"51 26 CURVE SMOOTH",
"22 26 LINE",
"22 0 LINE"
);
},
{
closed = 1;
nodes = (
"542 -110 LINE",
"542 -72 LINE",
"210 -72 LINE",
"210 -110 LINE"
);
}
);
};
components = (
{
name = N;
},
{
name = macronbelowcomb;
transform = "{1, 0, 0, 1, 378, 0}";
}
);
layerId = "0B1DFD06-3317-40CA-B510-4969A0718C16";
width = 755;
}
);
note = Nlinebelow;
unicode = 1E48;
},
{
glyphname = Ntilde;
lastChange = "2017-12-19 05:21:12 +0000";
layers = (
{
background = {
paths = (
{
closed = 1;
nodes = (
"247 0 LINE",
"247 26 LINE",
"217 26 LINE SMOOTH",
"179 26 OFFCURVE",
"159 37 OFFCURVE",
"159 62 CURVE SMOOTH",
"159 642 LINE",
"587 0 LINE",
"645 0 LINE",
"645 637 LINE SMOOTH",
"645 662 OFFCURVE",
"665 673 OFFCURVE",
"703 673 CURVE SMOOTH",
"733 673 LINE",
"733 700 LINE",
"508 700 LINE",
"508 673 LINE",
"537 673 LINE SMOOTH",
"576 673 OFFCURVE",
"595 662 OFFCURVE",
"595 637 CURVE SMOOTH",
"595 126 LINE",
"217 700 LINE",
"22 700 LINE",
"22 673 LINE",
"51 673 LINE SMOOTH",
"90 673 OFFCURVE",
"109 662 OFFCURVE",
"109 637 CURVE SMOOTH",
"109 62 LINE SMOOTH",
"109 37 OFFCURVE",
"90 26 OFFCURVE",
"51 26 CURVE SMOOTH",
"22 26 LINE",
"22 0 LINE"
);
},
{
closed = 1;
nodes = (
"254 818 OFFCURVE",
"272 839 OFFCURVE",
"305 839 CURVE SMOOTH",
"356 839 OFFCURVE",
"405 785 OFFCURVE",
"456 785 CURVE SMOOTH",
"514 785 OFFCURVE",
"544 833 OFFCURVE",
"556 885 CURVE",
"535 896 LINE",
"519 856 OFFCURVE",
"503 834 OFFCURVE",
"469 834 CURVE SMOOTH",
"420 834 OFFCURVE",
"368 887 OFFCURVE",
"317 887 CURVE SMOOTH",
"263 887 OFFCURVE",
"230 843 OFFCURVE",
"218 791 CURVE",
"240 780 LINE"
);
}
);
};
components = (
{
name = N;
},
{
name = tilde;
transform = "{1, 0, 0, 1, 132, 230}";
}
);
layerId = "0B1DFD06-3317-40CA-B510-4969A0718C16";
width = 755;
}
);
note = Ntilde;
unicode = 00D1;
},
{
glyphname = Oacute;
lastChange = "2017-12-19 05:21:12 +0000";
layers = (
{
background = {
paths = (
{
closed = 1;
nodes = (
"601 -10 OFFCURVE",
"719 124 OFFCURVE",
"719 350 CURVE SMOOTH",
"719 574 OFFCURVE",
"601 710 OFFCURVE",
"378 710 CURVE SMOOTH",
"154 710 OFFCURVE",
"36 574 OFFCURVE",
"36 350 CURVE SMOOTH",
"36 124 OFFCURVE",
"154 -10 OFFCURVE",
"378 -10 CURVE SMOOTH"
);
},
{
closed = 1;
nodes = (
"215 32 OFFCURVE",
"135 158 OFFCURVE",
"135 350 CURVE SMOOTH",
"135 541 OFFCURVE",
"215 668 OFFCURVE",
"377 668 CURVE SMOOTH",
"541 668 OFFCURVE",
"620 541 OFFCURVE",
"620 350 CURVE SMOOTH",
"620 158 OFFCURVE",
"541 32 OFFCURVE",
"377 32 CURVE SMOOTH"
);
},
{
closed = 1;
nodes = (
"440 865 LINE SMOOTH",
"462 877 OFFCURVE",
"474 890 OFFCURVE",
"474 907 CURVE SMOOTH",
"474 922 OFFCURVE",
"462 937 OFFCURVE",
"440 937 CURVE SMOOTH",
"419 937 OFFCURVE",
"404 921 OFFCURVE",
"396 914 CURVE SMOOTH",
"281 807 LINE",
"298 782 LINE"
);
}
);
};
components = (
{
name = O;
},
{
name = acute;
transform = "{1, 0, 0, 1, 120, 230}";
}
);
layerId = "0B1DFD06-3317-40CA-B510-4969A0718C16";
width = 755;
}
);
leftKerningGroup = O;
note = Oacute;
rightKerningGroup = O;
unicode = 00D3;
},
{
glyphname = Obreve;
lastChange = "2017-12-19 05:21:12 +0000";
layers = (
{
background = {
paths = (
{
closed = 1;
nodes = (
"601 -10 OFFCURVE",
"719 124 OFFCURVE",
"719 350 CURVE SMOOTH",
"719 574 OFFCURVE",
"601 710 OFFCURVE",
"378 710 CURVE SMOOTH",
"154 710 OFFCURVE",
"36 574 OFFCURVE",
"36 350 CURVE SMOOTH",
"36 124 OFFCURVE",
"154 -10 OFFCURVE",
"378 -10 CURVE SMOOTH"
);
},
{
closed = 1;
nodes = (
"215 32 OFFCURVE",
"135 158 OFFCURVE",
"135 350 CURVE SMOOTH",
"135 541 OFFCURVE",
"215 668 OFFCURVE",
"377 668 CURVE SMOOTH",
"541 668 OFFCURVE",
"620 541 OFFCURVE",
"620 350 CURVE SMOOTH",
"620 158 OFFCURVE",
"541 32 OFFCURVE",
"377 32 CURVE SMOOTH"
);
},
{
closed = 1;
nodes = (
"477 774 OFFCURVE",
"519 830 OFFCURVE",
"523 905 CURVE",
"490 905 LINE",
"484 846 OFFCURVE",
"442 820 OFFCURVE",
"378 820 CURVE SMOOTH",
"314 820 OFFCURVE",
"271 846 OFFCURVE",
"264 905 CURVE",
"231 905 LINE",
"235 827 OFFCURVE",
"277 774 OFFCURVE",
"378 774 CURVE SMOOTH"
);
}
);
};
components = (
{
name = O;
},
{
name = breve;
transform = "{1, 0, 0, 1, 132, 230}";
}
);
layerId = "0B1DFD06-3317-40CA-B510-4969A0718C16";
width = 755;
}
);
leftKerningGroup = O;
note = Obreve;
rightKerningGroup = O;
unicode = 014E;
},
{
glyphname = Ocaron;
lastChange = "2017-12-19 05:21:12 +0000";
layers = (
{
background = {
paths = (
{
closed = 1;
nodes = (
"601 -10 OFFCURVE",
"719 124 OFFCURVE",
"719 350 CURVE SMOOTH",
"719 574 OFFCURVE",
"601 710 OFFCURVE",
"378 710 CURVE SMOOTH",
"154 710 OFFCURVE",
"36 574 OFFCURVE",
"36 350 CURVE SMOOTH",
"36 124 OFFCURVE",
"154 -10 OFFCURVE",
"378 -10 CURVE SMOOTH"
);
},
{
closed = 1;
nodes = (
"215 32 OFFCURVE",
"135 158 OFFCURVE",
"135 350 CURVE SMOOTH",
"135 541 OFFCURVE",
"215 668 OFFCURVE",
"377 668 CURVE SMOOTH",
"541 668 OFFCURVE",
"620 541 OFFCURVE",
"620 350 CURVE SMOOTH",
"620 158 OFFCURVE",
"541 32 OFFCURVE",
"377 32 CURVE SMOOTH"
);
},
{
closed = 1;
nodes = (
"404 782 LINE",
"528 911 LINE",
"509 932 LINE",
"401 847 LINE",
"393 840 OFFCURVE",
"384 836 OFFCURVE",
"378 836 CURVE SMOOTH",
"372 836 OFFCURVE",
"364 840 OFFCURVE",
"354 847 CURVE",
"246 932 LINE",
"227 911 LINE",
"351 782 LINE"
);
}
);
};
components = (
{
name = O;
},
{
name = caron;
transform = "{1, 0, 0, 1, 132, 230}";
}
);
layerId = "0B1DFD06-3317-40CA-B510-4969A0718C16";
width = 755;
}
);
leftKerningGroup = O;
note = Ocaron;
rightKerningGroup = O;
unicode = 01D1;
},
{
glyphname = Ocircumflex;
lastChange = "2017-12-19 05:21:12 +0000";
layers = (
{
background = {
paths = (
{
closed = 1;
nodes = (
"601 -10 OFFCURVE",
"719 124 OFFCURVE",
"719 350 CURVE SMOOTH",
"719 574 OFFCURVE",
"601 710 OFFCURVE",
"378 710 CURVE SMOOTH",
"154 710 OFFCURVE",
"36 574 OFFCURVE",
"36 350 CURVE SMOOTH",
"36 124 OFFCURVE",
"154 -10 OFFCURVE",
"378 -10 CURVE SMOOTH"
);
},
{
closed = 1;
nodes = (
"215 32 OFFCURVE",
"135 158 OFFCURVE",
"135 350 CURVE SMOOTH",
"135 541 OFFCURVE",
"215 668 OFFCURVE",
"377 668 CURVE SMOOTH",
"541 668 OFFCURVE",
"620 541 OFFCURVE",
"620 350 CURVE SMOOTH",
"620 158 OFFCURVE",
"541 32 OFFCURVE",
"377 32 CURVE SMOOTH"
);
},
{
closed = 1;
nodes = (
"354 868 LINE SMOOTH",
"362 874 OFFCURVE",
"372 879 OFFCURVE",
"378 879 CURVE SMOOTH",
"384 879 OFFCURVE",
"392 874 OFFCURVE",
"401 868 CURVE",
"509 782 LINE",
"528 803 LINE",
"404 932 LINE",
"351 932 LINE",
"227 803 LINE",
"246 782 LINE"
);
}
);
};
components = (
{
name = O;
},
{
name = circumflex;
transform = "{1, 0, 0, 1, 132, 230}";
}
);
layerId = "0B1DFD06-3317-40CA-B510-4969A0718C16";
width = 755;
}
);
leftKerningGroup = O;
note = Ocircumflex;
rightKerningGroup = O;
unicode = 00D4;
},
{
glyphname = Ocircumflexacute;
lastChange = "2017-12-19 05:21:12 +0000";
layers = (
{
background = {
paths = (
{
closed = 1;
nodes = (
"601 -10 OFFCURVE",
"719 124 OFFCURVE",
"719 350 CURVE SMOOTH",
"719 574 OFFCURVE",
"601 710 OFFCURVE",
"378 710 CURVE SMOOTH",
"154 710 OFFCURVE",
"36 574 OFFCURVE",
"36 350 CURVE SMOOTH",
"36 124 OFFCURVE",
"154 -10 OFFCURVE",
"378 -10 CURVE SMOOTH"
);
},
{
closed = 1;
nodes = (
"215 32 OFFCURVE",
"135 158 OFFCURVE",
"135 350 CURVE SMOOTH",
"135 541 OFFCURVE",
"215 668 OFFCURVE",
"377 668 CURVE SMOOTH",
"541 668 OFFCURVE",
"620 541 OFFCURVE",
"620 350 CURVE SMOOTH",
"620 158 OFFCURVE",
"541 32 OFFCURVE",
"377 32 CURVE SMOOTH"
);
},
{
closed = 1;
nodes = (
"348 861 LINE SMOOTH",
"358 869 OFFCURVE",
"368 877 OFFCURVE",
"376 877 CURVE SMOOTH",
"382 877 OFFCURVE",
"390 872 OFFCURVE",
"399 866 CURVE",
"505 780 LINE",
"524 802 LINE",
"402 931 LINE",
"351 931 LINE",
"229 802 LINE",
"247 780 LINE"
);
},
{
closed = 1;
nodes = (
"613 959 LINE SMOOTH",
"636 971 OFFCURVE",
"649 987 OFFCURVE",
"649 1002 CURVE SMOOTH",
"649 1016 OFFCURVE",
"638 1033 OFFCURVE",
"615 1033 CURVE SMOOTH",
"596 1033 OFFCURVE",
"579 1017 OFFCURVE",
"569 1007 CURVE SMOOTH",
"473 914 LINE",
"491 892 LINE"
);
}
);
};
components = (
{
name = O;
},
{
name = circumflexacute;
transform = "{1, 0, 0, 1, 628, 230}";
}
);
layerId = "0B1DFD06-3317-40CA-B510-4969A0718C16";
width = 755;
}
);
leftKerningGroup = O;
note = Ocircumflexacute;
rightKerningGroup = O;
unicode = 1ED0;
},
{
glyphname = Ocircumflexdotbelow;
lastChange = "2017-12-19 05:21:12 +0000";
layers = (
{
background = {
paths = (
{
closed = 1;
nodes = (
"36 124 OFFCURVE",
"154 -10 OFFCURVE",
"378 -10 CURVE SMOOTH",
"601 -10 OFFCURVE",
"719 124 OFFCURVE",
"719 350 CURVE SMOOTH",
"719 574 OFFCURVE",
"601 710 OFFCURVE",
"378 710 CURVE SMOOTH",
"154 710 OFFCURVE",
"36 574 OFFCURVE",
"36 350 CURVE SMOOTH"
);
},
{
closed = 1;
nodes = (
"135 541 OFFCURVE",
"215 668 OFFCURVE",
"377 668 CURVE SMOOTH",
"541 668 OFFCURVE",
"620 541 OFFCURVE",
"620 350 CURVE SMOOTH",
"620 158 OFFCURVE",
"541 32 OFFCURVE",
"377 32 CURVE SMOOTH",
"215 32 OFFCURVE",
"135 158 OFFCURVE",
"135 350 CURVE SMOOTH"
);
},
{
closed = 1;
nodes = (
"245 782 LINE",
"353 868 LINE SMOOTH",
"361 874 OFFCURVE",
"371 879 OFFCURVE",
"377 879 CURVE SMOOTH",
"383 879 OFFCURVE",
"391 874 OFFCURVE",
"400 868 CURVE",
"508 782 LINE",
"527 803 LINE",
"403 932 LINE",
"350 932 LINE",
"226 803 LINE"
);
},
{
closed = 1;
nodes = (
"330 -140 OFFCURVE",
"349 -159 OFFCURVE",
"377 -159 CURVE SMOOTH",
"405 -159 OFFCURVE",
"423 -140 OFFCURVE",
"423 -112 CURVE SMOOTH",
"423 -84 OFFCURVE",
"405 -64 OFFCURVE",
"377 -64 CURVE SMOOTH",
"349 -64 OFFCURVE",
"330 -84 OFFCURVE",
"330 -112 CURVE SMOOTH"
);
}
);
};
components = (
{
name = O;
},
{
name = dotbelowcomb;
transform = "{1, 0, 0, 1, 629, 0}";
},
{
name = circumflex;
transform = "{1, 0, 0, 1, 132, 230}";
}
);
layerId = "0B1DFD06-3317-40CA-B510-4969A0718C16";
width = 755;
}
);
leftKerningGroup = O;
note = Ocircumflexdotbelow;
rightKerningGroup = O;
unicode = 1ED8;
},
{
glyphname = Ocircumflexgrave;
lastChange = "2017-12-19 05:21:12 +0000";
layers = (
{
background = {
paths = (
{
closed = 1;
nodes = (
"601 -10 OFFCURVE",
"719 124 OFFCURVE",
"719 350 CURVE SMOOTH",
"719 574 OFFCURVE",
"601 710 OFFCURVE",
"378 710 CURVE SMOOTH",
"154 710 OFFCURVE",
"36 574 OFFCURVE",
"36 350 CURVE SMOOTH",
"36 124 OFFCURVE",
"154 -10 OFFCURVE",
"378 -10 CURVE SMOOTH"
);
},
{
closed = 1;
nodes = (
"215 32 OFFCURVE",
"135 158 OFFCURVE",
"135 350 CURVE SMOOTH",
"135 541 OFFCURVE",
"215 668 OFFCURVE",
"377 668 CURVE SMOOTH",
"541 668 OFFCURVE",
"620 541 OFFCURVE",
"620 350 CURVE SMOOTH",
"620 158 OFFCURVE",
"541 32 OFFCURVE",
"377 32 CURVE SMOOTH"
);
},
{
closed = 1;
nodes = (
"285 914 LINE",
"190 1007 LINE SMOOTH",
"180 1017 OFFCURVE",
"163 1033 OFFCURVE",
"143 1033 CURVE SMOOTH",
"121 1033 OFFCURVE",
"110 1016 OFFCURVE",
"110 1002 CURVE SMOOTH",
"110 987 OFFCURVE",
"123 971 OFFCURVE",
"146 959 CURVE SMOOTH",
"268 892 LINE"
);
},
{
closed = 1;
nodes = (
"348 861 LINE SMOOTH",
"358 869 OFFCURVE",
"368 877 OFFCURVE",
"376 877 CURVE SMOOTH",
"382 877 OFFCURVE",
"390 872 OFFCURVE",
"399 866 CURVE",
"505 780 LINE",
"524 802 LINE",
"402 931 LINE",
"351 931 LINE",
"229 802 LINE",
"247 780 LINE"
);
}
);
};
components = (
{
name = O;
},
{
name = circumflexgrave;
transform = "{1, 0, 0, 1, 628, 230}";
}
);
layerId = "0B1DFD06-3317-40CA-B510-4969A0718C16";
width = 755;
}
);
leftKerningGroup = O;
note = Ocircumflexgrave;
rightKerningGroup = O;
unicode = 1ED2;
},
{
glyphname = Ocircumflexhookabove;
lastChange = "2017-12-19 05:21:12 +0000";
layers = (
{
background = {
paths = (
{
closed = 1;
nodes = (
"601 -10 OFFCURVE",
"719 124 OFFCURVE",
"719 350 CURVE SMOOTH",
"719 574 OFFCURVE",
"601 710 OFFCURVE",
"378 710 CURVE SMOOTH",
"154 710 OFFCURVE",
"36 574 OFFCURVE",
"36 350 CURVE SMOOTH",
"36 124 OFFCURVE",
"154 -10 OFFCURVE",
"378 -10 CURVE SMOOTH"
);
},
{
closed = 1;
nodes = (
"215 32 OFFCURVE",
"135 158 OFFCURVE",
"135 350 CURVE SMOOTH",
"135 541 OFFCURVE",
"215 668 OFFCURVE",
"377 668 CURVE SMOOTH",
"541 668 OFFCURVE",
"620 541 OFFCURVE",
"620 350 CURVE SMOOTH",
"620 158 OFFCURVE",
"541 32 OFFCURVE",
"377 32 CURVE SMOOTH"
);
},
{
closed = 1;
nodes = (
"344 858 LINE",
"355 868 OFFCURVE",
"367 878 OFFCURVE",
"376 878 CURVE SMOOTH",
"382 878 OFFCURVE",
"390 873 OFFCURVE",
"399 867 CURVE",
"505 781 LINE",
"524 803 LINE",
"402 932 LINE",
"351 932 LINE",
"229 803 LINE",
"247 781 LINE"
);
},
{
closed = 1;
nodes = (
"551 898 LINE",
"532 905 OFFCURVE",
"522 912 OFFCURVE",
"522 926 CURVE SMOOTH",
"522 954 OFFCURVE",
"602 965 OFFCURVE",
"602 1010 CURVE SMOOTH",
"602 1047 OFFCURVE",
"560 1063 OFFCURVE",
"518 1063 CURVE SMOOTH",
"487 1063 OFFCURVE",
"442 1053 OFFCURVE",
"442 1022 CURVE SMOOTH",
"442 1010 OFFCURVE",
"453 1001 OFFCURVE",
"463 1001 CURVE SMOOTH",
"492 1001 OFFCURVE",
"479 1040 OFFCURVE",
"522 1040 CURVE SMOOTH",
"541 1040 OFFCURVE",
"552 1028 OFFCURVE",
"552 1013 CURVE SMOOTH",
"552 973 OFFCURVE",
"479 965 OFFCURVE",
"479 925 CURVE SMOOTH",
"479 901 OFFCURVE",
"495 880 OFFCURVE",
"542 880 CURVE"
);
}
);
};
components = (
{
name = O;
},
{
name = circumflexhookabove;
transform = "{1, 0, 0, 1, 628, 230}";
}
);
layerId = "0B1DFD06-3317-40CA-B510-4969A0718C16";
width = 755;
}
);
leftKerningGroup = O;
note = Ocircumflexhookabove;
rightKerningGroup = O;
unicode = 1ED4;
},
{
glyphname = Ocircumflextilde;
lastChange = "2017-12-19 05:21:12 +0000";
layers = (
{
background = {
paths = (
{
closed = 1;
nodes = (
"601 -10 OFFCURVE",
"719 124 OFFCURVE",
"719 350 CURVE SMOOTH",
"719 574 OFFCURVE",
"601 710 OFFCURVE",
"378 710 CURVE SMOOTH",
"154 710 OFFCURVE",
"36 574 OFFCURVE",
"36 350 CURVE SMOOTH",
"36 124 OFFCURVE",
"154 -10 OFFCURVE",
"378 -10 CURVE SMOOTH"
);
},
{
closed = 1;
nodes = (
"215 32 OFFCURVE",
"135 158 OFFCURVE",
"135 350 CURVE SMOOTH",
"135 541 OFFCURVE",
"215 668 OFFCURVE",
"377 668 CURVE SMOOTH",
"541 668 OFFCURVE",
"620 541 OFFCURVE",
"620 350 CURVE SMOOTH",
"620 158 OFFCURVE",
"541 32 OFFCURVE",
"377 32 CURVE SMOOTH"
);
},
{
closed = 1;
nodes = (
"348 862 LINE SMOOTH",
"358 870 OFFCURVE",
"368 878 OFFCURVE",
"376 878 CURVE SMOOTH",
"382 878 OFFCURVE",
"390 873 OFFCURVE",
"399 867 CURVE",
"505 781 LINE",
"524 803 LINE",
"402 932 LINE",
"351 932 LINE",
"229 803 LINE",
"247 781 LINE"
);
},
{
closed = 1;
nodes = (
"251 997 OFFCURVE",
"269 1018 OFFCURVE",
"300 1018 CURVE SMOOTH",
"349 1018 OFFCURVE",
"396 964 OFFCURVE",
"445 964 CURVE SMOOTH",
"498 964 OFFCURVE",
"527 1012 OFFCURVE",
"539 1063 CURVE",
"518 1075 LINE",
"505 1035 OFFCURVE",
"489 1012 OFFCURVE",
"456 1012 CURVE SMOOTH",
"409 1012 OFFCURVE",
"360 1065 OFFCURVE",
"311 1065 CURVE SMOOTH",
"260 1065 OFFCURVE",
"228 1021 OFFCURVE",
"218 970 CURVE",
"238 958 LINE"
);
}
);
};
components = (
{
name = O;
},
{
name = circumflextilde;
transform = "{1, 0, 0, 1, 628, 230}";
}
);
layerId = "0B1DFD06-3317-40CA-B510-4969A0718C16";
width = 755;
}
);
leftKerningGroup = O;
note = Ocircumflextilde;
rightKerningGroup = O;
unicode = 1ED6;
},
{
glyphname = Odieresis;
lastChange = "2017-12-19 05:21:12 +0000";
layers = (
{
background = {
paths = (
{
closed = 1;
nodes = (
"601 -10 OFFCURVE",
"719 124 OFFCURVE",
"719 350 CURVE SMOOTH",
"719 574 OFFCURVE",
"601 710 OFFCURVE",
"378 710 CURVE SMOOTH",
"154 710 OFFCURVE",
"36 574 OFFCURVE",
"36 350 CURVE SMOOTH",
"36 124 OFFCURVE",
"154 -10 OFFCURVE",
"378 -10 CURVE SMOOTH"
);
},
{
closed = 1;
nodes = (
"215 32 OFFCURVE",
"135 158 OFFCURVE",
"135 350 CURVE SMOOTH",
"135 541 OFFCURVE",
"215 668 OFFCURVE",
"377 668 CURVE SMOOTH",
"541 668 OFFCURVE",
"620 541 OFFCURVE",
"620 350 CURVE SMOOTH",
"620 158 OFFCURVE",
"541 32 OFFCURVE",
"377 32 CURVE SMOOTH"
);
},
{
closed = 1;
nodes = (
"298 781 OFFCURVE",
"316 800 OFFCURVE",
"316 827 CURVE SMOOTH",
"316 855 OFFCURVE",
"298 875 OFFCURVE",
"269 875 CURVE SMOOTH",
"241 875 OFFCURVE",
"223 855 OFFCURVE",
"223 827 CURVE SMOOTH",
"223 800 OFFCURVE",
"241 781 OFFCURVE",
"269 781 CURVE SMOOTH"
);
},
{
closed = 1;
nodes = (
"514 781 OFFCURVE",
"532 800 OFFCURVE",
"532 827 CURVE SMOOTH",
"532 855 OFFCURVE",
"514 875 OFFCURVE",
"485 875 CURVE SMOOTH",
"456 875 OFFCURVE",
"438 855 OFFCURVE",
"438 827 CURVE SMOOTH",
"438 800 OFFCURVE",
"456 781 OFFCURVE",
"485 781 CURVE SMOOTH"
);
}
);
};
components = (
{
name = O;
},
{
name = dieresis;
transform = "{1, 0, 0, 1, 132, 230}";
}
);
layerId = "0B1DFD06-3317-40CA-B510-4969A0718C16";
width = 755;
}
);
leftKerningGroup = O;
note = Odieresis;
rightKerningGroup = O;
unicode = 00D6;
},
{
glyphname = Odotbelow;
lastChange = "2017-12-19 05:21:12 +0000";
layers = (
{
background = {
paths = (
{
closed = 1;
nodes = (
"36 124 OFFCURVE",
"154 -10 OFFCURVE",
"378 -10 CURVE SMOOTH",
"601 -10 OFFCURVE",
"719 124 OFFCURVE",
"719 350 CURVE SMOOTH",
"719 574 OFFCURVE",
"601 710 OFFCURVE",
"378 710 CURVE SMOOTH",
"154 710 OFFCURVE",
"36 574 OFFCURVE",
"36 350 CURVE SMOOTH"
);
},
{
closed = 1;
nodes = (
"135 541 OFFCURVE",
"215 668 OFFCURVE",
"377 668 CURVE SMOOTH",
"541 668 OFFCURVE",
"620 541 OFFCURVE",
"620 350 CURVE SMOOTH",
"620 158 OFFCURVE",
"541 32 OFFCURVE",
"377 32 CURVE SMOOTH",
"215 32 OFFCURVE",
"135 158 OFFCURVE",
"135 350 CURVE SMOOTH"
);
},
{
closed = 1;
nodes = (
"330 -140 OFFCURVE",
"349 -159 OFFCURVE",
"377 -159 CURVE SMOOTH",
"405 -159 OFFCURVE",
"423 -140 OFFCURVE",
"423 -112 CURVE SMOOTH",
"423 -84 OFFCURVE",
"405 -64 OFFCURVE",
"377 -64 CURVE SMOOTH",
"349 -64 OFFCURVE",
"330 -84 OFFCURVE",
"330 -112 CURVE SMOOTH"
);
}
);
};
components = (
{
name = O;
},
{
name = dotbelowcomb;
transform = "{1, 0, 0, 1, 629, 0}";
}
);
layerId = "0B1DFD06-3317-40CA-B510-4969A0718C16";
width = 755;
}
);
leftKerningGroup = O;
note = Odotbelow;
rightKerningGroup = O;
unicode = 1ECC;
},
{
glyphname = Ograve;
lastChange = "2017-12-19 05:21:12 +0000";
layers = (
{
background = {
paths = (
{
closed = 1;
nodes = (
"601 -10 OFFCURVE",
"719 124 OFFCURVE",
"719 350 CURVE SMOOTH",
"719 574 OFFCURVE",
"601 710 OFFCURVE",
"378 710 CURVE SMOOTH",
"154 710 OFFCURVE",
"36 574 OFFCURVE",
"36 350 CURVE SMOOTH",
"36 124 OFFCURVE",
"154 -10 OFFCURVE",
"378 -10 CURVE SMOOTH"
);
},
{
closed = 1;
nodes = (
"215 32 OFFCURVE",
"135 158 OFFCURVE",
"135 350 CURVE SMOOTH",
"135 541 OFFCURVE",
"215 668 OFFCURVE",
"377 668 CURVE SMOOTH",
"541 668 OFFCURVE",
"620 541 OFFCURVE",
"620 350 CURVE SMOOTH",
"620 158 OFFCURVE",
"541 32 OFFCURVE",
"377 32 CURVE SMOOTH"
);
},
{
closed = 1;
nodes = (
"459 807 LINE",
"344 913 LINE",
"335 922 OFFCURVE",
"319 937 OFFCURVE",
"299 937 CURVE SMOOTH",
"279 937 OFFCURVE",
"267 924 OFFCURVE",
"267 908 CURVE SMOOTH",
"267 890 OFFCURVE",
"279 876 OFFCURVE",
"298 865 CURVE SMOOTH",
"441 782 LINE"
);
}
);
};
components = (
{
name = O;
},
{
name = grave;
transform = "{1, 0, 0, 1, 132, 230}";
}
);
layerId = "0B1DFD06-3317-40CA-B510-4969A0718C16";
width = 755;
}
);
leftKerningGroup = O;
note = Ograve;
rightKerningGroup = O;
unicode = 00D2;
},
{
glyphname = Ohookabove;
lastChange = "2017-12-19 05:21:12 +0000";
layers = (
{
background = {
paths = (
{
closed = 1;
nodes = (
"601 -10 OFFCURVE",
"719 124 OFFCURVE",
"719 350 CURVE SMOOTH",
"719 574 OFFCURVE",
"601 710 OFFCURVE",
"378 710 CURVE SMOOTH",
"154 710 OFFCURVE",
"36 574 OFFCURVE",
"36 350 CURVE SMOOTH",
"36 124 OFFCURVE",
"154 -10 OFFCURVE",
"378 -10 CURVE SMOOTH"
);
},
{
closed = 1;
nodes = (
"215 32 OFFCURVE",
"135 158 OFFCURVE",
"135 350 CURVE SMOOTH",
"135 541 OFFCURVE",
"215 668 OFFCURVE",
"377 668 CURVE SMOOTH",
"541 668 OFFCURVE",
"620 541 OFFCURVE",
"620 350 CURVE SMOOTH",
"620 158 OFFCURVE",
"541 32 OFFCURVE",
"377 32 CURVE SMOOTH"
);
},
{
closed = 1;
nodes = (
"407 798 LINE",
"388 805 OFFCURVE",
"376 811 OFFCURVE",
"376 828 CURVE SMOOTH",
"376 861 OFFCURVE",
"465 876 OFFCURVE",
"465 927 CURVE SMOOTH",
"465 969 OFFCURVE",
"429 991 OFFCURVE",
"376 991 CURVE SMOOTH",
"329 991 OFFCURVE",
"288 974 OFFCURVE",
"288 940 CURVE SMOOTH",
"288 923 OFFCURVE",
"296 915 OFFCURVE",
"311 915 CURVE SMOOTH",
"334 915 OFFCURVE",
"336 934 OFFCURVE",
"339 942 CURVE SMOOTH",
"344 956 OFFCURVE",
"361 962 OFFCURVE",
"377 962 CURVE SMOOTH",
"398 962 OFFCURVE",
"411 947 OFFCURVE",
"411 930 CURVE SMOOTH",
"411 885 OFFCURVE",
"329 874 OFFCURVE",
"329 828 CURVE SMOOTH",
"329 801 OFFCURVE",
"347 778 OFFCURVE",
"398 778 CURVE"
);
}
);
};
components = (
{
name = O;
},
{
name = hookabovecomb;
transform = "{1, 0, 0, 1, 629, 230}";
}
);
layerId = "0B1DFD06-3317-40CA-B510-4969A0718C16";
width = 755;
}
);
leftKerningGroup = O;
note = Ohookabove;
rightKerningGroup = O;
unicode = 1ECE;
},
{
glyphname = Ohorn;
lastChange = "2017-12-19 06:12:42 +0000";
layers = (
{
layerId = "0B1DFD06-3317-40CA-B510-4969A0718C16";
paths = (
{
closed = 1;
nodes = (
"180 41 OFFCURVE",
"117 196 OFFCURVE",
"117 352 CURVE SMOOTH",
"117 505 OFFCURVE",
"180 662 OFFCURVE",
"340 662 CURVE SMOOTH",
"498 662 OFFCURVE",
"561 505 OFFCURVE",
"561 352 CURVE SMOOTH",
"561 196 OFFCURVE",
"498 41 OFFCURVE",
"340 41 CURVE SMOOTH"
);
},
{
closed = 1;
nodes = (
"595 740 LINE",
"585 691 OFFCURVE",
"558 660 OFFCURVE",
"530 637 CURVE",
"483 687 OFFCURVE",
"418 716 OFFCURVE",
"340 716 CURVE SMOOTH",
"158 716 OFFCURVE",
"59 570 OFFCURVE",
"59 352 CURVE SMOOTH",
"59 133 OFFCURVE",
"158 -13 OFFCURVE",
"340 -13 CURVE SMOOTH",
"518 -13 OFFCURVE",
"620 133 OFFCURVE",
"620 352 CURVE SMOOTH",
"620 449 OFFCURVE",
"600 533 OFFCURVE",
"560 595 CURVE",
"597 614 OFFCURVE",
"645 669 OFFCURVE",
"656 738 CURVE"
);
}
);
width = 679;
}
);
note = Ohorn;
unicode = 01A0;
},
{
glyphname = Ohornacute;
lastChange = "2017-12-19 05:21:12 +0000";
layers = (
{
background = {
paths = (
{
closed = 1;
nodes = (
"602 -10 OFFCURVE",
"720 124 OFFCURVE",
"720 350 CURVE SMOOTH",
"720 574 OFFCURVE",
"602 710 OFFCURVE",
"379 710 CURVE SMOOTH",
"155 710 OFFCURVE",
"37 574 OFFCURVE",
"37 350 CURVE SMOOTH",
"37 124 OFFCURVE",
"155 -10 OFFCURVE",
"379 -10 CURVE SMOOTH"
);
},
{
closed = 1;
nodes = (
"216 32 OFFCURVE",
"136 158 OFFCURVE",
"136 350 CURVE SMOOTH",
"136 541 OFFCURVE",
"216 668 OFFCURVE",
"378 668 CURVE SMOOTH",
"542 668 OFFCURVE",
"621 541 OFFCURVE",
"621 350 CURVE SMOOTH",
"621 158 OFFCURVE",
"542 32 OFFCURVE",
"378 32 CURVE SMOOTH"
);
},
{
closed = 1;
nodes = (
"424 864 LINE SMOOTH",
"446 876 OFFCURVE",
"458 889 OFFCURVE",
"458 906 CURVE SMOOTH",
"458 921 OFFCURVE",
"446 936 OFFCURVE",
"424 936 CURVE SMOOTH",
"403 936 OFFCURVE",
"388 920 OFFCURVE",
"380 913 CURVE SMOOTH",
"265 806 LINE",
"282 781 LINE"
);
},
{
closed = 1;
nodes = (
"691 567 OFFCURVE",
"756 632 OFFCURVE",
"756 705 CURVE SMOOTH",
"756 752 OFFCURVE",
"729 772 OFFCURVE",
"701 772 CURVE SMOOTH",
"672 772 OFFCURVE",
"656 752 OFFCURVE",
"656 729 CURVE SMOOTH",
"656 695 OFFCURVE",
"689 688 OFFCURVE",
"689 653 CURVE SMOOTH",
"689 617 OFFCURVE",
"658 588 OFFCURVE",
"623 568 CURVE",
"623 543 LINE"
);
}
);
};
components = (
{
name = acute;
transform = "{1, 0, 0, 1, 120, 230}";
},
{
name = Ohorn;
}
);
layerId = "0B1DFD06-3317-40CA-B510-4969A0718C16";
width = 755;
}
);
leftKerningGroup = O;
note = Ohornacute;
rightKerningGroup = O;
unicode = 1EDA;
},
{
glyphname = Ohorndotbelow;
lastChange = "2017-12-19 05:21:12 +0000";
layers = (
{
background = {
paths = (
{
closed = 1;
nodes = (
"602 -10 OFFCURVE",
"720 124 OFFCURVE",
"720 350 CURVE SMOOTH",
"720 574 OFFCURVE",
"602 710 OFFCURVE",
"379 710 CURVE SMOOTH",
"155 710 OFFCURVE",
"37 574 OFFCURVE",
"37 350 CURVE SMOOTH",
"37 124 OFFCURVE",
"155 -10 OFFCURVE",
"379 -10 CURVE SMOOTH"
);
},
{
closed = 1;
nodes = (
"216 32 OFFCURVE",
"136 158 OFFCURVE",
"136 350 CURVE SMOOTH",
"136 541 OFFCURVE",
"216 668 OFFCURVE",
"378 668 CURVE SMOOTH",
"542 668 OFFCURVE",
"621 541 OFFCURVE",
"621 350 CURVE SMOOTH",
"621 158 OFFCURVE",
"542 32 OFFCURVE",
"378 32 CURVE SMOOTH"
);
},
{
closed = 1;
nodes = (
"691 567 OFFCURVE",
"756 632 OFFCURVE",
"756 705 CURVE SMOOTH",
"756 752 OFFCURVE",
"729 772 OFFCURVE",
"701 772 CURVE SMOOTH",
"672 772 OFFCURVE",
"656 752 OFFCURVE",
"656 729 CURVE SMOOTH",
"656 695 OFFCURVE",
"689 688 OFFCURVE",
"689 653 CURVE SMOOTH",
"689 617 OFFCURVE",
"658 588 OFFCURVE",
"623 568 CURVE",
"623 543 LINE"
);
},
{
closed = 1;
nodes = (
"395 -159 OFFCURVE",
"413 -140 OFFCURVE",
"413 -112 CURVE SMOOTH",
"413 -84 OFFCURVE",
"395 -64 OFFCURVE",
"367 -64 CURVE SMOOTH",
"339 -64 OFFCURVE",
"320 -84 OFFCURVE",
"320 -112 CURVE SMOOTH",
"320 -140 OFFCURVE",
"339 -159 OFFCURVE",
"367 -159 CURVE SMOOTH"
);
}
);
};
components = (
{
name = dotbelowcomb;
transform = "{1, 0, 0, 1, 629, 0}";
},
{
name = Ohorn;
}
);
layerId = "0B1DFD06-3317-40CA-B510-4969A0718C16";
width = 755;
}
);
leftKerningGroup = O;
note = Ohorndotbelow;
rightKerningGroup = O;
unicode = 1EE2;
},
{
glyphname = Ohorngrave;
lastChange = "2017-12-19 05:21:12 +0000";
layers = (
{
background = {
paths = (
{
closed = 1;
nodes = (
"602 -10 OFFCURVE",
"720 124 OFFCURVE",
"720 350 CURVE SMOOTH",
"720 574 OFFCURVE",
"602 710 OFFCURVE",
"379 710 CURVE SMOOTH",
"155 710 OFFCURVE",
"37 574 OFFCURVE",
"37 350 CURVE SMOOTH",
"37 124 OFFCURVE",
"155 -10 OFFCURVE",
"379 -10 CURVE SMOOTH"
);
},
{
closed = 1;
nodes = (
"216 32 OFFCURVE",
"136 158 OFFCURVE",
"136 350 CURVE SMOOTH",
"136 541 OFFCURVE",
"216 668 OFFCURVE",
"378 668 CURVE SMOOTH",
"542 668 OFFCURVE",
"621 541 OFFCURVE",
"621 350 CURVE SMOOTH",
"621 158 OFFCURVE",
"542 32 OFFCURVE",
"378 32 CURVE SMOOTH"
);
},
{
closed = 1;
nodes = (
"464 816 LINE",
"349 922 LINE",
"340 931 OFFCURVE",
"324 946 OFFCURVE",
"304 946 CURVE SMOOTH",
"284 946 OFFCURVE",
"272 933 OFFCURVE",
"272 917 CURVE SMOOTH",
"272 899 OFFCURVE",
"284 885 OFFCURVE",
"303 874 CURVE SMOOTH",
"446 791 LINE"
);
},
{
closed = 1;
nodes = (
"691 567 OFFCURVE",
"756 632 OFFCURVE",
"756 705 CURVE SMOOTH",
"756 752 OFFCURVE",
"729 772 OFFCURVE",
"701 772 CURVE SMOOTH",
"672 772 OFFCURVE",
"656 752 OFFCURVE",
"656 729 CURVE SMOOTH",
"656 695 OFFCURVE",
"689 688 OFFCURVE",
"689 653 CURVE SMOOTH",
"689 617 OFFCURVE",
"658 588 OFFCURVE",
"623 568 CURVE",
"623 543 LINE"
);
}
);
};
components = (
{
name = grave;
transform = "{1, 0, 0, 1, 132, 230}";
},
{
name = Ohorn;
}
);
layerId = "0B1DFD06-3317-40CA-B510-4969A0718C16";
width = 755;
}
);
leftKerningGroup = O;
note = Ohorngrave;
rightKerningGroup = O;
unicode = 1EDC;
},
{
glyphname = Ohornhookabove;
lastChange = "2017-12-19 05:21:12 +0000";
layers = (
{
background = {
paths = (
{
closed = 1;
nodes = (
"602 -10 OFFCURVE",
"720 124 OFFCURVE",
"720 350 CURVE SMOOTH",
"720 574 OFFCURVE",
"602 710 OFFCURVE",
"379 710 CURVE SMOOTH",
"155 710 OFFCURVE",
"37 574 OFFCURVE",
"37 350 CURVE SMOOTH",
"37 124 OFFCURVE",
"155 -10 OFFCURVE",
"379 -10 CURVE SMOOTH"
);
},
{
closed = 1;
nodes = (
"216 32 OFFCURVE",
"136 158 OFFCURVE",
"136 350 CURVE SMOOTH",
"136 541 OFFCURVE",
"216 668 OFFCURVE",
"378 668 CURVE SMOOTH",
"542 668 OFFCURVE",
"621 541 OFFCURVE",
"621 350 CURVE SMOOTH",
"621 158 OFFCURVE",
"542 32 OFFCURVE",
"378 32 CURVE SMOOTH"
);
},
{
closed = 1;
nodes = (
"412 809 LINE",
"393 816 OFFCURVE",
"381 822 OFFCURVE",
"381 839 CURVE SMOOTH",
"381 872 OFFCURVE",
"470 887 OFFCURVE",
"470 938 CURVE SMOOTH",
"470 980 OFFCURVE",
"434 1002 OFFCURVE",
"381 1002 CURVE SMOOTH",
"334 1002 OFFCURVE",
"293 985 OFFCURVE",
"293 951 CURVE SMOOTH",
"293 934 OFFCURVE",
"301 926 OFFCURVE",
"316 926 CURVE SMOOTH",
"339 926 OFFCURVE",
"341 945 OFFCURVE",
"344 953 CURVE SMOOTH",
"349 967 OFFCURVE",
"366 973 OFFCURVE",
"382 973 CURVE SMOOTH",
"403 973 OFFCURVE",
"416 958 OFFCURVE",
"416 941 CURVE SMOOTH",
"416 896 OFFCURVE",
"334 885 OFFCURVE",
"334 839 CURVE SMOOTH",
"334 812 OFFCURVE",
"352 789 OFFCURVE",
"403 789 CURVE"
);
},
{
closed = 1;
nodes = (
"691 567 OFFCURVE",
"756 632 OFFCURVE",
"756 705 CURVE SMOOTH",
"756 752 OFFCURVE",
"729 772 OFFCURVE",
"701 772 CURVE SMOOTH",
"672 772 OFFCURVE",
"656 752 OFFCURVE",
"656 729 CURVE SMOOTH",
"656 695 OFFCURVE",
"689 688 OFFCURVE",
"689 653 CURVE SMOOTH",
"689 617 OFFCURVE",
"658 588 OFFCURVE",
"623 568 CURVE",
"623 543 LINE"
);
}
);
};
components = (
{
name = hookabovecomb;
transform = "{1, 0, 0, 1, 629, 230}";
},
{
name = Ohorn;
}
);
layerId = "0B1DFD06-3317-40CA-B510-4969A0718C16";
width = 755;
}
);
leftKerningGroup = O;
note = Ohornhookabove;
rightKerningGroup = O;
unicode = 1EDE;
},
{
glyphname = Ohorntilde;
lastChange = "2017-12-19 05:21:12 +0000";
layers = (
{
background = {
paths = (
{
closed = 1;
nodes = (
"602 -10 OFFCURVE",
"720 124 OFFCURVE",
"720 350 CURVE SMOOTH",
"720 574 OFFCURVE",
"602 710 OFFCURVE",
"379 710 CURVE SMOOTH",
"155 710 OFFCURVE",
"37 574 OFFCURVE",
"37 350 CURVE SMOOTH",
"37 124 OFFCURVE",
"155 -10 OFFCURVE",
"379 -10 CURVE SMOOTH"
);
},
{
closed = 1;
nodes = (
"216 32 OFFCURVE",
"136 158 OFFCURVE",
"136 350 CURVE SMOOTH",
"136 541 OFFCURVE",
"216 668 OFFCURVE",
"378 668 CURVE SMOOTH",
"542 668 OFFCURVE",
"621 541 OFFCURVE",
"621 350 CURVE SMOOTH",
"621 158 OFFCURVE",
"542 32 OFFCURVE",
"378 32 CURVE SMOOTH"
);
},
{
closed = 1;
nodes = (
"234 828 OFFCURVE",
"252 849 OFFCURVE",
"285 849 CURVE SMOOTH",
"336 849 OFFCURVE",
"385 795 OFFCURVE",
"436 795 CURVE SMOOTH",
"494 795 OFFCURVE",
"524 843 OFFCURVE",
"536 895 CURVE",
"515 906 LINE",
"499 866 OFFCURVE",
"483 844 OFFCURVE",
"449 844 CURVE SMOOTH",
"400 844 OFFCURVE",
"348 897 OFFCURVE",
"297 897 CURVE SMOOTH",
"243 897 OFFCURVE",
"210 853 OFFCURVE",
"198 801 CURVE",
"220 790 LINE"
);
},
{
closed = 1;
nodes = (
"691 567 OFFCURVE",
"756 632 OFFCURVE",
"756 705 CURVE SMOOTH",
"756 752 OFFCURVE",
"729 772 OFFCURVE",
"701 772 CURVE SMOOTH",
"672 772 OFFCURVE",
"656 752 OFFCURVE",
"656 729 CURVE SMOOTH",
"656 695 OFFCURVE",
"689 688 OFFCURVE",
"689 653 CURVE SMOOTH",
"689 617 OFFCURVE",
"658 588 OFFCURVE",
"623 568 CURVE",
"623 543 LINE"
);
}
);
};
components = (
{
name = tilde;
transform = "{1, 0, 0, 1, 132, 230}";
},
{
name = Ohorn;
}
);
layerId = "0B1DFD06-3317-40CA-B510-4969A0718C16";
width = 755;
}
);
leftKerningGroup = O;
note = Ohorntilde;
rightKerningGroup = O;
unicode = 1EE0;
},
{
glyphname = Ohungarumlaut;
lastChange = "2017-12-19 05:21:12 +0000";
layers = (
{
background = {
paths = (
{
closed = 1;
nodes = (
"601 -10 OFFCURVE",
"719 124 OFFCURVE",
"719 350 CURVE SMOOTH",
"719 574 OFFCURVE",
"601 710 OFFCURVE",
"378 710 CURVE SMOOTH",
"154 710 OFFCURVE",
"36 574 OFFCURVE",
"36 350 CURVE SMOOTH",
"36 124 OFFCURVE",
"154 -10 OFFCURVE",
"378 -10 CURVE SMOOTH"
);
},
{
closed = 1;
nodes = (
"215 32 OFFCURVE",
"135 158 OFFCURVE",
"135 350 CURVE SMOOTH",
"135 541 OFFCURVE",
"215 668 OFFCURVE",
"377 668 CURVE SMOOTH",
"541 668 OFFCURVE",
"620 541 OFFCURVE",
"620 350 CURVE SMOOTH",
"620 158 OFFCURVE",
"541 32 OFFCURVE",
"377 32 CURVE SMOOTH"
);
},
{
closed = 1;
nodes = (
"395 864 LINE SMOOTH",
"417 877 OFFCURVE",
"429 891 OFFCURVE",
"429 908 CURVE SMOOTH",
"429 922 OFFCURVE",
"421 937 OFFCURVE",
"399 937 CURVE SMOOTH",
"378 937 OFFCURVE",
"357 919 OFFCURVE",
"350 913 CURVE",
"236 807 LINE",
"253 782 LINE"
);
},
{
closed = 1;
nodes = (
"556 864 LINE SMOOTH",
"577 877 OFFCURVE",
"589 891 OFFCURVE",
"589 908 CURVE SMOOTH",
"589 922 OFFCURVE",
"578 937 OFFCURVE",
"556 937 CURVE SMOOTH",
"534 937 OFFCURVE",
"517 919 OFFCURVE",
"510 913 CURVE",
"396 807 LINE",
"414 782 LINE"
);
}
);
};
components = (
{
name = O;
},
{
name = hungarumlaut;
transform = "{1, 0, 0, 1, 131, 230}";
}
);
layerId = "0B1DFD06-3317-40CA-B510-4969A0718C16";
width = 755;
}
);
leftKerningGroup = O;
note = Ohungarumlaut;
rightKerningGroup = O;
unicode = 0150;
},
{
glyphname = Omacron;
lastChange = "2017-12-19 05:21:12 +0000";
layers = (
{
background = {
paths = (
{
closed = 1;
nodes = (
"601 -10 OFFCURVE",
"719 124 OFFCURVE",
"719 350 CURVE SMOOTH",
"719 574 OFFCURVE",
"601 710 OFFCURVE",
"378 710 CURVE SMOOTH",
"154 710 OFFCURVE",
"36 574 OFFCURVE",
"36 350 CURVE SMOOTH",
"36 124 OFFCURVE",
"154 -10 OFFCURVE",
"378 -10 CURVE SMOOTH"
);
},
{
closed = 1;
nodes = (
"215 32 OFFCURVE",
"135 158 OFFCURVE",
"135 350 CURVE SMOOTH",
"135 541 OFFCURVE",
"215 668 OFFCURVE",
"377 668 CURVE SMOOTH",
"541 668 OFFCURVE",
"620 541 OFFCURVE",
"620 350 CURVE SMOOTH",
"620 158 OFFCURVE",
"541 32 OFFCURVE",
"377 32 CURVE SMOOTH"
);
},
{
closed = 1;
nodes = (
"543 793 LINE",
"543 835 LINE",
"210 835 LINE",
"210 793 LINE"
);
}
);
};
components = (
{
name = O;
},
{
name = macron;
transform = "{1, 0, 0, 1, 132, 230}";
}
);
layerId = "0B1DFD06-3317-40CA-B510-4969A0718C16";
width = 755;
}
);
leftKerningGroup = O;
note = Omacron;
rightKerningGroup = O;
unicode = 014C;
},
{
glyphname = Oslash;
lastChange = "2017-12-19 06:12:50 +0000";
layers = (
{
layerId = "0B1DFD06-3317-40CA-B510-4969A0718C16";
paths = (
{
closed = 1;
nodes = (
"589 749 LINE",
"597 761 OFFCURVE",
"585 764 OFFCURVE",
"572 771 CURVE",
"560 777 OFFCURVE",
"551 786 OFFCURVE",
"544 774 CURVE",
"493 681 LINE",
"452 709 OFFCURVE",
"402 724 OFFCURVE",
"344 724 CURVE SMOOTH",
"162 724 OFFCURVE",
"64 578 OFFCURVE",
"64 360 CURVE SMOOTH",
"64 236 OFFCURVE",
"96 136 OFFCURVE",
"155 71 CURVE",
"90 -46 LINE",
"83 -58 OFFCURVE",
"96 -62 OFFCURVE",
"108 -69 CURVE",
"121 -75 OFFCURVE",
"128 -83 OFFCURVE",
"136 -71 CURVE",
"196 37 LINE",
"236 9 OFFCURVE",
"287 -6 OFFCURVE",
"344 -6 CURVE SMOOTH",
"523 -6 OFFCURVE",
"625 140 OFFCURVE",
"625 360 CURVE SMOOTH",
"625 483 OFFCURVE",
"592 582 OFFCURVE",
"533 645 CURVE"
);
},
{
closed = 1;
nodes = (
"121 514 OFFCURVE",
"185 669 OFFCURVE",
"344 669 CURVE SMOOTH",
"393 669 OFFCURVE",
"433 654 OFFCURVE",
"464 629 CURVE",
"186 127 LINE",
"142 186 OFFCURVE",
"121 273 OFFCURVE",
"121 360 CURVE SMOOTH"
);
},
{
closed = 1;
nodes = (
"295 49 OFFCURVE",
"257 64 OFFCURVE",
"225 89 CURVE",
"502 591 LINE",
"546 530 OFFCURVE",
"566 445 OFFCURVE",
"566 360 CURVE SMOOTH",
"566 205 OFFCURVE",
"502 49 OFFCURVE",
"344 49 CURVE SMOOTH"
);
}
);
width = 688;
}
);
note = Oslash;
unicode = 00D8;
},
{
glyphname = OE;
lastChange = "2017-12-19 06:13:01 +0000";
layers = (
{
layerId = "0B1DFD06-3317-40CA-B510-4969A0718C16";
paths = (
{
closed = 1;
nodes = (
"165 35 OFFCURVE",
"102 191 OFFCURVE",
"102 346 CURVE SMOOTH",
"102 499 OFFCURVE",
"165 656 OFFCURVE",
"325 656 CURVE SMOOTH",
"483 656 OFFCURVE",
"546 499 OFFCURVE",
"546 346 CURVE SMOOTH",
"546 191 OFFCURVE",
"483 35 OFFCURVE",
"325 35 CURVE SMOOTH"
);
},
{
closed = 1;
nodes = (
"143 710 OFFCURVE",
"44 564 OFFCURVE",
"44 346 CURVE SMOOTH",
"44 127 OFFCURVE",
"143 -19 OFFCURVE",
"325 -19 CURVE SMOOTH",
"425 -19 OFFCURVE",
"502 27 OFFCURVE",
"549 106 CURVE",
"549 0 LINE",
"913 0 LINE",
"913 58 LINE",
"609 58 LINE",
"609 334 LINE",
"882 334 LINE",
"882 391 LINE",
"609 391 LINE",
"609 642 LINE",
"914 642 LINE",
"914 700 LINE",
"585 700 LINE",
"578 707 OFFCURVE",
"569 713 OFFCURVE",
"563 713 CURVE SMOOTH",
"544 713 OFFCURVE",
"530 697 OFFCURVE",
"527 688 CURVE",
"523 671 OFFCURVE",
"548 659 OFFCURVE",
"549 642 CURVE",
"549 583 LINE",
"502 663 OFFCURVE",
"425 710 OFFCURVE",
"325 710 CURVE SMOOTH"
);
}
);
width = 947;
}
);
note = OE;
unicode = 0152;
},
{
glyphname = Thorn;
lastChange = "2017-12-19 06:13:14 +0000";
layers = (
{
layerId = "0B1DFD06-3317-40CA-B510-4969A0718C16";
paths = (
{
closed = 1;
nodes = (
"513 524 OFFCURVE",
"403 588 OFFCURVE",
"261 586 CURVE SMOOTH",
"227 586 OFFCURVE",
"127 586 OFFCURVE",
"127 586 CURVE",
"127 718 LINE",
"80 718 LINE",
"80 0 LINE",
"127 0 LINE",
"127 171 LINE",
"127 171 OFFCURVE",
"235 171 OFFCURVE",
"235 171 CURVE",
"405 171 OFFCURVE",
"513 233 OFFCURVE",
"513 387 CURVE SMOOTH"
);
},
{
closed = 1;
nodes = (
"462 267 OFFCURVE",
"383 222 OFFCURVE",
"238 222 CURVE SMOOTH",
"207 222 OFFCURVE",
"127 222 OFFCURVE",
"127 222 CURVE",
"127 541 LINE",
"127 541 OFFCURVE",
"211 541 OFFCURVE",
"263 541 CURVE SMOOTH",
"369 541 OFFCURVE",
"462 493 OFFCURVE",
"462 380 CURVE SMOOTH"
);
}
);
width = 582;
}
);
note = Thorn;
unicode = 00DE;
},
{
color = 0;
glyphname = Germandbls;
lastChange = "2017-12-19 05:23:49 +0000";
layers = (
{
layerId = "0B1DFD06-3317-40CA-B510-4969A0718C16";
paths = (
{
closed = 1;
nodes = (
"606 -10 OFFCURVE",
"674 88 OFFCURVE",
"674 203 CURVE SMOOTH",
"674 313 OFFCURVE",
"592 385 OFFCURVE",
"445 398 CURVE",
"591 553 LINE",
"569 627 OFFCURVE",
"489 710 OFFCURVE",
"354 710 CURVE SMOOTH",
"177 710 OFFCURVE",
"92 616 OFFCURVE",
"92 470 CURVE SMOOTH",
"92 62 LINE SMOOTH",
"92 37 OFFCURVE",
"72 26 OFFCURVE",
"33 26 CURVE SMOOTH",
"5 26 LINE",
"5 0 LINE",
"255 0 LINE",
"255 26 LINE",
"227 26 LINE SMOOTH",
"202 26 OFFCURVE",
"188 44 OFFCURVE",
"188 63 CURVE SMOOTH",
"188 495 LINE SMOOTH",
"188 602 OFFCURVE",
"246 668 OFFCURVE",
"347 668 CURVE SMOOTH",
"431 668 OFFCURVE",
"479 617 OFFCURVE",
"499 555 CURVE",
"344 387 LINE",
"344 361 LINE",
"406 361 LINE SMOOTH",
"520 361 OFFCURVE",
"578 296 OFFCURVE",
"578 203 CURVE SMOOTH",
"578 100 OFFCURVE",
"521 29 OFFCURVE",
"419 29 CURVE SMOOTH",
"374 29 OFFCURVE",
"324 37 OFFCURVE",
"277 56 CURVE",
"277 14 LINE",
"318 -2 OFFCURVE",
"367 -10 OFFCURVE",
"423 -10 CURVE SMOOTH"
);
}
);
width = 703;
}
);
note = uni1E9E;
unicode = 1E9E;
},
{
color = 0;
glyphname = Schwa;
lastChange = "2017-12-19 05:23:49 +0000";
layers = (
{
layerId = "0B1DFD06-3317-40CA-B510-4969A0718C16";
paths = (
{
closed = 1;
nodes = (
"543 -10 OFFCURVE",
"658 120 OFFCURVE",
"658 346 CURVE SMOOTH",
"658 569 OFFCURVE",
"533 710 OFFCURVE",
"323 710 CURVE SMOOTH",
"160 710 OFFCURVE",
"56 618 OFFCURVE",
"41 500 CURVE",
"84 500 LINE",
"111 616 OFFCURVE",
"202 660 OFFCURVE",
"298 660 CURVE SMOOTH",
"479 660 OFFCURVE",
"559 515 OFFCURVE",
"559 341 CURVE SMOOTH",
"559 185 OFFCURVE",
"486 39 OFFCURVE",
"327 39 CURVE SMOOTH",
"181 39 OFFCURVE",
"133 180 OFFCURVE",
"132 283 CURVE",
"573 283 LINE",
"573 333 LINE",
"33 333 LINE",
"33 303 LINE SMOOTH",
"33 132 OFFCURVE",
"119 -10 OFFCURVE",
"330 -10 CURVE SMOOTH"
);
}
);
width = 692;
}
);
note = uni018F;
unicode = 018F;
},
{
glyphname = Tbar;
lastChange = "2017-12-19 05:21:12 +0000";
layers = (
{
components = (
{
name = T;
}
);
layerId = "0B1DFD06-3317-40CA-B510-4969A0718C16";
paths = (
{
closed = 1;
nodes = (
"520 317 LINE",
"520 363 LINE",
"134 363 LINE",
"134 317 LINE"
);
}
);
width = 652;
}
);
leftKerningGroup = T;
note = Tbar;
rightKerningGroup = T;
unicode = 0166;
},
{
glyphname = Uacute;
lastChange = "2017-12-19 05:21:12 +0000";
layers = (
{
background = {
paths = (
{
closed = 1;
nodes = (
"539 -10 OFFCURVE",
"636 51 OFFCURVE",
"636 204 CURVE SMOOTH",
"636 637 LINE SMOOTH",
"636 662 OFFCURVE",
"660 673 OFFCURVE",
"690 673 CURVE SMOOTH",
"713 673 LINE",
"713 700 LINE",
"510 700 LINE",
"510 673 LINE",
"532 673 LINE SMOOTH",
"564 673 OFFCURVE",
"586 662 OFFCURVE",
"586 637 CURVE SMOOTH",
"586 197 LINE SMOOTH",
"586 65 OFFCURVE",
"489 31 OFFCURVE",
"397 31 CURVE SMOOTH",
"290 31 OFFCURVE",
"203 63 OFFCURVE",
"203 197 CURVE SMOOTH",
"203 637 LINE SMOOTH",
"203 662 OFFCURVE",
"226 673 OFFCURVE",
"257 673 CURVE SMOOTH",
"280 673 LINE",
"280 700 LINE",
"28 700 LINE",
"28 673 LINE",
"51 673 LINE SMOOTH",
"82 673 OFFCURVE",
"105 662 OFFCURVE",
"105 637 CURVE SMOOTH",
"105 204 LINE SMOOTH",
"105 46 OFFCURVE",
"208 -10 OFFCURVE",
"375 -10 CURVE SMOOTH"
);
},
{
closed = 1;
nodes = (
"447 865 LINE SMOOTH",
"469 877 OFFCURVE",
"481 890 OFFCURVE",
"481 907 CURVE SMOOTH",
"481 922 OFFCURVE",
"469 937 OFFCURVE",
"447 937 CURVE SMOOTH",
"426 937 OFFCURVE",
"411 921 OFFCURVE",
"403 914 CURVE SMOOTH",
"288 807 LINE",
"305 782 LINE"
);
}
);
};
components = (
{
name = U;
},
{
name = acute;
transform = "{1, 0, 0, 1, 136, 230}";
}
);
layerId = "0B1DFD06-3317-40CA-B510-4969A0718C16";
width = 742;
}
);
leftKerningGroup = U;
note = Uacute;
rightKerningGroup = U;
unicode = 00DA;
},
{
glyphname = Ubreve;
lastChange = "2017-12-19 05:21:12 +0000";
layers = (
{
background = {
paths = (
{
closed = 1;
nodes = (
"539 -10 OFFCURVE",
"636 51 OFFCURVE",
"636 204 CURVE SMOOTH",
"636 637 LINE SMOOTH",
"636 662 OFFCURVE",
"660 673 OFFCURVE",
"690 673 CURVE SMOOTH",
"713 673 LINE",
"713 700 LINE",
"510 700 LINE",
"510 673 LINE",
"532 673 LINE SMOOTH",
"564 673 OFFCURVE",
"586 662 OFFCURVE",
"586 637 CURVE SMOOTH",
"586 197 LINE SMOOTH",
"586 65 OFFCURVE",
"489 31 OFFCURVE",
"397 31 CURVE SMOOTH",
"290 31 OFFCURVE",
"203 63 OFFCURVE",
"203 197 CURVE SMOOTH",
"203 637 LINE SMOOTH",
"203 662 OFFCURVE",
"226 673 OFFCURVE",
"257 673 CURVE SMOOTH",
"280 673 LINE",
"280 700 LINE",
"28 700 LINE",
"28 673 LINE",
"51 673 LINE SMOOTH",
"82 673 OFFCURVE",
"105 662 OFFCURVE",
"105 637 CURVE SMOOTH",
"105 204 LINE SMOOTH",
"105 46 OFFCURVE",
"208 -10 OFFCURVE",
"375 -10 CURVE SMOOTH"
);
},
{
closed = 1;
nodes = (
"483 774 OFFCURVE",
"525 830 OFFCURVE",
"529 905 CURVE",
"496 905 LINE",
"490 846 OFFCURVE",
"448 820 OFFCURVE",
"384 820 CURVE SMOOTH",
"320 820 OFFCURVE",
"277 846 OFFCURVE",
"270 905 CURVE",
"237 905 LINE",
"241 827 OFFCURVE",
"283 774 OFFCURVE",
"384 774 CURVE SMOOTH"
);
}
);
};
components = (
{
name = U;
},
{
name = breve;
transform = "{1, 0, 0, 1, 148, 230}";
}
);
layerId = "0B1DFD06-3317-40CA-B510-4969A0718C16";
width = 742;
}
);
leftKerningGroup = U;
note = Ubreve;
rightKerningGroup = U;
unicode = 016C;
},
{
glyphname = Ucaron;
lastChange = "2017-12-19 05:21:12 +0000";
layers = (
{
background = {
paths = (
{
closed = 1;
nodes = (
"539 -10 OFFCURVE",
"636 51 OFFCURVE",
"636 204 CURVE SMOOTH",
"636 637 LINE SMOOTH",
"636 662 OFFCURVE",
"660 673 OFFCURVE",
"690 673 CURVE SMOOTH",
"713 673 LINE",
"713 700 LINE",
"510 700 LINE",
"510 673 LINE",
"532 673 LINE SMOOTH",
"564 673 OFFCURVE",
"586 662 OFFCURVE",
"586 637 CURVE SMOOTH",
"586 197 LINE SMOOTH",
"586 65 OFFCURVE",
"489 31 OFFCURVE",
"397 31 CURVE SMOOTH",
"290 31 OFFCURVE",
"203 63 OFFCURVE",
"203 197 CURVE SMOOTH",
"203 637 LINE SMOOTH",
"203 662 OFFCURVE",
"226 673 OFFCURVE",
"257 673 CURVE SMOOTH",
"280 673 LINE",
"280 700 LINE",
"28 700 LINE",
"28 673 LINE",
"51 673 LINE SMOOTH",
"82 673 OFFCURVE",
"105 662 OFFCURVE",
"105 637 CURVE SMOOTH",
"105 204 LINE SMOOTH",
"105 46 OFFCURVE",
"208 -10 OFFCURVE",
"375 -10 CURVE SMOOTH"
);
},
{
closed = 1;
nodes = (
"397 782 LINE",
"521 911 LINE",
"502 932 LINE",
"394 847 LINE",
"386 840 OFFCURVE",
"377 836 OFFCURVE",
"371 836 CURVE SMOOTH",
"365 836 OFFCURVE",
"357 840 OFFCURVE",
"347 847 CURVE",
"239 932 LINE",
"220 911 LINE",
"344 782 LINE"
);
}
);
};
components = (
{
name = U;
},
{
name = caron;
transform = "{1, 0, 0, 1, 148, 230}";
}
);
layerId = "0B1DFD06-3317-40CA-B510-4969A0718C16";
width = 742;
}
);
leftKerningGroup = U;
note = Ucaron;
rightKerningGroup = U;
unicode = 01D3;
},
{
glyphname = Ucircumflex;
lastChange = "2017-12-19 05:21:12 +0000";
layers = (
{
background = {
paths = (
{
closed = 1;
nodes = (
"539 -10 OFFCURVE",
"636 51 OFFCURVE",
"636 204 CURVE SMOOTH",
"636 637 LINE SMOOTH",
"636 662 OFFCURVE",
"660 673 OFFCURVE",
"690 673 CURVE SMOOTH",
"713 673 LINE",
"713 700 LINE",
"510 700 LINE",
"510 673 LINE",
"532 673 LINE SMOOTH",
"564 673 OFFCURVE",
"586 662 OFFCURVE",
"586 637 CURVE SMOOTH",
"586 197 LINE SMOOTH",
"586 65 OFFCURVE",
"489 31 OFFCURVE",
"397 31 CURVE SMOOTH",
"290 31 OFFCURVE",
"203 63 OFFCURVE",
"203 197 CURVE SMOOTH",
"203 637 LINE SMOOTH",
"203 662 OFFCURVE",
"226 673 OFFCURVE",
"257 673 CURVE SMOOTH",
"280 673 LINE",
"280 700 LINE",
"28 700 LINE",
"28 673 LINE",
"51 673 LINE SMOOTH",
"82 673 OFFCURVE",
"105 662 OFFCURVE",
"105 637 CURVE SMOOTH",
"105 204 LINE SMOOTH",
"105 46 OFFCURVE",
"208 -10 OFFCURVE",
"375 -10 CURVE SMOOTH"
);
},
{
closed = 1;
nodes = (
"360 868 LINE SMOOTH",
"368 874 OFFCURVE",
"378 879 OFFCURVE",
"384 879 CURVE SMOOTH",
"390 879 OFFCURVE",
"398 874 OFFCURVE",
"407 868 CURVE",
"515 782 LINE",
"534 803 LINE",
"410 932 LINE",
"357 932 LINE",
"233 803 LINE",
"252 782 LINE"
);
}
);
};
components = (
{
name = U;
},
{
name = circumflex;
transform = "{1, 0, 0, 1, 148, 230}";
}
);
layerId = "0B1DFD06-3317-40CA-B510-4969A0718C16";
width = 742;
}
);
leftKerningGroup = U;
note = Ucircumflex;
rightKerningGroup = U;
unicode = 00DB;
},
{
glyphname = Udieresis;
lastChange = "2017-12-19 05:21:12 +0000";
layers = (
{
background = {
paths = (
{
closed = 1;
nodes = (
"539 -10 OFFCURVE",
"636 51 OFFCURVE",
"636 204 CURVE SMOOTH",
"636 637 LINE SMOOTH",
"636 662 OFFCURVE",
"660 673 OFFCURVE",
"690 673 CURVE SMOOTH",
"713 673 LINE",
"713 700 LINE",
"510 700 LINE",
"510 673 LINE",
"532 673 LINE SMOOTH",
"564 673 OFFCURVE",
"586 662 OFFCURVE",
"586 637 CURVE SMOOTH",
"586 197 LINE SMOOTH",
"586 65 OFFCURVE",
"489 31 OFFCURVE",
"397 31 CURVE SMOOTH",
"290 31 OFFCURVE",
"203 63 OFFCURVE",
"203 197 CURVE SMOOTH",
"203 637 LINE SMOOTH",
"203 662 OFFCURVE",
"226 673 OFFCURVE",
"257 673 CURVE SMOOTH",
"280 673 LINE",
"280 700 LINE",
"28 700 LINE",
"28 673 LINE",
"51 673 LINE SMOOTH",
"82 673 OFFCURVE",
"105 662 OFFCURVE",
"105 637 CURVE SMOOTH",
"105 204 LINE SMOOTH",
"105 46 OFFCURVE",
"208 -10 OFFCURVE",
"375 -10 CURVE SMOOTH"
);
},
{
closed = 1;
nodes = (
"304 781 OFFCURVE",
"322 800 OFFCURVE",
"322 827 CURVE SMOOTH",
"322 855 OFFCURVE",
"304 875 OFFCURVE",
"275 875 CURVE SMOOTH",
"247 875 OFFCURVE",
"229 855 OFFCURVE",
"229 827 CURVE SMOOTH",
"229 800 OFFCURVE",
"247 781 OFFCURVE",
"275 781 CURVE SMOOTH"
);
},
{
closed = 1;
nodes = (
"520 781 OFFCURVE",
"538 800 OFFCURVE",
"538 827 CURVE SMOOTH",
"538 855 OFFCURVE",
"520 875 OFFCURVE",
"491 875 CURVE SMOOTH",
"462 875 OFFCURVE",
"444 855 OFFCURVE",
"444 827 CURVE SMOOTH",
"444 800 OFFCURVE",
"462 781 OFFCURVE",
"491 781 CURVE SMOOTH"
);
}
);
};
components = (
{
name = U;
},
{
name = dieresis;
transform = "{1, 0, 0, 1, 148, 230}";
}
);
layerId = "0B1DFD06-3317-40CA-B510-4969A0718C16";
width = 742;
}
);
leftKerningGroup = U;
note = Udieresis;
rightKerningGroup = U;
unicode = 00DC;
},
{
glyphname = Udieresisacute;
lastChange = "2017-12-19 05:21:12 +0000";
layers = (
{
background = {
paths = (
{
closed = 1;
nodes = (
"539 -10 OFFCURVE",
"636 51 OFFCURVE",
"636 204 CURVE SMOOTH",
"636 637 LINE SMOOTH",
"636 662 OFFCURVE",
"660 673 OFFCURVE",
"690 673 CURVE SMOOTH",
"713 673 LINE",
"713 700 LINE",
"510 700 LINE",
"510 673 LINE",
"532 673 LINE SMOOTH",
"564 673 OFFCURVE",
"586 662 OFFCURVE",
"586 637 CURVE SMOOTH",
"586 197 LINE SMOOTH",
"586 65 OFFCURVE",
"489 31 OFFCURVE",
"397 31 CURVE SMOOTH",
"290 31 OFFCURVE",
"203 63 OFFCURVE",
"203 197 CURVE SMOOTH",
"203 637 LINE SMOOTH",
"203 662 OFFCURVE",
"226 673 OFFCURVE",
"257 673 CURVE SMOOTH",
"280 673 LINE",
"280 700 LINE",
"28 700 LINE",
"28 673 LINE",
"51 673 LINE SMOOTH",
"82 673 OFFCURVE",
"105 662 OFFCURVE",
"105 637 CURVE SMOOTH",
"105 204 LINE SMOOTH",
"105 46 OFFCURVE",
"208 -10 OFFCURVE",
"375 -10 CURVE SMOOTH"
);
},
{
closed = 1;
nodes = (
"291 780 OFFCURVE",
"310 799 OFFCURVE",
"310 827 CURVE SMOOTH",
"310 855 OFFCURVE",
"291 875 OFFCURVE",
"262 875 CURVE SMOOTH",
"235 875 OFFCURVE",
"216 855 OFFCURVE",
"216 827 CURVE SMOOTH",
"216 799 OFFCURVE",
"235 780 OFFCURVE",
"262 780 CURVE SMOOTH"
);
},
{
closed = 1;
nodes = (
"507 780 OFFCURVE",
"526 799 OFFCURVE",
"526 827 CURVE SMOOTH",
"526 855 OFFCURVE",
"507 875 OFFCURVE",
"479 875 CURVE SMOOTH",
"451 875 OFFCURVE",
"432 855 OFFCURVE",
"432 827 CURVE SMOOTH",
"432 799 OFFCURVE",
"451 780 OFFCURVE",
"479 780 CURVE SMOOTH"
);
},
{
closed = 1;
nodes = (
"481 969 LINE SMOOTH",
"502 981 OFFCURVE",
"512 993 OFFCURVE",
"512 1009 CURVE SMOOTH",
"512 1024 OFFCURVE",
"503 1037 OFFCURVE",
"481 1037 CURVE SMOOTH",
"460 1037 OFFCURVE",
"442 1020 OFFCURVE",
"435 1013 CURVE SMOOTH",
"344 924 LINE",
"362 899 LINE"
);
}
);
};
components = (
{
name = U;
},
{
name = dieresisacute;
transform = "{1, 0, 0, 1, 149, 230}";
}
);
layerId = "0B1DFD06-3317-40CA-B510-4969A0718C16";
width = 742;
}
);
leftKerningGroup = U;
note = Udieresisacute;
rightKerningGroup = U;
unicode = 01D7;
},
{
glyphname = Udieresiscaron;
lastChange = "2017-12-19 05:21:12 +0000";
layers = (
{
background = {
paths = (
{
closed = 1;
nodes = (
"539 -10 OFFCURVE",
"636 51 OFFCURVE",
"636 204 CURVE SMOOTH",
"636 637 LINE SMOOTH",
"636 662 OFFCURVE",
"660 673 OFFCURVE",
"690 673 CURVE SMOOTH",
"713 673 LINE",
"713 700 LINE",
"510 700 LINE",
"510 673 LINE",
"532 673 LINE SMOOTH",
"564 673 OFFCURVE",
"586 662 OFFCURVE",
"586 637 CURVE SMOOTH",
"586 197 LINE SMOOTH",
"586 65 OFFCURVE",
"489 31 OFFCURVE",
"397 31 CURVE SMOOTH",
"290 31 OFFCURVE",
"203 63 OFFCURVE",
"203 197 CURVE SMOOTH",
"203 637 LINE SMOOTH",
"203 662 OFFCURVE",
"226 673 OFFCURVE",
"257 673 CURVE SMOOTH",
"280 673 LINE",
"280 700 LINE",
"28 700 LINE",
"28 673 LINE",
"51 673 LINE SMOOTH",
"82 673 OFFCURVE",
"105 662 OFFCURVE",
"105 637 CURVE SMOOTH",
"105 204 LINE SMOOTH",
"105 46 OFFCURVE",
"208 -10 OFFCURVE",
"375 -10 CURVE SMOOTH"
);
},
{
closed = 1;
nodes = (
"296 780 OFFCURVE",
"315 799 OFFCURVE",
"315 827 CURVE SMOOTH",
"315 855 OFFCURVE",
"296 875 OFFCURVE",
"267 875 CURVE SMOOTH",
"240 875 OFFCURVE",
"221 855 OFFCURVE",
"221 827 CURVE SMOOTH",
"221 799 OFFCURVE",
"240 780 OFFCURVE",
"267 780 CURVE SMOOTH"
);
},
{
closed = 1;
nodes = (
"512 780 OFFCURVE",
"531 799 OFFCURVE",
"531 827 CURVE SMOOTH",
"531 855 OFFCURVE",
"512 875 OFFCURVE",
"484 875 CURVE SMOOTH",
"456 875 OFFCURVE",
"437 855 OFFCURVE",
"437 827 CURVE SMOOTH",
"437 799 OFFCURVE",
"456 780 OFFCURVE",
"484 780 CURVE SMOOTH"
);
},
{
closed = 1;
nodes = (
"401 911 LINE",
"523 1035 LINE",
"505 1056 LINE",
"404 978 LINE",
"394 971 OFFCURVE",
"385 963 OFFCURVE",
"376 963 CURVE SMOOTH",
"369 963 OFFCURVE",
"357 971 OFFCURVE",
"347 978 CURVE",
"246 1056 LINE",
"228 1035 LINE",
"350 911 LINE"
);
}
);
};
components = (
{
name = U;
},
{
name = dieresiscaron;
transform = "{1, 0, 0, 1, 149, 230}";
}
);
layerId = "0B1DFD06-3317-40CA-B510-4969A0718C16";
width = 742;
}
);
leftKerningGroup = U;
note = Udieresiscaron;
rightKerningGroup = U;
unicode = 01D9;
},
{
glyphname = Udieresisgrave;
lastChange = "2017-12-19 05:21:12 +0000";
layers = (
{
background = {
paths = (
{
closed = 1;
nodes = (
"539 -10 OFFCURVE",
"636 51 OFFCURVE",
"636 204 CURVE SMOOTH",
"636 637 LINE SMOOTH",
"636 662 OFFCURVE",
"660 673 OFFCURVE",
"690 673 CURVE SMOOTH",
"713 673 LINE",
"713 700 LINE",
"510 700 LINE",
"510 673 LINE",
"532 673 LINE SMOOTH",
"564 673 OFFCURVE",
"586 662 OFFCURVE",
"586 637 CURVE SMOOTH",
"586 197 LINE SMOOTH",
"586 65 OFFCURVE",
"489 31 OFFCURVE",
"397 31 CURVE SMOOTH",
"290 31 OFFCURVE",
"203 63 OFFCURVE",
"203 197 CURVE SMOOTH",
"203 637 LINE SMOOTH",
"203 662 OFFCURVE",
"226 673 OFFCURVE",
"257 673 CURVE SMOOTH",
"280 673 LINE",
"280 700 LINE",
"28 700 LINE",
"28 673 LINE",
"51 673 LINE SMOOTH",
"82 673 OFFCURVE",
"105 662 OFFCURVE",
"105 637 CURVE SMOOTH",
"105 204 LINE SMOOTH",
"105 46 OFFCURVE",
"208 -10 OFFCURVE",
"375 -10 CURVE SMOOTH"
);
},
{
closed = 1;
nodes = (
"296 780 OFFCURVE",
"315 799 OFFCURVE",
"315 827 CURVE SMOOTH",
"315 855 OFFCURVE",
"296 875 OFFCURVE",
"267 875 CURVE SMOOTH",
"240 875 OFFCURVE",
"221 855 OFFCURVE",
"221 827 CURVE SMOOTH",
"221 799 OFFCURVE",
"240 780 OFFCURVE",
"267 780 CURVE SMOOTH"
);
},
{
closed = 1;
nodes = (
"403 924 LINE",
"312 1013 LINE SMOOTH",
"305 1020 OFFCURVE",
"288 1036 OFFCURVE",
"267 1036 CURVE SMOOTH",
"245 1036 OFFCURVE",
"235 1024 OFFCURVE",
"235 1009 CURVE SMOOTH",
"235 993 OFFCURVE",
"245 981 OFFCURVE",
"266 969 CURVE SMOOTH",
"385 899 LINE"
);
},
{
closed = 1;
nodes = (
"512 780 OFFCURVE",
"531 799 OFFCURVE",
"531 827 CURVE SMOOTH",
"531 855 OFFCURVE",
"512 875 OFFCURVE",
"484 875 CURVE SMOOTH",
"456 875 OFFCURVE",
"437 855 OFFCURVE",
"437 827 CURVE SMOOTH",
"437 799 OFFCURVE",
"456 780 OFFCURVE",
"484 780 CURVE SMOOTH"
);
}
);
};
components = (
{
name = U;
},
{
name = dieresisgrave;
transform = "{1, 0, 0, 1, 149, 230}";
}
);
layerId = "0B1DFD06-3317-40CA-B510-4969A0718C16";
width = 742;
}
);
leftKerningGroup = U;
note = Udieresisgrave;
rightKerningGroup = U;
unicode = 01DB;
},
{
glyphname = Udieresismacron;
lastChange = "2017-12-19 05:21:12 +0000";
layers = (
{
background = {
paths = (
{
closed = 1;
nodes = (
"539 -10 OFFCURVE",
"636 51 OFFCURVE",
"636 204 CURVE SMOOTH",
"636 637 LINE SMOOTH",
"636 662 OFFCURVE",
"660 673 OFFCURVE",
"690 673 CURVE SMOOTH",
"713 673 LINE",
"713 700 LINE",
"510 700 LINE",
"510 673 LINE",
"532 673 LINE SMOOTH",
"564 673 OFFCURVE",
"586 662 OFFCURVE",
"586 637 CURVE SMOOTH",
"586 197 LINE SMOOTH",
"586 65 OFFCURVE",
"489 31 OFFCURVE",
"397 31 CURVE SMOOTH",
"290 31 OFFCURVE",
"203 63 OFFCURVE",
"203 197 CURVE SMOOTH",
"203 637 LINE SMOOTH",
"203 662 OFFCURVE",
"226 673 OFFCURVE",
"257 673 CURVE SMOOTH",
"280 673 LINE",
"280 700 LINE",
"28 700 LINE",
"28 673 LINE",
"51 673 LINE SMOOTH",
"82 673 OFFCURVE",
"105 662 OFFCURVE",
"105 637 CURVE SMOOTH",
"105 204 LINE SMOOTH",
"105 46 OFFCURVE",
"208 -10 OFFCURVE",
"375 -10 CURVE SMOOTH"
);
},
{
closed = 1;
nodes = (
"291 781 OFFCURVE",
"309 800 OFFCURVE",
"309 827 CURVE SMOOTH",
"309 855 OFFCURVE",
"291 875 OFFCURVE",
"262 875 CURVE SMOOTH",
"234 875 OFFCURVE",
"216 855 OFFCURVE",
"216 827 CURVE SMOOTH",
"216 800 OFFCURVE",
"234 781 OFFCURVE",
"262 781 CURVE SMOOTH"
);
},
{
closed = 1;
nodes = (
"507 781 OFFCURVE",
"525 800 OFFCURVE",
"525 827 CURVE SMOOTH",
"525 855 OFFCURVE",
"507 875 OFFCURVE",
"478 875 CURVE SMOOTH",
"449 875 OFFCURVE",
"431 855 OFFCURVE",
"431 827 CURVE SMOOTH",
"431 800 OFFCURVE",
"449 781 OFFCURVE",
"478 781 CURVE SMOOTH"
);
},
{
closed = 1;
nodes = (
"537 928 LINE",
"537 970 LINE",
"204 970 LINE",
"204 928 LINE"
);
}
);
};
components = (
{
name = U;
},
{
name = dieresis;
transform = "{1, 0, 0, 1, 148, 230}";
},
{
alignment = -1;
name = macron;
transform = "{1, 0, 0, 1, 145, 356}";
}
);
layerId = "0B1DFD06-3317-40CA-B510-4969A0718C16";
width = 742;
}
);
leftKerningGroup = U;
note = Udieresismacron;
rightKerningGroup = U;
unicode = 01D5;
},
{
glyphname = Uhorn;
lastChange = "2017-12-19 06:13:31 +0000";
layers = (
{
layerId = "0B1DFD06-3317-40CA-B510-4969A0718C16";
paths = (
{
closed = 1;
nodes = (
"585 699 LINE",
"530 699 LINE",
"530 247 LINE SMOOTH",
"530 120 OFFCURVE",
"442 41 OFFCURVE",
"338 41 CURVE SMOOTH",
"233 41 OFFCURVE",
"139 120 OFFCURVE",
"139 247 CURVE SMOOTH",
"139 699 LINE",
"83 699 LINE",
"83 245 LINE SMOOTH",
"83 95 OFFCURVE",
"186 -16 OFFCURVE",
"338 -16 CURVE SMOOTH",
"490 -16 OFFCURVE",
"585 95 OFFCURVE",
"585 245 CURVE SMOOTH",
"585 551 LINE",
"679 572 OFFCURVE",
"707 665 OFFCURVE",
"707 725 CURVE",
"654 725 LINE",
"654 657 OFFCURVE",
"623 620 OFFCURVE",
"585 606 CURVE"
);
}
);
width = 674;
}
);
note = Uhorn;
unicode = 01AF;
},
{
color = 0;
glyphname = "alpha-latin";
lastChange = "2017-12-19 05:24:05 +0000";
layers = (
{
layerId = "0B1DFD06-3317-40CA-B510-4969A0718C16";
paths = (
{
closed = 1;
nodes = (
"304 -10 OFFCURVE",
"357 10 OFFCURVE",
"393 69 CURVE",
"393 37 LINE SMOOTH",
"393 0 OFFCURVE",
"429 -10 OFFCURVE",
"461 -10 CURVE SMOOTH",
"491 -10 OFFCURVE",
"523 -1 OFFCURVE",
"545 17 CURVE",
"545 34 LINE",
"531 29 OFFCURVE",
"519 26 OFFCURVE",
"510 26 CURVE SMOOTH",
"494 26 OFFCURVE",
"486 36 OFFCURVE",
"486 58 CURVE SMOOTH",
"486 403 LINE",
"452 444 OFFCURVE",
"374 480 OFFCURVE",
"279 480 CURVE SMOOTH",
"141 480 OFFCURVE",
"26 405 OFFCURVE",
"26 215 CURVE SMOOTH",
"26 67 OFFCURVE",
"96 -10 OFFCURVE",
"234 -10 CURVE SMOOTH"
);
},
{
closed = 1;
nodes = (
"152 28 OFFCURVE",
"119 116 OFFCURVE",
"119 222 CURVE SMOOTH",
"119 370 OFFCURVE",
"183 441 OFFCURVE",
"279 441 CURVE SMOOTH",
"330 441 OFFCURVE",
"368 421 OFFCURVE",
"392 398 CURVE",
"392 169 LINE SMOOTH",
"392 98 OFFCURVE",
"346 28 OFFCURVE",
"255 28 CURVE SMOOTH"
);
}
);
width = 558;
}
);
leftKerningGroup = a;
note = ascript;
rightKerningGroup = a;
unicode = 0251;
},
{
glyphname = ae;
lastChange = "2017-12-19 06:13:46 +0000";
layers = (
{
layerId = "0B1DFD06-3317-40CA-B510-4969A0718C16";
paths = (
{
closed = 1;
nodes = (
"582 535 OFFCURVE",
"524 498 OFFCURVE",
"487 448 CURVE",
"487 524 LINE",
"430 524 LINE",
"430 430 LINE",
"394 486 OFFCURVE",
"338 523 OFFCURVE",
"258 523 CURVE SMOOTH",
"112 523 OFFCURVE",
"43 385 OFFCURVE",
"43 253 CURVE SMOOTH",
"43 118 OFFCURVE",
"112 -19 OFFCURVE",
"258 -19 CURVE SMOOTH",
"338 -19 OFFCURVE",
"396 21 OFFCURVE",
"430 77 CURVE",
"431 -3 LINE",
"492 -3 LINE",
"487 72 LINE",
"487 77 LINE",
"508 49 OFFCURVE",
"536 27 OFFCURVE",
"567 12 CURVE SMOOTH",
"654 -32 OFFCURVE",
"777 6 OFFCURVE",
"824 38 CURVE",
"789 86 LINE",
"767 69 OFFCURVE",
"694 24 OFFCURVE",
"603 61 CURVE SMOOTH",
"538 87 OFFCURVE",
"495 146 OFFCURVE",
"495 238 CURVE",
"843 238 LINE SMOOTH",
"861 238 OFFCURVE",
"871 239 OFFCURVE",
"876 244 CURVE",
"882 248 OFFCURVE",
"886 258 OFFCURVE",
"886 275 CURVE SMOOTH",
"888 332 OFFCURVE",
"863 535 OFFCURVE",
"663 535 CURVE SMOOTH"
);
},
{
closed = 1;
nodes = (
"143 35 OFFCURVE",
"93 155 OFFCURVE",
"93 253 CURVE SMOOTH",
"93 347 OFFCURVE",
"143 468 OFFCURVE",
"258 468 CURVE SMOOTH",
"366 468 OFFCURVE",
"421 371 OFFCURVE",
"430 282 CURVE",
"430 223 LINE",
"421 133 OFFCURVE",
"368 35 OFFCURVE",
"258 35 CURVE SMOOTH"
);
},
{
closed = 1;
nodes = (
"492 294 LINE",
"493 362 OFFCURVE",
"536 484 OFFCURVE",
"660 484 CURVE SMOOTH",
"783 484 OFFCURVE",
"832 371 OFFCURVE",
"829 294 CURVE"
);
}
);
width = 931;
}
);
note = ae;
unicode = 00E6;
},
{
glyphname = eth;
lastChange = "2017-12-19 06:13:55 +0000";
layers = (
{
layerId = "0B1DFD06-3317-40CA-B510-4969A0718C16";
paths = (
{
closed = 1;
nodes = (
"564 347 OFFCURVE",
"546 412 OFFCURVE",
"518 476 CURVE",
"480 546 OFFCURVE",
"430 609 OFFCURVE",
"363 660 CURVE",
"482 713 LINE",
"461 759 LINE",
"417 737 OFFCURVE",
"365 713 OFFCURVE",
"321 691 CURVE",
"273 725 OFFCURVE",
"220 750 OFFCURVE",
"165 774 CURVE",
"142 725 LINE",
"186 709 OFFCURVE",
"233 687 OFFCURVE",
"267 666 CURVE",
"127 600 LINE",
"145 557 LINE",
"201 582 OFFCURVE",
"257 610 OFFCURVE",
"313 635 CURVE",
"381 582 OFFCURVE",
"433 527 OFFCURVE",
"471 464 CURVE",
"414 513 OFFCURVE",
"360 524 OFFCURVE",
"304 524 CURVE SMOOTH",
"176 524 OFFCURVE",
"46 418 OFFCURVE",
"46 248 CURVE SMOOTH",
"46 100 OFFCURVE",
"149 -13 OFFCURVE",
"300 -13 CURVE SMOOTH",
"427 -13 OFFCURVE",
"564 71 OFFCURVE",
"564 269 CURVE SMOOTH"
);
},
{
closed = 1;
nodes = (
"505 114 OFFCURVE",
"414 35 OFFCURVE",
"298 35 CURVE SMOOTH",
"201 35 OFFCURVE",
"100 112 OFFCURVE",
"100 250 CURVE SMOOTH",
"100 354 OFFCURVE",
"164 476 OFFCURVE",
"304 476 CURVE SMOOTH",
"374 476 OFFCURVE",
"421 445 OFFCURVE",
"455 417 CURVE",
"486 383 OFFCURVE",
"505 335 OFFCURVE",
"505 261 CURVE SMOOTH"
);
}
);
width = 614;
}
);
note = eth;
unicode = 00F0;
},
{
color = 0;
glyphname = dcaron;
lastChange = "2017-12-19 05:24:30 +0000";
layers = (
{
layerId = "0B1DFD06-3317-40CA-B510-4969A0718C16";
paths = (
{
closed = 1;
nodes = (
"321 -10 OFFCURVE",
"381 14 OFFCURVE",
"417 74 CURVE",
"422 -4 LINE",
"564 11 LINE",
"564 34 LINE",
"541 34 LINE SMOOTH",
"513 34 OFFCURVE",
"499 44 OFFCURVE",
"499 69 CURVE SMOOTH",
"499 717 LINE",
"474 717 LINE",
"349 672 LINE",
"355 649 LINE",
"365 653 OFFCURVE",
"377 657 OFFCURVE",
"385 657 CURVE SMOOTH",
"394 657 OFFCURVE",
"405 654 OFFCURVE",
"405 636 CURVE SMOOTH",
"405 410 LINE",
"363 467 OFFCURVE",
"298 480 OFFCURVE",
"242 480 CURVE SMOOTH",
"123 480 OFFCURVE",
"31 401 OFFCURVE",
"31 245 CURVE SMOOTH",
"31 60 OFFCURVE",
"118 -10 OFFCURVE",
"243 -10 CURVE SMOOTH"
);
},
{
closed = 1;
nodes = (
"160 28 OFFCURVE",
"124 120 OFFCURVE",
"124 242 CURVE SMOOTH",
"124 372 OFFCURVE",
"176 440 OFFCURVE",
"275 440 CURVE SMOOTH",
"337 440 OFFCURVE",
"406 392 OFFCURVE",
"406 320 CURVE SMOOTH",
"406 168 LINE SMOOTH",
"406 97 OFFCURVE",
"357 28 OFFCURVE",
"269 28 CURVE SMOOTH"
);
},
{
closed = 1;
nodes = (
"630 523 OFFCURVE",
"674 583 OFFCURVE",
"674 646 CURVE SMOOTH",
"674 694 OFFCURVE",
"650 714 OFFCURVE",
"621 714 CURVE SMOOTH",
"592 714 OFFCURVE",
"575 694 OFFCURVE",
"575 670 CURVE SMOOTH",
"575 636 OFFCURVE",
"610 629 OFFCURVE",
"610 594 CURVE SMOOTH",
"610 558 OFFCURVE",
"584 525 OFFCURVE",
"557 499 CURVE",
"574 482 LINE"
);
}
);
width = 686;
}
);
leftKerningGroup = d;
note = dcaron;
unicode = 010F;
},
{
glyphname = dcroat;
lastChange = "2017-12-19 06:13:55 +0000";
layers = (
{
layerId = "0B1DFD06-3317-40CA-B510-4969A0718C16";
paths = (
{
closed = 1;
nodes = (
"102 343 OFFCURVE",
"148 461 OFFCURVE",
"263 461 CURVE SMOOTH",
"366 461 OFFCURVE",
"418 366 OFFCURVE",
"428 281 CURVE",
"428 223 LINE",
"419 134 OFFCURVE",
"366 40 OFFCURVE",
"263 40 CURVE SMOOTH",
"148 40 OFFCURVE",
"102 157 OFFCURVE",
"102 251 CURVE SMOOTH"
);
},
{
closed = 1;
nodes = (
"428 422 LINE",
"394 477 OFFCURVE",
"340 514 OFFCURVE",
"263 514 CURVE SMOOTH",
"120 514 OFFCURVE",
"52 381 OFFCURVE",
"52 251 CURVE SMOOTH",
"52 120 OFFCURVE",
"120 -13 OFFCURVE",
"263 -13 CURVE SMOOTH",
"340 -13 OFFCURVE",
"394 27 OFFCURVE",
"428 80 CURVE",
"430 3 LINE",
"489 3 LINE",
"483 77 LINE",
"483 619 LINE",
"560 619 LINE",
"560 663 LINE",
"483 663 LINE",
"483 749 LINE",
"428 749 LINE",
"428 663 LINE",
"310 663 LINE",
"310 619 LINE",
"428 619 LINE"
);
}
);
width = 560;
}
);
note = dslash;
unicode = 0111;
},
{
color = 0;
glyphname = schwa;
lastChange = "2017-12-19 05:24:34 +0000";
layers = (
{
layerId = "0B1DFD06-3317-40CA-B510-4969A0718C16";
paths = (
{
closed = 1;
nodes = (
"396 -10 OFFCURVE",
"487 83 OFFCURVE",
"487 236 CURVE SMOOTH",
"487 393 OFFCURVE",
"392 480 OFFCURVE",
"246 480 CURVE SMOOTH",
"112 480 OFFCURVE",
"47 407 OFFCURVE",
"36 303 CURVE",
"65 303 LINE",
"83 407 OFFCURVE",
"154 444 OFFCURVE",
"225 444 CURVE SMOOTH",
"331 444 OFFCURVE",
"392 360 OFFCURVE",
"392 234 CURVE SMOOTH",
"392 121 OFFCURVE",
"343 28 OFFCURVE",
"242 28 CURVE SMOOTH",
"147 28 OFFCURVE",
"117 112 OFFCURVE",
"115 173 CURVE",
"403 173 LINE",
"403 212 LINE",
"32 212 LINE",
"32 189 LINE SMOOTH",
"32 77 OFFCURVE",
"100 -10 OFFCURVE",
"246 -10 CURVE SMOOTH"
);
}
);
width = 521;
}
);
note = schwa;
unicode = 0259;
},
{
color = 0;
glyphname = hbar;
lastChange = "2017-12-19 05:24:39 +0000";
layers = (
{
layerId = "0B1DFD06-3317-40CA-B510-4969A0718C16";
paths = (
{
closed = 1;
nodes = (
"600 0 LINE",
"600 25 LINE",
"582 25 LINE SMOOTH",
"552 25 OFFCURVE",
"528 34 OFFCURVE",
"528 57 CURVE SMOOTH",
"528 344 LINE SMOOTH",
"528 424 OFFCURVE",
"471 480 OFFCURVE",
"357 480 CURVE SMOOTH",
"265 480 OFFCURVE",
"194 424 OFFCURVE",
"178 373 CURVE",
"178 285 LINE",
"188 285 LINE",
"188 389 OFFCURVE",
"264 439 OFFCURVE",
"330 439 CURVE SMOOTH",
"396 439 OFFCURVE",
"434 404 OFFCURVE",
"434 332 CURVE SMOOTH",
"434 57 LINE SMOOTH",
"434 34 OFFCURVE",
"411 25 OFFCURVE",
"383 25 CURVE SMOOTH",
"367 25 LINE",
"367 0 LINE"
);
},
{
closed = 1;
nodes = (
"255 0 LINE",
"255 25 LINE",
"240 25 LINE SMOOTH",
"212 25 OFFCURVE",
"188 34 OFFCURVE",
"188 57 CURVE SMOOTH",
"188 717 LINE",
"163 717 LINE",
"37 672 LINE",
"44 649 LINE",
"54 653 OFFCURVE",
"66 657 OFFCURVE",
"73 657 CURVE SMOOTH",
"83 657 OFFCURVE",
"94 654 OFFCURVE",
"94 636 CURVE SMOOTH",
"94 57 LINE SMOOTH",
"94 34 OFFCURVE",
"71 25 OFFCURVE",
"41 25 CURVE SMOOTH",
"22 25 LINE",
"22 0 LINE"
);
},
{
closed = 1;
nodes = (
"339 559 LINE",
"339 594 LINE",
"40 594 LINE",
"40 559 LINE"
);
}
);
width = 622;
}
);
note = hbar;
rightKerningGroup = h;
unicode = 0127;
},
{
glyphname = idotless;
lastChange = "2017-12-19 05:49:06 +0000";
layers = (
{
layerId = "0B1DFD06-3317-40CA-B510-4969A0718C16";
paths = (
{
closed = 1;
nodes = (
"155 576 LINE",
"155 604 OFFCURVE",
"110 604 OFFCURVE",
"110 576 CURVE SMOOTH",
"115 40 LINE",
"119 14 OFFCURVE",
"157 8 OFFCURVE",
"162 40 CURVE"
);
}
);
width = 282;
}
);
note = dotlessi;
unicode = 0131;
},
{
color = 0;
glyphname = ij;
lastChange = "2017-12-19 05:24:49 +0000";
layers = (
{
layerId = "0B1DFD06-3317-40CA-B510-4969A0718C16";
paths = (
{
closed = 1;
nodes = (
"472 -107 OFFCURVE",
"516 -25 OFFCURVE",
"516 102 CURVE SMOOTH",
"516 473 LINE",
"491 473 LINE",
"365 428 LINE",
"372 406 LINE",
"383 410 OFFCURVE",
"394 414 OFFCURVE",
"402 414 CURVE SMOOTH",
"411 414 OFFCURVE",
"423 410 OFFCURVE",
"423 393 CURVE SMOOTH",
"423 97 LINE SMOOTH",
"423 -4 OFFCURVE",
"418 -72 OFFCURVE",
"326 -110 CURVE",
"331 -132 LINE"
);
},
{
closed = 1;
nodes = (
"265 0 LINE",
"265 25 LINE",
"246 25 LINE SMOOTH",
"217 25 OFFCURVE",
"193 34 OFFCURVE",
"193 57 CURVE SMOOTH",
"193 475 LINE",
"168 475 LINE",
"42 431 LINE",
"49 408 LINE",
"59 411 OFFCURVE",
"71 416 OFFCURVE",
"78 416 CURVE SMOOTH",
"88 416 OFFCURVE",
"99 412 OFFCURVE",
"99 394 CURVE SMOOTH",
"99 57 LINE SMOOTH",
"99 34 OFFCURVE",
"76 25 OFFCURVE",
"46 25 CURVE SMOOTH",
"27 25 LINE",
"27 0 LINE"
);
},
{
closed = 1;
nodes = (
"171 561 OFFCURVE",
"194 584 OFFCURVE",
"194 616 CURVE SMOOTH",
"194 649 OFFCURVE",
"171 671 OFFCURVE",
"138 671 CURVE SMOOTH",
"103 671 OFFCURVE",
"81 649 OFFCURVE",
"81 616 CURVE SMOOTH",
"81 584 OFFCURVE",
"103 561 OFFCURVE",
"138 561 CURVE SMOOTH"
);
},
{
closed = 1;
nodes = (
"499 561 OFFCURVE",
"522 584 OFFCURVE",
"522 616 CURVE SMOOTH",
"522 649 OFFCURVE",
"499 671 OFFCURVE",
"465 671 CURVE SMOOTH",
"431 671 OFFCURVE",
"409 649 OFFCURVE",
"409 616 CURVE SMOOTH",
"409 584 OFFCURVE",
"431 561 OFFCURVE",
"465 561 CURVE SMOOTH"
);
}
);
width = 598;
}
);
note = ij;
unicode = 0133;
},
{
color = 0;
glyphname = jdotless;
lastChange = "2017-12-19 05:24:51 +0000";
layers = (
{
anchors = (
{
name = bottom;
position = "{151, 0}";
},
{
name = top;
position = "{151, 470}";
}
);
layerId = "0B1DFD06-3317-40CA-B510-4969A0718C16";
paths = (
{
closed = 1;
nodes = (
"176 -107 OFFCURVE",
"220 -25 OFFCURVE",
"220 102 CURVE SMOOTH",
"220 473 LINE",
"195 473 LINE",
"69 428 LINE",
"76 406 LINE",
"86 410 OFFCURVE",
"98 414 OFFCURVE",
"106 414 CURVE SMOOTH",
"115 414 OFFCURVE",
"126 410 OFFCURVE",
"126 393 CURVE SMOOTH",
"126 97 LINE SMOOTH",
"126 -3 OFFCURVE",
"123 -71 OFFCURVE",
"31 -110 CURVE",
"35 -132 LINE"
);
}
);
width = 302;
}
);
leftKerningGroup = j;
note = dotlessj;
unicode = 0237;
},
{
color = 0;
glyphname = kgreenlandic;
lastChange = "2017-12-19 05:24:51 +0000";
layers = (
{
layerId = "0B1DFD06-3317-40CA-B510-4969A0718C16";
paths = (
{
closed = 1;
nodes = (
"257 0 LINE",
"257 25 LINE",
"240 25 LINE SMOOTH",
"211 25 OFFCURVE",
"187 35 OFFCURVE",
"187 57 CURVE SMOOTH",
"187 487 LINE",
"162 487 LINE",
"36 442 LINE",
"43 419 LINE",
"54 423 OFFCURVE",
"65 427 OFFCURVE",
"73 427 CURVE SMOOTH",
"82 427 OFFCURVE",
"94 424 OFFCURVE",
"94 406 CURVE SMOOTH",
"94 57 LINE SMOOTH",
"94 34 OFFCURVE",
"70 25 OFFCURVE",
"40 25 CURVE SMOOTH",
"21 25 LINE",
"21 0 LINE"
);
},
{
closed = 1;
nodes = (
"577 0 LINE",
"577 25 LINE",
"550 25 LINE SMOOTH",
"530 25 OFFCURVE",
"496 35 OFFCURVE",
"475 55 CURVE SMOOTH",
"247 266 LINE",
"185 217 LINE",
"421 0 LINE"
);
},
{
closed = 1;
nodes = (
"446 417 LINE SMOOTH",
"463 432 OFFCURVE",
"488 444 OFFCURVE",
"506 444 CURVE SMOOTH",
"528 444 LINE",
"528 470 LINE",
"332 470 LINE",
"332 444 LINE",
"354 444 LINE SMOOTH",
"380 444 OFFCURVE",
"401 428 OFFCURVE",
"380 411 CURVE SMOOTH",
"155 225 LINE",
"155 173 LINE"
);
}
);
width = 591;
}
);
note = kgreenlandic;
rightKerningGroup = k;
unicode = 0138;
},
{
glyphname = lslash;
lastChange = "2017-12-19 06:14:09 +0000";
layers = (
{
layerId = "0B1DFD06-3317-40CA-B510-4969A0718C16";
paths = (
{
closed = 1;
nodes = (
"219 449 LINE",
"219 505 LINE",
"196 486 OFFCURVE",
"167 464 OFFCURVE",
"143 445 CURVE",
"143 761 LINE",
"117 761 LINE",
"90 733 LINE",
"90 399 LINE",
"15 338 LINE",
"15 282 LINE",
"38 301 OFFCURVE",
"66 326 OFFCURVE",
"90 346 CURVE",
"90 0 LINE",
"143 0 LINE",
"143 385 LINE"
);
}
);
width = 239;
}
);
note = lslash;
unicode = 0142;
},
{
color = 0;
glyphname = eng;
lastChange = "2017-12-19 05:24:55 +0000";
layers = (
{
layerId = "0B1DFD06-3317-40CA-B510-4969A0718C16";
paths = (
{
closed = 1;
nodes = (
"478 -215 OFFCURVE",
"529 -140 OFFCURVE",
"529 -17 CURVE SMOOTH",
"529 344 LINE SMOOTH",
"529 424 OFFCURVE",
"472 480 OFFCURVE",
"358 480 CURVE SMOOTH",
"266 480 OFFCURVE",
"195 424 OFFCURVE",
"178 373 CURVE",
"178 285 LINE",
"188 285 LINE",
"188 389 OFFCURVE",
"264 439 OFFCURVE",
"331 439 CURVE SMOOTH",
"395 439 OFFCURVE",
"435 404 OFFCURVE",
"435 332 CURVE SMOOTH",
"435 -58 LINE SMOOTH",
"435 -128 OFFCURVE",
"413 -186 OFFCURVE",
"339 -215 CURVE",
"344 -238 LINE"
);
},
{
closed = 1;
nodes = (
"255 0 LINE",
"255 25 LINE",
"240 25 LINE SMOOTH",
"205 25 OFFCURVE",
"188 37 OFFCURVE",
"188 66 CURVE SMOOTH",
"188 473 LINE",
"166 473 LINE",
"38 428 LINE",
"44 406 LINE",
"54 410 OFFCURVE",
"66 414 OFFCURVE",
"74 414 CURVE SMOOTH",
"83 414 OFFCURVE",
"94 410 OFFCURVE",
"94 393 CURVE SMOOTH",
"94 66 LINE SMOOTH",
"94 37 OFFCURVE",
"77 25 OFFCURVE",
"41 25 CURVE SMOOTH",
"22 25 LINE",
"22 0 LINE"
);
}
);
width = 609;
}
);
leftKerningGroup = m;
note = eng;
rightKerningGroup = m;
unicode = 014B;
},
{
glyphname = ohorn;
lastChange = "2017-12-19 06:14:26 +0000";
layers = (
{
layerId = "0B1DFD06-3317-40CA-B510-4969A0718C16";
paths = (
{
closed = 1;
nodes = (
"142 35 OFFCURVE",
"90 152 OFFCURVE",
"90 251 CURVE SMOOTH",
"90 350 OFFCURVE",
"142 467 OFFCURVE",
"250 467 CURVE SMOOTH",
"357 467 OFFCURVE",
"409 347 OFFCURVE",
"409 251 CURVE SMOOTH",
"409 152 OFFCURVE",
"357 35 OFFCURVE",
"250 35 CURVE SMOOTH"
);
},
{
closed = 1;
nodes = (
"464 527 LINE",
"453 479 OFFCURVE",
"442 448 OFFCURVE",
"412 425 CURVE",
"375 486 OFFCURVE",
"306 514 OFFCURVE",
"250 514 CURVE SMOOTH",
"108 514 OFFCURVE",
"38 383 OFFCURVE",
"38 251 CURVE SMOOTH",
"38 121 OFFCURVE",
"108 -12 OFFCURVE",
"250 -12 CURVE SMOOTH",
"391 -12 OFFCURVE",
"462 121 OFFCURVE",
"462 251 CURVE SMOOTH",
"462 309 OFFCURVE",
"448 359 OFFCURVE",
"436 383 CURVE",
"499 424 OFFCURVE",
"514 483 OFFCURVE",
"526 527 CURVE"
);
}
);
width = 508;
}
);
note = ohorn;
unicode = 01A1;
},
{
glyphname = oslash;
lastChange = "2017-12-19 06:14:50 +0000";
layers = (
{
layerId = "0B1DFD06-3317-40CA-B510-4969A0718C16";
paths = (
{
closed = 1;
nodes = (
"445 538 LINE",
"449 548 OFFCURVE",
"440 551 OFFCURVE",
"430 557 CURVE",
"419 561 OFFCURVE",
"414 569 OFFCURVE",
"408 558 CURVE SMOOTH",
"366 486 LINE",
"338 505 OFFCURVE",
"303 517 OFFCURVE",
"261 517 CURVE SMOOTH",
"121 517 OFFCURVE",
"58 387 OFFCURVE",
"58 260 CURVE SMOOTH",
"58 182 OFFCURVE",
"80 105 OFFCURVE",
"128 55 CURVE",
"84 -28 LINE SMOOTH",
"78 -38 OFFCURVE",
"86 -41 OFFCURVE",
"96 -47 CURVE SMOOTH",
"106 -53 OFFCURVE",
"115 -58 OFFCURVE",
"120 -49 CURVE",
"162 28 LINE",
"189 12 OFFCURVE",
"223 1 OFFCURVE",
"261 1 CURVE SMOOTH",
"400 1 OFFCURVE",
"465 131 OFFCURVE",
"465 260 CURVE SMOOTH",
"465 332 OFFCURVE",
"445 408 OFFCURVE",
"399 456 CURVE"
);
},
{
closed = 1;
nodes = (
"114 350 OFFCURVE",
"155 464 OFFCURVE",
"261 464 CURVE SMOOTH",
"292 464 OFFCURVE",
"319 453 OFFCURVE",
"340 436 CURVE",
"158 108 LINE",
"127 149 OFFCURVE",
"114 208 OFFCURVE",
"114 260 CURVE SMOOTH"
);
},
{
closed = 1;
nodes = (
"233 55 OFFCURVE",
"208 64 OFFCURVE",
"189 78 CURVE",
"369 403 LINE",
"397 362 OFFCURVE",
"409 307 OFFCURVE",
"409 260 CURVE SMOOTH",
"409 170 OFFCURVE",
"366 55 OFFCURVE",
"261 55 CURVE SMOOTH"
);
}
);
width = 518;
}
);
note = oslash;
unicode = 00F8;
},
{
glyphname = oe;
lastChange = "2017-12-19 06:14:59 +0000";
layers = (
{
layerId = "0B1DFD06-3317-40CA-B510-4969A0718C16";
paths = (
{
closed = 1;
nodes = (
"527 514 OFFCURVE",
"465 459 OFFCURVE",
"431 390 CURVE",
"400 462 OFFCURVE",
"343 515 OFFCURVE",
"254 515 CURVE SMOOTH",
"114 515 OFFCURVE",
"49 385 OFFCURVE",
"49 257 CURVE SMOOTH",
"49 128 OFFCURVE",
"114 -1 OFFCURVE",
"254 -1 CURVE SMOOTH",
"341 -1 OFFCURVE",
"399 50 OFFCURVE",
"430 120 CURVE",
"455 71 OFFCURVE",
"492 37 OFFCURVE",
"533 16 CURVE SMOOTH",
"617 -25 OFFCURVE",
"733 12 OFFCURVE",
"777 43 CURVE",
"744 86 LINE",
"724 71 OFFCURVE",
"654 27 OFFCURVE",
"569 62 CURVE SMOOTH",
"507 87 OFFCURVE",
"465 143 OFFCURVE",
"465 230 CURVE",
"796 230 LINE",
"827 232 OFFCURVE",
"837 235 OFFCURVE",
"837 266 CURVE SMOOTH",
"839 321 OFFCURVE",
"814 514 OFFCURVE",
"625 514 CURVE SMOOTH"
);
},
{
closed = 1;
nodes = (
"148 53 OFFCURVE",
"106 168 OFFCURVE",
"106 257 CURVE SMOOTH",
"106 349 OFFCURVE",
"148 462 OFFCURVE",
"254 462 CURVE SMOOTH",
"359 462 OFFCURVE",
"402 346 OFFCURVE",
"402 254 CURVE SMOOTH",
"402 165 OFFCURVE",
"354 53 OFFCURVE",
"254 53 CURVE SMOOTH"
);
},
{
closed = 1;
nodes = (
"461 285 LINE",
"462 349 OFFCURVE",
"505 467 OFFCURVE",
"623 467 CURVE SMOOTH",
"740 467 OFFCURVE",
"786 357 OFFCURVE",
"781 285 CURVE"
);
}
);
width = 886;
}
);
note = oe;
unicode = 0153;
},
{
glyphname = thorn;
lastChange = "2017-12-19 06:14:59 +0000";
layers = (
{
layerId = "0B1DFD06-3317-40CA-B510-4969A0718C16";
paths = (
{
closed = 1;
nodes = (
"81 -210 LINE",
"131 -210 LINE",
"131 100 LINE",
"176 31 OFFCURVE",
"251 -13 OFFCURVE",
"340 -13 CURVE SMOOTH",
"483 -13 OFFCURVE",
"597 106 OFFCURVE",
"597 256 CURVE SMOOTH",
"597 405 OFFCURVE",
"483 524 OFFCURVE",
"340 524 CURVE SMOOTH",
"251 524 OFFCURVE",
"176 479 OFFCURVE",
"131 409 CURVE",
"131 710 LINE",
"81 710 LINE"
);
},
{
closed = 1;
nodes = (
"133 378 OFFCURVE",
"225 477 OFFCURVE",
"340 477 CURVE SMOOTH",
"455 477 OFFCURVE",
"546 378 OFFCURVE",
"546 256 CURVE SMOOTH",
"546 133 OFFCURVE",
"455 34 OFFCURVE",
"340 34 CURVE SMOOTH",
"225 34 OFFCURVE",
"133 133 OFFCURVE",
"133 256 CURVE SMOOTH"
);
}
);
width = 669;
}
);
note = thorn;
unicode = 00FE;
},
{
glyphname = germandbls;
lastChange = "2017-12-19 06:15:35 +0000";
layers = (
{
layerId = "0B1DFD06-3317-40CA-B510-4969A0718C16";
paths = (
{
closed = 1;
nodes = (
"477 434 OFFCURVE",
"439 464 OFFCURVE",
"387 487 CURVE",
"419 493 OFFCURVE",
"464 549 OFFCURVE",
"464 613 CURVE SMOOTH",
"464 659 OFFCURVE",
"449 702 OFFCURVE",
"403 737 CURVE SMOOTH",
"366 767 OFFCURVE",
"323 774 OFFCURVE",
"279 774 CURVE SMOOTH",
"158 777 OFFCURVE",
"90 690 OFFCURVE",
"90 575 CURVE SMOOTH",
"90 -235 LINE",
"137 -235 LINE",
"137 566 LINE SMOOTH",
"137 672 OFFCURVE",
"177 703 OFFCURVE",
"199 716 CURVE SMOOTH",
"248 746 OFFCURVE",
"319 744 OFFCURVE",
"366 713 CURVE",
"396 696 OFFCURVE",
"417 662 OFFCURVE",
"415 606 CURVE SMOOTH",
"412 521 OFFCURVE",
"340 515 OFFCURVE",
"285 515 CURVE SMOOTH",
"284 515 OFFCURVE",
"284 515 OFFCURVE",
"284 515 CURVE SMOOTH",
"282 515 OFFCURVE",
"282 515 OFFCURVE",
"282 515 CURVE SMOOTH",
"177 515 LINE",
"177 467 LINE",
"279 467 LINE SMOOTH",
"397 467 OFFCURVE",
"496 372 OFFCURVE",
"499 253 CURVE SMOOTH",
"502 133 OFFCURVE",
"418 35 OFFCURVE",
"295 35 CURVE SMOOTH",
"189 35 LINE",
"189 -13 LINE",
"309 -12 LINE SMOOTH",
"456 -12 OFFCURVE",
"545 109 OFFCURVE",
"545 248 CURVE SMOOTH",
"545 304 OFFCURVE",
"533 353 OFFCURVE",
"505 393 CURVE SMOOTH"
);
}
);
width = 611;
}
);
note = uni00DF;
unicode = 00DF;
},
{
glyphname = tbar;
lastChange = "2017-12-19 05:21:12 +0000";
layers = (
{
components = (
{
name = t;
}
);
layerId = "0B1DFD06-3317-40CA-B510-4969A0718C16";
paths = (
{
closed = 1;
nodes = (
"321 260 LINE",
"321 297 LINE",
"33 297 LINE",
"33 260 LINE"
);
}
);
width = 397;
}
);
leftKerningGroup = t;
note = tbar;
rightKerningGroup = t;
unicode = 0167;
},
{
glyphname = uhorn;
lastChange = "2017-12-19 06:15:43 +0000";
layers = (
{
layerId = "0B1DFD06-3317-40CA-B510-4969A0718C16";
paths = (
{
closed = 1;
nodes = (
"455 109 LINE",
"455 365 LINE",
"541 383 OFFCURVE",
"578 482 OFFCURVE",
"578 539 CURVE",
"524 539 LINE",
"524 471 OFFCURVE",
"493 434 OFFCURVE",
"455 419 CURVE",
"455 513 LINE",
"400 513 LINE",
"400 208 LINE SMOOTH",
"400 121 OFFCURVE",
"344 35 OFFCURVE",
"257 35 CURVE SMOOTH",
"183 35 OFFCURVE",
"123 89 OFFCURVE",
"123 174 CURVE SMOOTH",
"123 514 LINE",
"69 514 LINE",
"69 176 LINE SMOOTH",
"69 118 OFFCURVE",
"102 -13 OFFCURVE",
"247 -13 CURVE SMOOTH",
"306 -13 OFFCURVE",
"372 13 OFFCURVE",
"402 74 CURVE",
"402 16 OFFCURVE",
"417 -6 OFFCURVE",
"422 -18 CURVE",
"471 1 LINE",
"462 22 OFFCURVE",
"455 46 OFFCURVE",
"455 111 CURVE"
);
}
);
width = 530;
}
);
note = uhorn;
unicode = 01B0;
},
{
glyphname = fi;
lastChange = "2017-12-19 06:15:54 +0000";
layers = (
{
layerId = "0B1DFD06-3317-40CA-B510-4969A0718C16";
paths = (
{
closed = 1;
nodes = (
"149 514 LINE",
"149 583 LINE SMOOTH",
"149 685 OFFCURVE",
"193 696 OFFCURVE",
"278 678 CURVE",
"285 725 LINE",
"183 755 OFFCURVE",
"96 725 OFFCURVE",
"96 603 CURVE SMOOTH",
"96 514 LINE",
"19 514 LINE",
"7 470 LINE",
"96 470 LINE",
"96 4 LINE SMOOTH",
"96 -58 OFFCURVE",
"78 -117 OFFCURVE",
"49 -154 CURVE",
"97 -168 LINE",
"97 -168 OFFCURVE",
"149 -99 OFFCURVE",
"149 6 CURVE SMOOTH",
"149 470 LINE",
"287 470 LINE",
"287 0 LINE",
"340 0 LINE",
"340 514 LINE"
);
}
);
width = 414;
}
);
note = fi;
unicode = FB01;
},
{
glyphname = fl;
lastChange = "2017-12-19 06:15:54 +0000";
layers = (
{
layerId = "0B1DFD06-3317-40CA-B510-4969A0718C16";
paths = (
{
closed = 1;
nodes = (
"368 712 LINE",
"227 778 OFFCURVE",
"96 725 OFFCURVE",
"96 603 CURVE SMOOTH",
"96 514 LINE",
"19 514 LINE",
"7 470 LINE",
"96 470 LINE",
"96 4 LINE SMOOTH",
"96 -58 OFFCURVE",
"78 -117 OFFCURVE",
"49 -154 CURVE",
"97 -168 LINE",
"97 -168 OFFCURVE",
"149 -99 OFFCURVE",
"149 6 CURVE SMOOTH",
"149 470 LINE",
"253 470 LINE",
"264 514 LINE",
"149 514 LINE",
"149 583 LINE SMOOTH",
"149 679 OFFCURVE",
"223 703 OFFCURVE",
"315 679 CURVE",
"315 0 LINE",
"368 0 LINE"
);
}
);
width = 443;
}
);
note = fl;
unicode = FB02;
},
{
glyphname = ordfeminine;
lastChange = "2017-12-19 06:15:54 +0000";
layers = (
{
layerId = "0B1DFD06-3317-40CA-B510-4969A0718C16";
paths = (
{
closed = 1;
nodes = (
"219 276 OFFCURVE",
"253 300 OFFCURVE",
"275 335 CURVE",
"275 287 LINE",
"318 287 LINE",
"315 334 LINE",
"315 613 LINE",
"273 613 LINE",
"273 554 LINE",
"253 589 OFFCURVE",
"219 613 OFFCURVE",
"170 613 CURVE SMOOTH",
"77 613 OFFCURVE",
"35 529 OFFCURVE",
"35 445 CURVE SMOOTH",
"35 360 OFFCURVE",
"77 276 OFFCURVE",
"170 276 CURVE SMOOTH"
);
},
{
closed = 1;
nodes = (
"233 566 OFFCURVE",
"267 513 OFFCURVE",
"267 450 CURVE SMOOTH",
"266 375 OFFCURVE",
"233 323 OFFCURVE",
"173 323 CURVE SMOOTH",
"106 323 OFFCURVE",
"80 391 OFFCURVE",
"80 445 CURVE SMOOTH",
"80 498 OFFCURVE",
"106 566 OFFCURVE",
"173 566 CURVE SMOOTH"
);
}
);
width = 372;
}
);
note = ordfeminine;
unicode = 00AA;
},
{
glyphname = ordmasculine;
lastChange = "2017-12-19 06:15:54 +0000";
layers = (
{
layerId = "0B1DFD06-3317-40CA-B510-4969A0718C16";
paths = (
{
closed = 1;
nodes = (
"365 549 OFFCURVE",
"297 629 OFFCURVE",
"185 629 CURVE SMOOTH",
"96 629 OFFCURVE",
"7 561 OFFCURVE",
"7 449 CURVE SMOOTH",
"7 350 OFFCURVE",
"83 276 OFFCURVE",
"185 276 CURVE SMOOTH",
"264 276 OFFCURVE",
"365 329 OFFCURVE",
"365 455 CURVE SMOOTH"
);
},
{
closed = 1;
nodes = (
"316 363 OFFCURVE",
"251 321 OFFCURVE",
"186 321 CURVE SMOOTH",
"126 321 OFFCURVE",
"58 363 OFFCURVE",
"58 450 CURVE SMOOTH",
"58 517 OFFCURVE",
"100 585 OFFCURVE",
"186 585 CURVE SMOOTH",
"276 585 OFFCURVE",
"316 511 OFFCURVE",
"316 452 CURVE SMOOTH"
);
}
);
width = 372;
}
);
note = ordmasculine;
unicode = 00BA;
},
{
color = 0;
glyphname = nmod;
lastChange = "2017-12-19 05:26:45 +0000";
layers = (
{
layerId = "0B1DFD06-3317-40CA-B510-4969A0718C16";
paths = (
{
closed = 1;
nodes = (
"410 378 LINE",
"410 397 LINE",
"392 397 LINE SMOOTH",
"368 397 OFFCURVE",
"350 405 OFFCURVE",
"350 424 CURVE SMOOTH",
"350 599 LINE SMOOTH",
"350 660 OFFCURVE",
"323 708 OFFCURVE",
"240 708 CURVE SMOOTH",
"168 708 OFFCURVE",
"128 658 OFFCURVE",
"116 601 CURVE",
"116 548 LINE",
"135 548 LINE",
"135 628 OFFCURVE",
"173 677 OFFCURVE",
"221 677 CURVE SMOOTH",
"266 677 OFFCURVE",
"281 652 OFFCURVE",
"281 595 CURVE SMOOTH",
"281 424 LINE SMOOTH",
"281 405 OFFCURVE",
"264 397 OFFCURVE",
"239 397 CURVE SMOOTH",
"229 397 LINE",
"229 378 LINE"
);
},
{
closed = 1;
nodes = (
"187 378 LINE",
"187 397 LINE",
"177 397 LINE SMOOTH",
"152 397 OFFCURVE",
"135 405 OFFCURVE",
"135 424 CURVE SMOOTH",
"135 706 LINE",
"114 706 LINE",
"17 670 LINE",
"22 652 LINE",
"30 655 OFFCURVE",
"42 659 OFFCURVE",
"50 659 CURVE SMOOTH",
"58 659 OFFCURVE",
"66 656 OFFCURVE",
"66 643 CURVE SMOOTH",
"66 424 LINE SMOOTH",
"66 405 OFFCURVE",
"48 397 OFFCURVE",
"23 397 CURVE SMOOTH",
"6 397 LINE",
"6 378 LINE"
);
}
);
width = 416;
}
);
note = uni207F;
unicode = 207F;
},
{
glyphname = Delta;
lastChange = "2017-12-19 07:22:24 +0000";
layers = (
{
layerId = "0B1DFD06-3317-40CA-B510-4969A0718C16";
paths = (
{
closed = 1;
nodes = (
"273 654 LINE",
"7 0 LINE",
"545 0 LINE",
"281 654 LINE"
);
},
{
closed = 1;
nodes = (
"448 32 LINE",
"53 32 LINE",
"256 527 LINE"
);
}
);
width = 552;
}
);
note = Delta;
unicode = 0394;
},
{
glyphname = Omega;
lastChange = "2017-12-19 07:22:17 +0000";
layers = (
{
layerId = "0B1DFD06-3317-40CA-B510-4969A0718C16";
paths = (
{
closed = 1;
nodes = (
"626 72 OFFCURVE",
"601 68 OFFCURVE",
"567 68 CURVE SMOOTH",
"442 68 LINE",
"442 162 LINE",
"576 182 OFFCURVE",
"679 269 OFFCURVE",
"679 411 CURVE SMOOTH",
"679 585 OFFCURVE",
"518 672 OFFCURVE",
"362 672 CURVE SMOOTH",
"207 672 OFFCURVE",
"38 586 OFFCURVE",
"38 411 CURVE SMOOTH",
"38 273 OFFCURVE",
"146 177 OFFCURVE",
"278 162 CURVE",
"278 68 LINE",
"152 68 LINE SMOOTH",
"83 68 OFFCURVE",
"64 86 OFFCURVE",
"55 152 CURVE",
"53 152 LINE",
"53 0 LINE",
"301 0 LINE",
"301 174 LINE",
"188 196 OFFCURVE",
"134 307 OFFCURVE",
"134 411 CURVE SMOOTH",
"134 544 OFFCURVE",
"226 650 OFFCURVE",
"362 650 CURVE SMOOTH",
"502 650 OFFCURVE",
"585 545 OFFCURVE",
"585 411 CURVE SMOOTH",
"585 304 OFFCURVE",
"530 196 OFFCURVE",
"418 174 CURVE",
"418 0 LINE",
"666 0 LINE",
"666 152 LINE",
"665 152 LINE",
"662 121 OFFCURVE",
"654 99 OFFCURVE",
"641 86 CURVE"
);
}
);
width = 717;
}
);
note = Omega;
unicode = 03A9;
},
{
glyphname = mu;
lastChange = "2017-12-19 07:22:39 +0000";
layers = (
{
layerId = "0B1DFD06-3317-40CA-B510-4969A0718C16";
paths = (
{
closed = 1;
nodes = (
"473 517 LINE",
"418 517 LINE",
"418 208 LINE SMOOTH",
"418 121 OFFCURVE",
"362 35 OFFCURVE",
"275 35 CURVE SMOOTH",
"201 35 OFFCURVE",
"140 89 OFFCURVE",
"140 174 CURVE SMOOTH",
"140 517 LINE",
"86 517 LINE",
"86 -244 LINE",
"139 -244 LINE",
"140 35 LINE",
"167 7 OFFCURVE",
"207 -13 OFFCURVE",
"264 -13 CURVE SMOOTH",
"323 -13 OFFCURVE",
"390 13 OFFCURVE",
"419 74 CURVE",
"419 16 OFFCURVE",
"434 -6 OFFCURVE",
"440 -18 CURVE",
"489 1 LINE",
"480 22 OFFCURVE",
"473 46 OFFCURVE",
"473 111 CURVE SMOOTH"
);
}
);
width = 569;
}
);
note = mu;
unicode = 03BC;
},
{
color = 0;
glyphname = pi;
lastChange = "2017-12-19 05:38:58 +0000";
layers = (
{
layerId = "0B1DFD06-3317-40CA-B510-4969A0718C16";
paths = (
{
closed = 1;
nodes = (
"577 -10 OFFCURVE",
"603 -4 OFFCURVE",
"633 13 CURVE",
"633 54 LINE",
"618 44 OFFCURVE",
"598 36 OFFCURVE",
"581 36 CURVE SMOOTH",
"555 36 OFFCURVE",
"528 49 OFFCURVE",
"528 100 CURVE SMOOTH",
"528 431 LINE",
"647 431 LINE",
"647 470 LINE",
"19 470 LINE",
"19 431 LINE",
"136 431 LINE",
"136 0 LINE",
"231 0 LINE",
"231 431 LINE",
"433 431 LINE",
"433 96 LINE SMOOTH",
"433 32 OFFCURVE",
"466 -10 OFFCURVE",
"540 -10 CURVE SMOOTH"
);
}
);
width = 664;
}
);
note = pi;
unicode = 03C0;
},
{
glyphname = "koKai-thai";
lastChange = "2017-12-19 06:16:21 +0000";
layers = (
{
layerId = "0B1DFD06-3317-40CA-B510-4969A0718C16";
paths = (
{
closed = 1;
nodes = (
"484 0 LINE",
"542 0 LINE",
"542 422 LINE SMOOTH",
"542 437 OFFCURVE",
"546 448 OFFCURVE",
"552 453 CURVE SMOOTH",
"566 467 OFFCURVE",
"573 474 OFFCURVE",
"555 495 CURVE SMOOTH",
"541 511 OFFCURVE",
"529 511 OFFCURVE",
"524 507 CURVE",
"489 554 OFFCURVE",
"427 603 OFFCURVE",
"312 603 CURVE SMOOTH",
"108 600 OFFCURVE",
"50 442 OFFCURVE",
"44 419 CURVE",
"146 359 LINE",
"142 352 OFFCURVE",
"133 328 OFFCURVE",
"133 304 CURVE SMOOTH",
"133 0 LINE",
"191 0 LINE",
"191 303 LINE SMOOTH",
"191 332 OFFCURVE",
"204 380 OFFCURVE",
"263 406 CURVE",
"254 419 OFFCURVE",
"235 446 OFFCURVE",
"233 446 CURVE",
"211 443 OFFCURVE",
"182 418 OFFCURVE",
"170 403 CURVE",
"112 440 LINE",
"130 476 OFFCURVE",
"180 551 OFFCURVE",
"313 552 CURVE SMOOTH",
"428 552 OFFCURVE",
"479 480 OFFCURVE",
"492 462 CURVE",
"486 453 OFFCURVE",
"484 443 OFFCURVE",
"484 431 CURVE SMOOTH"
);
}
);
width = 629;
}
);
note = uni0E01;
unicode = 0E01;
},
{
glyphname = "thoThung-thai";
lastChange = "2017-12-19 06:16:21 +0000";
layers = (
{
layerId = "0B1DFD06-3317-40CA-B510-4969A0718C16";
paths = (
{
closed = 1;
nodes = (
"191 303 LINE SMOOTH",
"191 332 OFFCURVE",
"204 380 OFFCURVE",
"263 406 CURVE",
"254 419 OFFCURVE",
"235 446 OFFCURVE",
"233 446 CURVE",
"211 443 OFFCURVE",
"182 418 OFFCURVE",
"170 403 CURVE",
"112 440 LINE",
"130 476 OFFCURVE",
"180 551 OFFCURVE",
"313 552 CURVE SMOOTH",
"428 552 OFFCURVE",
"479 480 OFFCURVE",
"492 462 CURVE",
"486 453 OFFCURVE",
"484 443 OFFCURVE",
"484 431 CURVE SMOOTH",
"484 0 LINE",
"542 0 LINE",
"542 422 LINE SMOOTH",
"542 437 OFFCURVE",
"546 448 OFFCURVE",
"552 453 CURVE SMOOTH",
"566 467 OFFCURVE",
"573 474 OFFCURVE",
"555 495 CURVE SMOOTH",
"541 511 OFFCURVE",
"529 511 OFFCURVE",
"524 507 CURVE",
"489 554 OFFCURVE",
"427 603 OFFCURVE",
"312 603 CURVE SMOOTH",
"108 600 OFFCURVE",
"50 442 OFFCURVE",
"44 419 CURVE",
"146 359 LINE",
"142 352 OFFCURVE",
"133 328 OFFCURVE",
"133 304 CURVE SMOOTH",
"133 90 LINE SMOOTH",
"133 37 OFFCURVE",
"176 -7 OFFCURVE",
"229 -7 CURVE SMOOTH",
"284 -7 OFFCURVE",
"326 37 OFFCURVE",
"326 90 CURVE SMOOTH",
"326 143 OFFCURVE",
"284 188 OFFCURVE",
"229 188 CURVE SMOOTH",
"216 188 OFFCURVE",
"204 185 OFFCURVE",
"191 179 CURVE"
);
},
{
closed = 1;
nodes = (
"256 137 OFFCURVE",
"278 117 OFFCURVE",
"278 90 CURVE SMOOTH",
"278 64 OFFCURVE",
"256 43 OFFCURVE",
"229 43 CURVE SMOOTH",
"204 43 OFFCURVE",
"182 64 OFFCURVE",
"182 90 CURVE SMOOTH",
"182 117 OFFCURVE",
"204 137 OFFCURVE",
"229 137 CURVE SMOOTH"
);
}
);
width = 629;
}
);
note = uni0E16;
unicode = 0E16;
},
{
glyphname = "phoSamphao-thai";
lastChange = "2017-12-19 06:16:21 +0000";
layers = (
{
layerId = "0B1DFD06-3317-40CA-B510-4969A0718C16";
paths = (
{
closed = 1;
nodes = (
"152 182 LINE",
"140 185 OFFCURVE",
"131 188 OFFCURVE",
"120 188 CURVE SMOOTH",
"65 188 OFFCURVE",
"22 145 OFFCURVE",
"22 92 CURVE SMOOTH",
"22 37 OFFCURVE",
"65 -6 OFFCURVE",
"120 -6 CURVE SMOOTH",
"173 -6 OFFCURVE",
"216 37 OFFCURVE",
"216 92 CURVE SMOOTH",
"216 102 OFFCURVE",
"214 114 OFFCURVE",
"210 124 CURVE",
"210 303 LINE SMOOTH",
"210 332 OFFCURVE",
"223 380 OFFCURVE",
"282 406 CURVE",
"273 419 OFFCURVE",
"254 446 OFFCURVE",
"253 446 CURVE",
"230 443 OFFCURVE",
"201 418 OFFCURVE",
"189 403 CURVE",
"131 440 LINE",
"149 476 OFFCURVE",
"199 551 OFFCURVE",
"332 552 CURVE SMOOTH",
"448 552 OFFCURVE",
"498 480 OFFCURVE",
"511 462 CURVE",
"505 453 OFFCURVE",
"504 443 OFFCURVE",
"504 431 CURVE SMOOTH",
"504 0 LINE",
"561 0 LINE",
"561 422 LINE SMOOTH",
"561 437 OFFCURVE",
"566 448 OFFCURVE",
"572 453 CURVE SMOOTH",
"585 467 OFFCURVE",
"592 474 OFFCURVE",
"575 495 CURVE SMOOTH",
"560 511 OFFCURVE",
"548 511 OFFCURVE",
"544 507 CURVE",
"508 554 OFFCURVE",
"446 603 OFFCURVE",
"331 603 CURVE SMOOTH",
"127 600 OFFCURVE",
"69 442 OFFCURVE",
"64 419 CURVE",
"165 359 LINE",
"161 352 OFFCURVE",
"152 328 OFFCURVE",
"152 304 CURVE SMOOTH"
);
},
{
closed = 1;
nodes = (
"93 43 OFFCURVE",
"71 65 OFFCURVE",
"71 92 CURVE SMOOTH",
"71 117 OFFCURVE",
"93 139 OFFCURVE",
"120 139 CURVE SMOOTH",
"145 139 OFFCURVE",
"167 117 OFFCURVE",
"167 92 CURVE SMOOTH",
"167 65 OFFCURVE",
"145 43 OFFCURVE",
"120 43 CURVE SMOOTH"
);
}
);
width = 647;
}
);
note = uni0E20;
unicode = 0E20;
},
{
glyphname = "ru-thai";
lastChange = "2017-12-19 06:16:21 +0000";
layers = (
{
layerId = "0B1DFD06-3317-40CA-B510-4969A0718C16";
paths = (
{
closed = 1;
nodes = (
"191 303 LINE SMOOTH",
"191 332 OFFCURVE",
"204 380 OFFCURVE",
"263 406 CURVE",
"254 419 OFFCURVE",
"235 446 OFFCURVE",
"233 446 CURVE",
"211 443 OFFCURVE",
"182 418 OFFCURVE",
"170 403 CURVE",
"112 440 LINE",
"130 476 OFFCURVE",
"180 551 OFFCURVE",
"313 552 CURVE SMOOTH",
"428 552 OFFCURVE",
"479 480 OFFCURVE",
"492 462 CURVE",
"486 453 OFFCURVE",
"484 443 OFFCURVE",
"484 431 CURVE SMOOTH",
"484 -359 LINE",
"542 -359 LINE",
"542 422 LINE SMOOTH",
"542 437 OFFCURVE",
"546 448 OFFCURVE",
"552 453 CURVE SMOOTH",
"566 467 OFFCURVE",
"573 474 OFFCURVE",
"555 495 CURVE SMOOTH",
"541 511 OFFCURVE",
"529 511 OFFCURVE",
"524 507 CURVE",
"489 554 OFFCURVE",
"427 603 OFFCURVE",
"312 603 CURVE SMOOTH",
"108 600 OFFCURVE",
"50 442 OFFCURVE",
"44 419 CURVE",
"146 359 LINE",
"142 352 OFFCURVE",
"133 328 OFFCURVE",
"133 304 CURVE SMOOTH",
"133 90 LINE SMOOTH",
"133 37 OFFCURVE",
"176 -7 OFFCURVE",
"229 -7 CURVE SMOOTH",
"284 -7 OFFCURVE",
"326 37 OFFCURVE",
"326 90 CURVE SMOOTH",
"326 143 OFFCURVE",
"284 188 OFFCURVE",
"229 188 CURVE SMOOTH",
"216 188 OFFCURVE",
"204 185 OFFCURVE",
"191 179 CURVE"
);
},
{
closed = 1;
nodes = (
"256 137 OFFCURVE",
"278 117 OFFCURVE",
"278 90 CURVE SMOOTH",
"278 64 OFFCURVE",
"256 43 OFFCURVE",
"229 43 CURVE SMOOTH",
"204 43 OFFCURVE",
"182 64 OFFCURVE",
"182 90 CURVE SMOOTH",
"182 117 OFFCURVE",
"204 137 OFFCURVE",
"229 137 CURVE SMOOTH"
);
}
);
width = 629;
}
);
note = uni0E24;
unicode = 0E24;
},
{
color = 0;
glyphname = "ru-thai.short";
lastChange = "2017-12-19 05:26:58 +0000";
layers = (
{
layerId = "0B1DFD06-3317-40CA-B510-4969A0718C16";
paths = (
{
closed = 1;
nodes = (
"524 -140 LINE",
"524 379 LINE SMOOTH",
"524 505 OFFCURVE",
"416 563 OFFCURVE",
"285 563 CURVE SMOOTH",
"171 563 OFFCURVE",
"50 499 OFFCURVE",
"38 348 CURVE",
"145 348 LINE",
"81 321 OFFCURVE",
"59 268 OFFCURVE",
"59 215 CURVE SMOOTH",
"59 117 LINE SMOOTH",
"59 38 OFFCURVE",
"94 -10 OFFCURVE",
"181 -10 CURVE SMOOTH",
"239 -10 OFFCURVE",
"285 27 OFFCURVE",
"285 87 CURVE SMOOTH",
"285 155 OFFCURVE",
"229 179 OFFCURVE",
"196 179 CURVE SMOOTH",
"181 179 OFFCURVE",
"165 177 OFFCURVE",
"154 169 CURVE",
"154 222 LINE SMOOTH",
"154 288 OFFCURVE",
"176 319 OFFCURVE",
"232 346 CURVE",
"232 381 LINE",
"92 381 LINE",
"107 472 OFFCURVE",
"191 520 OFFCURVE",
"270 520 CURVE SMOOTH",
"373 520 OFFCURVE",
"429 461 OFFCURVE",
"429 396 CURVE SMOOTH",
"429 -140 LINE"
);
},
{
closed = 1;
nodes = (
"146 23 OFFCURVE",
"125 52 OFFCURVE",
"125 87 CURVE SMOOTH",
"125 122 OFFCURVE",
"152 149 OFFCURVE",
"188 149 CURVE SMOOTH",
"223 149 OFFCURVE",
"249 122 OFFCURVE",
"249 87 CURVE SMOOTH",
"249 52 OFFCURVE",
"226 23 OFFCURVE",
"188 23 CURVE SMOOTH"
);
}
);
width = 585;
}
);
note = "ru-thai.short";
},
{
glyphname = "lu-thai";
lastChange = "2017-12-19 06:16:21 +0000";
layers = (
{
layerId = "0B1DFD06-3317-40CA-B510-4969A0718C16";
paths = (
{
closed = 1;
nodes = (
"152 182 LINE",
"140 185 OFFCURVE",
"131 188 OFFCURVE",
"120 188 CURVE SMOOTH",
"65 188 OFFCURVE",
"22 145 OFFCURVE",
"22 92 CURVE SMOOTH",
"22 37 OFFCURVE",
"65 -6 OFFCURVE",
"120 -6 CURVE SMOOTH",
"173 -6 OFFCURVE",
"216 37 OFFCURVE",
"216 92 CURVE SMOOTH",
"216 102 OFFCURVE",
"214 114 OFFCURVE",
"210 124 CURVE",
"210 303 LINE SMOOTH",
"210 332 OFFCURVE",
"223 380 OFFCURVE",
"282 406 CURVE",
"273 419 OFFCURVE",
"254 446 OFFCURVE",
"253 446 CURVE",
"230 443 OFFCURVE",
"201 418 OFFCURVE",
"189 403 CURVE",
"131 440 LINE",
"149 476 OFFCURVE",
"199 551 OFFCURVE",
"332 552 CURVE SMOOTH",
"448 552 OFFCURVE",
"498 480 OFFCURVE",
"511 462 CURVE",
"505 453 OFFCURVE",
"504 443 OFFCURVE",
"504 431 CURVE SMOOTH",
"504 -359 LINE",
"561 -359 LINE",
"561 422 LINE SMOOTH",
"561 437 OFFCURVE",
"566 448 OFFCURVE",
"572 453 CURVE SMOOTH",
"585 467 OFFCURVE",
"592 474 OFFCURVE",
"575 495 CURVE SMOOTH",
"560 511 OFFCURVE",
"548 511 OFFCURVE",
"544 507 CURVE",
"508 554 OFFCURVE",
"446 603 OFFCURVE",
"331 603 CURVE SMOOTH",
"127 600 OFFCURVE",
"69 442 OFFCURVE",
"64 419 CURVE",
"165 359 LINE",
"161 352 OFFCURVE",
"152 328 OFFCURVE",
"152 304 CURVE SMOOTH"
);
},
{
closed = 1;
nodes = (
"93 43 OFFCURVE",
"71 65 OFFCURVE",
"71 92 CURVE SMOOTH",
"71 117 OFFCURVE",
"93 139 OFFCURVE",
"120 139 CURVE SMOOTH",
"145 139 OFFCURVE",
"167 117 OFFCURVE",
"167 92 CURVE SMOOTH",
"167 65 OFFCURVE",
"145 43 OFFCURVE",
"120 43 CURVE SMOOTH"
);
}
);
width = 650;
}
);
note = uni0E26;
unicode = 0E26;
},
{
color = 0;
glyphname = "lu-thai.short";
lastChange = "2017-12-19 05:26:58 +0000";
layers = (
{
layerId = "0B1DFD06-3317-40CA-B510-4969A0718C16";
paths = (
{
closed = 1;
nodes = (
"567 -140 LINE",
"567 379 LINE SMOOTH",
"567 505 OFFCURVE",
"459 563 OFFCURVE",
"329 563 CURVE SMOOTH",
"214 563 OFFCURVE",
"94 499 OFFCURVE",
"81 348 CURVE",
"211 348 LINE",
"152 323 OFFCURVE",
"132 275 OFFCURVE",
"132 223 CURVE SMOOTH",
"132 169 LINE",
"120 177 OFFCURVE",
"105 179 OFFCURVE",
"90 179 CURVE SMOOTH",
"56 179 OFFCURVE",
"0 155 OFFCURVE",
"0 87 CURVE SMOOTH",
"0 27 OFFCURVE",
"47 -10 OFFCURVE",
"105 -10 CURVE SMOOTH",
"185 -10 OFFCURVE",
"227 32 OFFCURVE",
"227 103 CURVE SMOOTH",
"227 206 LINE SMOOTH",
"227 277 OFFCURVE",
"241 318 OFFCURVE",
"297 346 CURVE",
"297 381 LINE",
"134 381 LINE",
"149 472 OFFCURVE",
"234 520 OFFCURVE",
"313 520 CURVE SMOOTH",
"416 520 OFFCURVE",
"472 461 OFFCURVE",
"472 396 CURVE SMOOTH",
"472 -140 LINE"
);
},
{
closed = 1;
nodes = (
"60 23 OFFCURVE",
"37 52 OFFCURVE",
"37 87 CURVE SMOOTH",
"37 122 OFFCURVE",
"63 149 OFFCURVE",
"98 149 CURVE SMOOTH",
"134 149 OFFCURVE",
"161 122 OFFCURVE",
"161 87 CURVE SMOOTH",
"161 52 OFFCURVE",
"139 23 OFFCURVE",
"98 23 CURVE SMOOTH"
);
}
);
width = 628;
}
);
note = "lu-thai.short";
},
{
glyphname = "doChada-thai";
lastChange = "2017-12-19 06:16:21 +0000";
layers = (
{
layerId = "0B1DFD06-3317-40CA-B510-4969A0718C16";
paths = (
{
closed = 1;
nodes = (
"560 422 LINE SMOOTH",
"560 437 OFFCURVE",
"564 448 OFFCURVE",
"570 453 CURVE SMOOTH",
"583 467 OFFCURVE",
"591 474 OFFCURVE",
"573 495 CURVE SMOOTH",
"558 511 OFFCURVE",
"546 511 OFFCURVE",
"542 507 CURVE",
"507 554 OFFCURVE",
"446 603 OFFCURVE",
"331 603 CURVE SMOOTH",
"127 600 OFFCURVE",
"69 442 OFFCURVE",
"64 419 CURVE",
"165 359 LINE",
"161 352 OFFCURVE",
"152 328 OFFCURVE",
"152 304 CURVE SMOOTH",
"152 182 LINE",
"140 185 OFFCURVE",
"131 188 OFFCURVE",
"120 188 CURVE SMOOTH",
"65 188 OFFCURVE",
"22 145 OFFCURVE",
"22 92 CURVE SMOOTH",
"22 37 OFFCURVE",
"65 -6 OFFCURVE",
"120 -6 CURVE SMOOTH",
"173 -6 OFFCURVE",
"216 37 OFFCURVE",
"216 92 CURVE SMOOTH",
"216 102 OFFCURVE",
"214 114 OFFCURVE",
"210 124 CURVE",
"210 303 LINE SMOOTH",
"210 332 OFFCURVE",
"223 380 OFFCURVE",
"282 406 CURVE",
"273 419 OFFCURVE",
"254 446 OFFCURVE",
"253 446 CURVE",
"230 443 OFFCURVE",
"201 418 OFFCURVE",
"189 403 CURVE",
"131 440 LINE",
"149 476 OFFCURVE",
"199 551 OFFCURVE",
"332 552 CURVE SMOOTH",
"448 552 OFFCURVE",
"496 480 OFFCURVE",
"510 462 CURVE",
"504 453 OFFCURVE",
"502 443 OFFCURVE",
"502 431 CURVE SMOOTH",
"502 -199 LINE SMOOTH",
"502 -217 OFFCURVE",
"477 -245 OFFCURVE",
"445 -270 CURVE",
"405 -208 OFFCURVE",
"326 -157 OFFCURVE",
"284 -148 CURVE",
"284 -59 LINE",
"226 -59 LINE",
"226 -134 LINE",
"154 -123 OFFCURVE",
"75 -158 OFFCURVE",
"75 -238 CURVE SMOOTH",
"75 -287 OFFCURVE",
"109 -341 OFFCURVE",
"179 -341 CURVE SMOOTH",
"298 -341 OFFCURVE",
"284 -192 OFFCURVE",
"284 -192 CURVE",
"322 -204 OFFCURVE",
"375 -254 OFFCURVE",
"405 -298 CURVE",
"391 -307 OFFCURVE",
"388 -325 OFFCURVE",
"396 -337 CURVE SMOOTH",
"405 -350 OFFCURVE",
"422 -354 OFFCURVE",
"436 -347 CURVE",
"473 -323 OFFCURVE",
"560 -264 OFFCURVE",
"560 -199 CURVE SMOOTH"
);
},
{
closed = 1;
nodes = (
"93 43 OFFCURVE",
"71 65 OFFCURVE",
"71 92 CURVE SMOOTH",
"71 117 OFFCURVE",
"93 139 OFFCURVE",
"120 139 CURVE SMOOTH",
"145 139 OFFCURVE",
"167 117 OFFCURVE",
"167 92 CURVE SMOOTH",
"167 65 OFFCURVE",
"145 43 OFFCURVE",
"120 43 CURVE SMOOTH"
);
},
{
closed = 1;
nodes = (
"232 -258 OFFCURVE",
"219 -289 OFFCURVE",
"179 -289 CURVE SMOOTH",
"133 -289 OFFCURVE",
"127 -251 OFFCURVE",
"127 -238 CURVE",
"126 -177 OFFCURVE",
"188 -179 OFFCURVE",
"229 -183 CURVE",
"230 -192 OFFCURVE",
"232 -220 OFFCURVE",
"232 -229 CURVE SMOOTH"
);
}
);
width = 645;
}
);
note = uni0E0E;
unicode = 0E0E;
},
{
glyphname = "doChada-thai.short";
lastChange = "2017-12-19 06:16:42 +0000";
layers = (
{
layerId = "0B1DFD06-3317-40CA-B510-4969A0718C16";
paths = (
{
closed = 1;
nodes = (
"560 422 LINE SMOOTH",
"560 437 OFFCURVE",
"564 448 OFFCURVE",
"570 453 CURVE SMOOTH",
"583 467 OFFCURVE",
"591 474 OFFCURVE",
"573 495 CURVE SMOOTH",
"558 511 OFFCURVE",
"546 511 OFFCURVE",
"542 507 CURVE",
"507 554 OFFCURVE",
"446 603 OFFCURVE",
"331 603 CURVE SMOOTH",
"127 600 OFFCURVE",
"69 442 OFFCURVE",
"64 419 CURVE",
"165 359 LINE",
"161 352 OFFCURVE",
"152 328 OFFCURVE",
"152 304 CURVE SMOOTH",
"152 182 LINE",
"140 185 OFFCURVE",
"131 188 OFFCURVE",
"120 188 CURVE SMOOTH",
"65 188 OFFCURVE",
"22 145 OFFCURVE",
"22 92 CURVE SMOOTH",
"22 37 OFFCURVE",
"65 -6 OFFCURVE",
"120 -6 CURVE SMOOTH",
"173 -6 OFFCURVE",
"216 37 OFFCURVE",
"216 92 CURVE SMOOTH",
"216 102 OFFCURVE",
"214 114 OFFCURVE",
"210 124 CURVE",
"210 303 LINE SMOOTH",
"210 332 OFFCURVE",
"223 380 OFFCURVE",
"282 406 CURVE",
"273 419 OFFCURVE",
"254 446 OFFCURVE",
"253 446 CURVE",
"230 443 OFFCURVE",
"201 418 OFFCURVE",
"189 403 CURVE",
"131 440 LINE",
"149 476 OFFCURVE",
"199 551 OFFCURVE",
"332 552 CURVE SMOOTH",
"448 552 OFFCURVE",
"496 480 OFFCURVE",
"510 462 CURVE",
"504 453 OFFCURVE",
"502 443 OFFCURVE",
"502 431 CURVE SMOOTH",
"502 -199 LINE SMOOTH",
"502 -217 OFFCURVE",
"477 -245 OFFCURVE",
"445 -270 CURVE",
"405 -208 OFFCURVE",
"326 -157 OFFCURVE",
"284 -148 CURVE",
"284 -59 LINE",
"226 -59 LINE",
"226 -134 LINE",
"154 -123 OFFCURVE",
"75 -158 OFFCURVE",
"75 -238 CURVE SMOOTH",
"75 -287 OFFCURVE",
"109 -341 OFFCURVE",
"179 -341 CURVE SMOOTH",
"298 -341 OFFCURVE",
"284 -192 OFFCURVE",
"284 -192 CURVE",
"322 -204 OFFCURVE",
"375 -254 OFFCURVE",
"405 -298 CURVE",
"391 -307 OFFCURVE",
"388 -325 OFFCURVE",
"396 -337 CURVE SMOOTH",
"405 -350 OFFCURVE",
"422 -354 OFFCURVE",
"436 -347 CURVE",
"473 -323 OFFCURVE",
"560 -264 OFFCURVE",
"560 -199 CURVE SMOOTH"
);
},
{
closed = 1;
nodes = (
"93 43 OFFCURVE",
"71 65 OFFCURVE",
"71 92 CURVE SMOOTH",
"71 117 OFFCURVE",
"93 139 OFFCURVE",
"120 139 CURVE SMOOTH",
"145 139 OFFCURVE",
"167 117 OFFCURVE",
"167 92 CURVE SMOOTH",
"167 65 OFFCURVE",
"145 43 OFFCURVE",
"120 43 CURVE SMOOTH"
);
},
{
closed = 1;
nodes = (
"232 -258 OFFCURVE",
"219 -289 OFFCURVE",
"179 -289 CURVE SMOOTH",
"133 -289 OFFCURVE",
"127 -251 OFFCURVE",
"127 -238 CURVE",
"126 -177 OFFCURVE",
"188 -179 OFFCURVE",
"229 -183 CURVE",
"230 -192 OFFCURVE",
"232 -220 OFFCURVE",
"232 -229 CURVE SMOOTH"
);
}
);
width = 645;
}
);
note = "doChada-thai.short";
},
{
glyphname = "toPatak-thai";
lastChange = "2017-12-19 06:16:21 +0000";
layers = (
{
layerId = "0B1DFD06-3317-40CA-B510-4969A0718C16";
paths = (
{
closed = 1;
nodes = (
"561 422 LINE SMOOTH",
"561 437 OFFCURVE",
"566 448 OFFCURVE",
"572 453 CURVE SMOOTH",
"585 467 OFFCURVE",
"592 474 OFFCURVE",
"575 495 CURVE SMOOTH",
"560 511 OFFCURVE",
"548 511 OFFCURVE",
"544 507 CURVE",
"508 554 OFFCURVE",
"446 603 OFFCURVE",
"331 603 CURVE SMOOTH",
"127 600 OFFCURVE",
"69 442 OFFCURVE",
"64 419 CURVE",
"165 359 LINE",
"161 352 OFFCURVE",
"152 328 OFFCURVE",
"152 304 CURVE SMOOTH",
"152 182 LINE",
"140 185 OFFCURVE",
"131 188 OFFCURVE",
"120 188 CURVE SMOOTH",
"65 188 OFFCURVE",
"22 145 OFFCURVE",
"22 92 CURVE SMOOTH",
"22 37 OFFCURVE",
"65 -6 OFFCURVE",
"120 -6 CURVE SMOOTH",
"173 -6 OFFCURVE",
"216 37 OFFCURVE",
"216 92 CURVE SMOOTH",
"216 102 OFFCURVE",
"214 114 OFFCURVE",
"210 124 CURVE",
"210 303 LINE SMOOTH",
"210 332 OFFCURVE",
"223 380 OFFCURVE",
"282 406 CURVE",
"273 419 OFFCURVE",
"254 446 OFFCURVE",
"253 446 CURVE",
"230 443 OFFCURVE",
"201 418 OFFCURVE",
"189 403 CURVE",
"131 440 LINE",
"149 476 OFFCURVE",
"199 551 OFFCURVE",
"332 552 CURVE SMOOTH",
"448 552 OFFCURVE",
"498 480 OFFCURVE",
"511 462 CURVE",
"505 453 OFFCURVE",
"504 443 OFFCURVE",
"504 431 CURVE SMOOTH",
"504 -201 LINE SMOOTH",
"504 -219 OFFCURVE",
"505 -244 OFFCURVE",
"493 -261 CURVE",
"470 -245 OFFCURVE",
"387 -236 OFFCURVE",
"356 -278 CURVE",
"323 -226 OFFCURVE",
"281 -183 OFFCURVE",
"235 -158 CURVE",
"235 -62 LINE",
"179 -62 LINE",
"179 -139 LINE",
"109 -121 OFFCURVE",
"27 -161 OFFCURVE",
"27 -239 CURVE SMOOTH",
"27 -288 OFFCURVE",
"61 -344 OFFCURVE",
"130 -344 CURVE SMOOTH",
"251 -344 OFFCURVE",
"235 -207 OFFCURVE",
"235 -207 CURVE",
"270 -232 OFFCURVE",
"298 -273 OFFCURVE",
"322 -316 CURVE",
"319 -319 LINE",
"310 -331 OFFCURVE",
"315 -347 OFFCURVE",
"326 -356 CURVE",
"338 -363 OFFCURVE",
"354 -360 OFFCURVE",
"362 -347 CURVE",
"390 -291 OFFCURVE",
"442 -295 OFFCURVE",
"452 -297 CURVE",
"450 -301 OFFCURVE",
"450 -307 OFFCURVE",
"453 -312 CURVE",
"458 -328 OFFCURVE",
"474 -335 OFFCURVE",
"489 -331 CURVE SMOOTH",
"515 -322 OFFCURVE",
"561 -294 OFFCURVE",
"561 -201 CURVE SMOOTH"
);
},
{
closed = 1;
nodes = (
"93 43 OFFCURVE",
"71 65 OFFCURVE",
"71 92 CURVE SMOOTH",
"71 117 OFFCURVE",
"93 139 OFFCURVE",
"120 139 CURVE SMOOTH",
"145 139 OFFCURVE",
"167 117 OFFCURVE",
"167 92 CURVE SMOOTH",
"167 65 OFFCURVE",
"145 43 OFFCURVE",
"120 43 CURVE SMOOTH"
);
},
{
closed = 1;
nodes = (
"84 -291 OFFCURVE",
"78 -253 OFFCURVE",
"78 -239 CURVE SMOOTH",
"80 -182 OFFCURVE",
"134 -177 OFFCURVE",
"180 -183 CURVE",
"182 -193 OFFCURVE",
"183 -230 OFFCURVE",
"183 -239 CURVE SMOOTH",
"183 -269 OFFCURVE",
"160 -291 OFFCURVE",
"130 -291 CURVE SMOOTH"
);
}
);
width = 645;
}
);
note = uni0E0F;
unicode = 0E0F;
},
{
glyphname = "toPatak-thai.short";
lastChange = "2017-12-19 06:16:53 +0000";
layers = (
{
layerId = "0B1DFD06-3317-40CA-B510-4969A0718C16";
paths = (
{
closed = 1;
nodes = (
"561 422 LINE SMOOTH",
"561 437 OFFCURVE",
"566 448 OFFCURVE",
"572 453 CURVE SMOOTH",
"585 467 OFFCURVE",
"592 474 OFFCURVE",
"575 495 CURVE SMOOTH",
"560 511 OFFCURVE",
"548 511 OFFCURVE",
"544 507 CURVE",
"508 554 OFFCURVE",
"446 603 OFFCURVE",
"331 603 CURVE SMOOTH",
"127 600 OFFCURVE",
"69 442 OFFCURVE",
"64 419 CURVE",
"165 359 LINE",
"161 352 OFFCURVE",
"152 328 OFFCURVE",
"152 304 CURVE SMOOTH",
"152 182 LINE",
"140 185 OFFCURVE",
"131 188 OFFCURVE",
"120 188 CURVE SMOOTH",
"65 188 OFFCURVE",
"22 145 OFFCURVE",
"22 92 CURVE SMOOTH",
"22 37 OFFCURVE",
"65 -6 OFFCURVE",
"120 -6 CURVE SMOOTH",
"173 -6 OFFCURVE",
"216 37 OFFCURVE",
"216 92 CURVE SMOOTH",
"216 102 OFFCURVE",
"214 114 OFFCURVE",
"210 124 CURVE",
"210 303 LINE SMOOTH",
"210 332 OFFCURVE",
"223 380 OFFCURVE",
"282 406 CURVE",
"273 419 OFFCURVE",
"254 446 OFFCURVE",
"253 446 CURVE",
"230 443 OFFCURVE",
"201 418 OFFCURVE",
"189 403 CURVE",
"131 440 LINE",
"149 476 OFFCURVE",
"199 551 OFFCURVE",
"332 552 CURVE SMOOTH",
"448 552 OFFCURVE",
"498 480 OFFCURVE",
"511 462 CURVE",
"505 453 OFFCURVE",
"504 443 OFFCURVE",
"504 431 CURVE SMOOTH",
"504 -201 LINE SMOOTH",
"504 -219 OFFCURVE",
"505 -244 OFFCURVE",
"493 -261 CURVE",
"470 -245 OFFCURVE",
"387 -236 OFFCURVE",
"356 -278 CURVE",
"323 -226 OFFCURVE",
"281 -183 OFFCURVE",
"235 -158 CURVE",
"235 -62 LINE",
"179 -62 LINE",
"179 -139 LINE",
"109 -121 OFFCURVE",
"27 -161 OFFCURVE",
"27 -239 CURVE SMOOTH",
"27 -288 OFFCURVE",
"61 -344 OFFCURVE",
"130 -344 CURVE SMOOTH",
"251 -344 OFFCURVE",
"235 -207 OFFCURVE",
"235 -207 CURVE",
"270 -232 OFFCURVE",
"298 -273 OFFCURVE",
"322 -316 CURVE",
"319 -319 LINE",
"310 -331 OFFCURVE",
"315 -347 OFFCURVE",
"326 -356 CURVE",
"338 -363 OFFCURVE",
"354 -360 OFFCURVE",
"362 -347 CURVE",
"390 -291 OFFCURVE",
"442 -295 OFFCURVE",
"452 -297 CURVE",
"450 -301 OFFCURVE",
"450 -307 OFFCURVE",
"453 -312 CURVE",
"458 -328 OFFCURVE",
"474 -335 OFFCURVE",
"489 -331 CURVE SMOOTH",
"515 -322 OFFCURVE",
"561 -294 OFFCURVE",
"561 -201 CURVE SMOOTH"
);
},
{
closed = 1;
nodes = (
"93 43 OFFCURVE",
"71 65 OFFCURVE",
"71 92 CURVE SMOOTH",
"71 117 OFFCURVE",
"93 139 OFFCURVE",
"120 139 CURVE SMOOTH",
"145 139 OFFCURVE",
"167 117 OFFCURVE",
"167 92 CURVE SMOOTH",
"167 65 OFFCURVE",
"145 43 OFFCURVE",
"120 43 CURVE SMOOTH"
);
},
{
closed = 1;
nodes = (
"84 -291 OFFCURVE",
"78 -253 OFFCURVE",
"78 -239 CURVE SMOOTH",
"80 -182 OFFCURVE",
"134 -177 OFFCURVE",
"180 -183 CURVE",
"182 -193 OFFCURVE",
"183 -230 OFFCURVE",
"183 -239 CURVE SMOOTH",
"183 -269 OFFCURVE",
"160 -291 OFFCURVE",
"130 -291 CURVE SMOOTH"
);
}
);
width = 645;
}
);
note = "toPatak-thai.short";
},
{
glyphname = "ru_lakkhangyao-thai";
lastChange = "2017-12-19 06:18:32 +0000";
layers = (
{
layerId = "0B1DFD06-3317-40CA-B510-4969A0718C16";
paths = (
{
closed = 1;
nodes = (
"487 554 OFFCURVE",
"425 603 OFFCURVE",
"312 603 CURVE SMOOTH",
"108 600 OFFCURVE",
"50 442 OFFCURVE",
"44 419 CURVE",
"146 359 LINE",
"142 352 OFFCURVE",
"133 328 OFFCURVE",
"133 304 CURVE SMOOTH",
"133 90 LINE SMOOTH",
"133 37 OFFCURVE",
"176 -7 OFFCURVE",
"229 -7 CURVE SMOOTH",
"284 -7 OFFCURVE",
"326 37 OFFCURVE",
"326 90 CURVE SMOOTH",
"326 143 OFFCURVE",
"284 188 OFFCURVE",
"229 188 CURVE SMOOTH",
"216 188 OFFCURVE",
"204 185 OFFCURVE",
"191 179 CURVE",
"191 303 LINE SMOOTH",
"191 332 OFFCURVE",
"204 380 OFFCURVE",
"263 406 CURVE",
"254 419 OFFCURVE",
"235 446 OFFCURVE",
"233 446 CURVE",
"211 443 OFFCURVE",
"182 418 OFFCURVE",
"170 403 CURVE",
"112 440 LINE",
"130 476 OFFCURVE",
"180 551 OFFCURVE",
"313 552 CURVE SMOOTH",
"428 552 OFFCURVE",
"479 480 OFFCURVE",
"492 462 CURVE",
"486 453 OFFCURVE",
"484 443 OFFCURVE",
"484 431 CURVE SMOOTH",
"484 -359 LINE",
"542 -359 LINE",
"542 422 LINE SMOOTH",
"542 437 OFFCURVE",
"546 448 OFFCURVE",
"552 453 CURVE SMOOTH",
"558 459 OFFCURVE",
"564 465 OFFCURVE",
"566 471 CURVE",
"588 520 OFFCURVE",
"626 549 OFFCURVE",
"687 549 CURVE SMOOTH",
"771 549 OFFCURVE",
"817 499 OFFCURVE",
"833 473 CURVE",
"827 464 OFFCURVE",
"826 453 OFFCURVE",
"826 442 CURVE SMOOTH",
"826 -359 LINE",
"883 -359 LINE",
"883 431 LINE SMOOTH",
"883 446 OFFCURVE",
"888 456 OFFCURVE",
"894 462 CURVE SMOOTH",
"907 476 OFFCURVE",
"914 483 OFFCURVE",
"897 504 CURVE SMOOTH",
"882 520 OFFCURVE",
"870 520 OFFCURVE",
"866 515 CURVE",
"845 554 OFFCURVE",
"786 603 OFFCURVE",
"687 603 CURVE SMOOTH",
"610 603 OFFCURVE",
"555 566 OFFCURVE",
"523 508 CURVE"
);
},
{
closed = 1;
nodes = (
"256 137 OFFCURVE",
"278 117 OFFCURVE",
"278 90 CURVE SMOOTH",
"278 64 OFFCURVE",
"256 43 OFFCURVE",
"229 43 CURVE SMOOTH",
"204 43 OFFCURVE",
"182 64 OFFCURVE",
"182 90 CURVE SMOOTH",
"182 117 OFFCURVE",
"204 137 OFFCURVE",
"229 137 CURVE SMOOTH"
);
}
);
width = 967;
}
);
note = "ru_lakkhangyao-thai";
},
{
glyphname = "lu_lakkhangyao-thai";
lastChange = "2017-12-19 06:18:45 +0000";
layers = (
{
layerId = "0B1DFD06-3317-40CA-B510-4969A0718C16";
paths = (
{
closed = 1;
nodes = (
"93 43 OFFCURVE",
"71 65 OFFCURVE",
"71 92 CURVE SMOOTH",
"71 117 OFFCURVE",
"93 139 OFFCURVE",
"120 139 CURVE SMOOTH",
"145 139 OFFCURVE",
"167 117 OFFCURVE",
"167 92 CURVE SMOOTH",
"167 65 OFFCURVE",
"145 43 OFFCURVE",
"120 43 CURVE SMOOTH"
);
},
{
closed = 1;
nodes = (
"507 554 OFFCURVE",
"445 603 OFFCURVE",
"331 603 CURVE SMOOTH",
"127 600 OFFCURVE",
"69 442 OFFCURVE",
"64 419 CURVE",
"165 359 LINE",
"161 352 OFFCURVE",
"152 328 OFFCURVE",
"152 304 CURVE SMOOTH",
"152 182 LINE",
"140 185 OFFCURVE",
"131 188 OFFCURVE",
"120 188 CURVE SMOOTH",
"65 188 OFFCURVE",
"22 145 OFFCURVE",
"22 92 CURVE SMOOTH",
"22 37 OFFCURVE",
"65 -6 OFFCURVE",
"120 -6 CURVE SMOOTH",
"173 -6 OFFCURVE",
"216 37 OFFCURVE",
"216 92 CURVE SMOOTH",
"216 102 OFFCURVE",
"214 114 OFFCURVE",
"210 124 CURVE",
"210 303 LINE SMOOTH",
"210 332 OFFCURVE",
"223 380 OFFCURVE",
"282 406 CURVE",
"273 419 OFFCURVE",
"254 446 OFFCURVE",
"253 446 CURVE",
"230 443 OFFCURVE",
"201 418 OFFCURVE",
"189 403 CURVE",
"131 440 LINE",
"149 476 OFFCURVE",
"199 551 OFFCURVE",
"332 552 CURVE SMOOTH",
"448 552 OFFCURVE",
"498 480 OFFCURVE",
"511 462 CURVE",
"505 453 OFFCURVE",
"504 443 OFFCURVE",
"504 431 CURVE SMOOTH",
"504 -359 LINE",
"561 -359 LINE",
"561 422 LINE SMOOTH",
"561 437 OFFCURVE",
"566 448 OFFCURVE",
"572 453 CURVE SMOOTH",
"578 459 OFFCURVE",
"583 464 OFFCURVE",
"585 470 CURVE",
"607 518 OFFCURVE",
"647 549 OFFCURVE",
"707 549 CURVE SMOOTH",
"792 549 OFFCURVE",
"837 499 OFFCURVE",
"854 473 CURVE",
"848 464 OFFCURVE",
"846 453 OFFCURVE",
"846 442 CURVE SMOOTH",
"846 -359 LINE",
"904 -359 LINE",
"904 431 LINE SMOOTH",
"904 446 OFFCURVE",
"908 456 OFFCURVE",
"914 462 CURVE SMOOTH",
"928 476 OFFCURVE",
"935 483 OFFCURVE",
"917 504 CURVE SMOOTH",
"902 520 OFFCURVE",
"891 520 OFFCURVE",
"886 515 CURVE",
"866 554 OFFCURVE",
"806 603 OFFCURVE",
"707 603 CURVE SMOOTH",
"629 603 OFFCURVE",
"575 566 OFFCURVE",
"542 507 CURVE"
);
}
);
width = 988;
}
);
note = "lu_lakkhangyao-thai";
},
{
glyphname = "yoYing-thai";
lastChange = "2017-12-19 06:16:21 +0000";
layers = (
{
layerId = "0B1DFD06-3317-40CA-B510-4969A0718C16";
paths = (
{
closed = 1;
nodes = (
"526 -97 OFFCURVE",
"538 -93 OFFCURVE",
"548 -93 CURVE SMOOTH",
"575 -93 OFFCURVE",
"592 -111 OFFCURVE",
"592 -137 CURVE SMOOTH",
"592 -161 OFFCURVE",
"573 -180 OFFCURVE",
"548 -180 CURVE SMOOTH",
"524 -180 OFFCURVE",
"505 -161 OFFCURVE",
"505 -137 CURVE SMOOTH",
"505 -124 OFFCURVE",
"510 -114 OFFCURVE",
"517 -105 CURVE"
);
},
{
closed = 1;
nodes = (
"484 87 LINE SMOOTH",
"484 77 OFFCURVE",
"480 59 OFFCURVE",
"459 46 CURVE SMOOTH",
"443 35 OFFCURVE",
"439 31 OFFCURVE",
"446 18 CURVE",
"462 -9 OFFCURVE",
"468 -7 OFFCURVE",
"483 -3 CURVE SMOOTH",
"492 0 OFFCURVE",
"492 4 OFFCURVE",
"501 4 CURVE SMOOTH",
"767 4 LINE",
"767 -112 OFFCURVE",
"722 -195 OFFCURVE",
"607 -196 CURVE",
"672 -142 OFFCURVE",
"629 -46 OFFCURVE",
"548 -46 CURVE SMOOTH",
"498 -46 OFFCURVE",
"458 -86 OFFCURVE",
"458 -137 CURVE SMOOTH",
"458 -227 OFFCURVE",
"575 -264 OFFCURVE",
"676 -232 CURVE SMOOTH",
"799 -195 OFFCURVE",
"823 -71 OFFCURVE",
"823 35 CURVE SMOOTH",
"823 591 LINE",
"765 591 LINE",
"765 56 LINE",
"529 56 LINE",
"539 64 OFFCURVE",
"542 75 OFFCURVE",
"542 90 CURVE SMOOTH",
"542 422 LINE SMOOTH",
"542 437 OFFCURVE",
"546 448 OFFCURVE",
"552 453 CURVE SMOOTH",
"566 467 OFFCURVE",
"573 474 OFFCURVE",
"555 495 CURVE SMOOTH",
"541 511 OFFCURVE",
"529 511 OFFCURVE",
"524 507 CURVE",
"489 554 OFFCURVE",
"427 603 OFFCURVE",
"312 603 CURVE SMOOTH",
"108 600 OFFCURVE",
"50 442 OFFCURVE",
"44 419 CURVE",
"146 359 LINE",
"142 352 OFFCURVE",
"133 328 OFFCURVE",
"133 304 CURVE SMOOTH",
"133 90 LINE SMOOTH",
"133 37 OFFCURVE",
"176 -7 OFFCURVE",
"229 -7 CURVE SMOOTH",
"284 -7 OFFCURVE",
"326 37 OFFCURVE",
"326 90 CURVE SMOOTH",
"326 143 OFFCURVE",
"284 188 OFFCURVE",
"229 188 CURVE SMOOTH",
"216 188 OFFCURVE",
"204 185 OFFCURVE",
"191 179 CURVE",
"191 303 LINE SMOOTH",
"191 332 OFFCURVE",
"204 380 OFFCURVE",
"263 406 CURVE",
"254 419 OFFCURVE",
"235 446 OFFCURVE",
"233 446 CURVE",
"211 443 OFFCURVE",
"182 418 OFFCURVE",
"170 403 CURVE",
"112 440 LINE",
"130 476 OFFCURVE",
"180 551 OFFCURVE",
"313 552 CURVE SMOOTH",
"428 552 OFFCURVE",
"479 480 OFFCURVE",
"492 462 CURVE",
"486 453 OFFCURVE",
"484 443 OFFCURVE",
"484 431 CURVE SMOOTH"
);
},
{
closed = 1;
nodes = (
"256 137 OFFCURVE",
"278 117 OFFCURVE",
"278 90 CURVE SMOOTH",
"278 64 OFFCURVE",
"256 43 OFFCURVE",
"229 43 CURVE SMOOTH",
"204 43 OFFCURVE",
"182 64 OFFCURVE",
"182 90 CURVE SMOOTH",
"182 117 OFFCURVE",
"204 137 OFFCURVE",
"229 137 CURVE SMOOTH"
);
}
);
width = 908;
}
);
note = uni0E0D;
unicode = 0E0D;
},
{
glyphname = "yoYing-thai.less";
lastChange = "2017-12-19 06:19:01 +0000";
layers = (
{
layerId = "0B1DFD06-3317-40CA-B510-4969A0718C16";
paths = (
{
closed = 1;
nodes = (
"772 4 LINE SMOOTH",
"811 4 OFFCURVE",
"823 38 OFFCURVE",
"823 53 CURVE SMOOTH",
"823 591 LINE",
"765 591 LINE",
"765 56 LINE",
"529 56 LINE",
"539 64 OFFCURVE",
"542 75 OFFCURVE",
"542 90 CURVE SMOOTH",
"542 422 LINE SMOOTH",
"542 437 OFFCURVE",
"546 448 OFFCURVE",
"552 453 CURVE SMOOTH",
"566 467 OFFCURVE",
"573 474 OFFCURVE",
"555 495 CURVE SMOOTH",
"541 511 OFFCURVE",
"529 511 OFFCURVE",
"524 507 CURVE",
"489 554 OFFCURVE",
"427 603 OFFCURVE",
"312 603 CURVE SMOOTH",
"108 600 OFFCURVE",
"50 442 OFFCURVE",
"44 419 CURVE",
"146 359 LINE",
"142 352 OFFCURVE",
"133 328 OFFCURVE",
"133 304 CURVE SMOOTH",
"133 90 LINE SMOOTH",
"133 37 OFFCURVE",
"176 -7 OFFCURVE",
"229 -7 CURVE SMOOTH",
"284 -7 OFFCURVE",
"326 37 OFFCURVE",
"326 90 CURVE SMOOTH",
"326 143 OFFCURVE",
"284 188 OFFCURVE",
"229 188 CURVE SMOOTH",
"216 188 OFFCURVE",
"204 185 OFFCURVE",
"191 179 CURVE",
"191 303 LINE SMOOTH",
"191 332 OFFCURVE",
"204 380 OFFCURVE",
"263 406 CURVE",
"254 419 OFFCURVE",
"235 446 OFFCURVE",
"233 446 CURVE",
"211 443 OFFCURVE",
"182 418 OFFCURVE",
"170 403 CURVE",
"112 440 LINE",
"130 476 OFFCURVE",
"180 551 OFFCURVE",
"313 552 CURVE SMOOTH",
"428 552 OFFCURVE",
"479 480 OFFCURVE",
"492 462 CURVE",
"486 453 OFFCURVE",
"484 443 OFFCURVE",
"484 431 CURVE SMOOTH",
"484 87 LINE SMOOTH",
"484 77 OFFCURVE",
"480 59 OFFCURVE",
"459 46 CURVE SMOOTH",
"443 35 OFFCURVE",
"439 31 OFFCURVE",
"446 18 CURVE",
"462 -9 OFFCURVE",
"468 -7 OFFCURVE",
"483 -3 CURVE SMOOTH",
"492 0 OFFCURVE",
"492 4 OFFCURVE",
"501 4 CURVE SMOOTH"
);
},
{
closed = 1;
nodes = (
"256 137 OFFCURVE",
"278 117 OFFCURVE",
"278 90 CURVE SMOOTH",
"278 64 OFFCURVE",
"256 43 OFFCURVE",
"229 43 CURVE SMOOTH",
"204 43 OFFCURVE",
"182 64 OFFCURVE",
"182 90 CURVE SMOOTH",
"182 117 OFFCURVE",
"204 137 OFFCURVE",
"229 137 CURVE SMOOTH"
);
}
);
width = 908;
}
);
note = "yoYing-thai.less";
},
{
glyphname = "khoKhai-thai";
lastChange = "2017-12-19 06:16:21 +0000";
layers = (
{
layerId = "0B1DFD06-3317-40CA-B510-4969A0718C16";
paths = (
{
closed = 1;
nodes = (
"411 56 LINE",
"236 56 LINE",
"247 64 OFFCURVE",
"250 75 OFFCURVE",
"250 90 CURVE SMOOTH",
"250 266 LINE SMOOTH",
"250 284 OFFCURVE",
"254 295 OFFCURVE",
"275 316 CURVE SMOOTH",
"304 347 OFFCURVE",
"350 387 OFFCURVE",
"346 471 CURVE SMOOTH",
"344 511 OFFCURVE",
"322 551 OFFCURVE",
"288 575 CURVE SMOOTH",
"226 619 OFFCURVE",
"123 607 OFFCURVE",
"72 557 CURVE SMOOTH",
"44 527 OFFCURVE",
"28 493 OFFCURVE",
"28 456 CURVE SMOOTH",
"28 400 OFFCURVE",
"72 356 OFFCURVE",
"127 356 CURVE SMOOTH",
"183 356 OFFCURVE",
"227 400 OFFCURVE",
"227 456 CURVE SMOOTH",
"227 496 OFFCURVE",
"204 530 OFFCURVE",
"170 546 CURVE",
"220 564 OFFCURVE",
"289 538 OFFCURVE",
"292 468 CURVE SMOOTH",
"294 409 OFFCURVE",
"269 381 OFFCURVE",
"241 354 CURVE SMOOTH",
"219 332 OFFCURVE",
"192 307 OFFCURVE",
"192 266 CURVE SMOOTH",
"192 83 LINE SMOOTH",
"192 72 OFFCURVE",
"188 55 OFFCURVE",
"167 41 CURVE SMOOTH",
"151 31 OFFCURVE",
"146 27 OFFCURVE",
"154 13 CURVE",
"170 -13 OFFCURVE",
"176 -12 OFFCURVE",
"191 -7 CURVE SMOOTH",
"199 -4 OFFCURVE",
"199 0 OFFCURVE",
"208 0 CURVE SMOOTH",
"396 0 LINE SMOOTH",
"419 0 OFFCURVE",
"440 7 OFFCURVE",
"452 21 CURVE",
"462 31 OFFCURVE",
"468 43 OFFCURVE",
"468 58 CURVE SMOOTH",
"468 591 LINE",
"468 591 OFFCURVE",
"425 591 OFFCURVE",
"411 591 CURVE"
);
},
{
closed = 1;
nodes = (
"100 408 OFFCURVE",
"78 428 OFFCURVE",
"78 456 CURVE SMOOTH",
"78 483 OFFCURVE",
"100 505 OFFCURVE",
"127 505 CURVE SMOOTH",
"155 505 OFFCURVE",
"177 483 OFFCURVE",
"177 456 CURVE SMOOTH",
"177 428 OFFCURVE",
"155 408 OFFCURVE",
"127 408 CURVE SMOOTH"
);
}
);
width = 555;
}
);
note = uni0E02;
unicode = 0E02;
},
{
glyphname = "khoKhuat-thai";
lastChange = "2017-12-19 06:16:21 +0000";
layers = (
{
layerId = "0B1DFD06-3317-40CA-B510-4969A0718C16";
paths = (
{
closed = 1;
nodes = (
"524 591 LINE",
"524 591 OFFCURVE",
"484 591 OFFCURVE",
"468 591 CURVE",
"468 56 LINE",
"297 56 LINE",
"307 64 OFFCURVE",
"310 75 OFFCURVE",
"310 90 CURVE SMOOTH",
"310 284 LINE SMOOTH",
"310 328 OFFCURVE",
"340 354 OFFCURVE",
"372 381 CURVE SMOOTH",
"405 408 OFFCURVE",
"443 428 OFFCURVE",
"430 487 CURVE SMOOTH",
"425 507 OFFCURVE",
"399 578 OFFCURVE",
"362 600 CURVE",
"349 606 OFFCURVE",
"338 610 OFFCURVE",
"273 552 CURVE",
"229 609 OFFCURVE",
"164 614 OFFCURVE",
"115 591 CURVE SMOOTH",
"77 573 OFFCURVE",
"49 539 OFFCURVE",
"37 493 CURVE SMOOTH",
"18 417 OFFCURVE",
"53 319 OFFCURVE",
"145 319 CURVE SMOOTH",
"198 319 OFFCURVE",
"241 360 OFFCURVE",
"241 414 CURVE SMOOTH",
"241 467 OFFCURVE",
"198 510 OFFCURVE",
"145 510 CURVE SMOOTH",
"123 510 OFFCURVE",
"102 499 OFFCURVE",
"86 487 CURVE",
"89 514 OFFCURVE",
"112 542 OFFCURVE",
"133 549 CURVE SMOOTH",
"173 564 OFFCURVE",
"226 545 OFFCURVE",
"254 487 CURVE",
"261 474 OFFCURVE",
"275 471 OFFCURVE",
"289 479 CURVE",
"303 484 OFFCURVE",
"307 493 OFFCURVE",
"294 515 CURVE",
"312 532 OFFCURVE",
"326 544 OFFCURVE",
"337 551 CURVE",
"352 541 OFFCURVE",
"368 507 OFFCURVE",
"374 482 CURVE SMOOTH",
"380 459 OFFCURVE",
"374 445 OFFCURVE",
"340 418 CURVE SMOOTH",
"306 390 OFFCURVE",
"253 356 OFFCURVE",
"253 284 CURVE SMOOTH",
"253 84 LINE SMOOTH",
"253 74 OFFCURVE",
"248 55 OFFCURVE",
"227 41 CURVE SMOOTH",
"211 31 OFFCURVE",
"207 27 OFFCURVE",
"214 13 CURVE",
"230 -13 OFFCURVE",
"236 -12 OFFCURVE",
"251 -7 CURVE SMOOTH",
"260 -4 OFFCURVE",
"260 0 OFFCURVE",
"269 0 CURVE SMOOTH",
"452 0 LINE SMOOTH",
"476 0 OFFCURVE",
"496 7 OFFCURVE",
"508 21 CURVE",
"518 31 OFFCURVE",
"524 43 OFFCURVE",
"524 58 CURVE SMOOTH"
);
},
{
closed = 1;
nodes = (
"171 461 OFFCURVE",
"192 440 OFFCURVE",
"192 414 CURVE SMOOTH",
"192 387 OFFCURVE",
"171 366 OFFCURVE",
"145 366 CURVE SMOOTH",
"118 366 OFFCURVE",
"96 387 OFFCURVE",
"96 414 CURVE SMOOTH",
"96 440 OFFCURVE",
"118 461 OFFCURVE",
"145 461 CURVE SMOOTH"
);
}
);
width = 609;
}
);
note = uni0E03;
unicode = 0E03;
},
{
glyphname = "choChang-thai";
lastChange = "2017-12-19 06:16:21 +0000";
layers = (
{
layerId = "0B1DFD06-3317-40CA-B510-4969A0718C16";
paths = (
{
closed = 1;
nodes = (
"474 338 LINE SMOOTH",
"474 352 OFFCURVE",
"474 388 OFFCURVE",
"455 411 CURVE SMOOTH",
"431 437 OFFCURVE",
"402 446 OFFCURVE",
"402 446 CURVE",
"421 501 OFFCURVE",
"470 551 OFFCURVE",
"554 609 CURVE",
"551 610 OFFCURVE",
"520 651 OFFCURVE",
"520 651 CURVE",
"359 535 OFFCURVE",
"347 428 OFFCURVE",
"344 421 CURVE",
"344 421 OFFCURVE",
"405 402 OFFCURVE",
"417 366 CURVE",
"417 56 LINE",
"236 56 LINE",
"247 64 OFFCURVE",
"250 75 OFFCURVE",
"250 90 CURVE SMOOTH",
"250 253 LINE SMOOTH",
"250 282 OFFCURVE",
"257 295 OFFCURVE",
"288 337 CURVE SMOOTH",
"328 388 OFFCURVE",
"349 439 OFFCURVE",
"332 498 CURVE SMOOTH",
"306 589 OFFCURVE",
"188 611 OFFCURVE",
"102 572 CURVE",
"50 544 OFFCURVE",
"18 495 OFFCURVE",
"18 442 CURVE SMOOTH",
"19 385 OFFCURVE",
"61 344 OFFCURVE",
"114 344 CURVE SMOOTH",
"168 344 OFFCURVE",
"211 387 OFFCURVE",
"211 442 CURVE SMOOTH",
"211 486 OFFCURVE",
"173 535 OFFCURVE",
"130 529 CURVE",
"183 551 OFFCURVE",
"263 544 OFFCURVE",
"281 482 CURVE SMOOTH",
"294 431 OFFCURVE",
"267 396 OFFCURVE",
"238 357 CURVE SMOOTH",
"216 328 OFFCURVE",
"192 297 OFFCURVE",
"192 258 CURVE SMOOTH",
"192 83 LINE SMOOTH",
"192 72 OFFCURVE",
"188 55 OFFCURVE",
"167 41 CURVE SMOOTH",
"151 31 OFFCURVE",
"146 27 OFFCURVE",
"154 13 CURVE",
"170 -13 OFFCURVE",
"176 -12 OFFCURVE",
"191 -7 CURVE SMOOTH",
"199 -4 OFFCURVE",
"199 0 OFFCURVE",
"208 0 CURVE SMOOTH",
"402 0 LINE SMOOTH",
"425 0 OFFCURVE",
"446 7 OFFCURVE",
"458 21 CURVE",
"468 31 OFFCURVE",
"474 43 OFFCURVE",
"474 58 CURVE SMOOTH"
);
},
{
closed = 1;
nodes = (
"162 415 OFFCURVE",
"140 393 OFFCURVE",
"114 393 CURVE SMOOTH",
"89 393 OFFCURVE",
"66 415 OFFCURVE",
"66 442 CURVE SMOOTH",
"66 467 OFFCURVE",
"89 489 OFFCURVE",
"114 489 CURVE SMOOTH",
"140 489 OFFCURVE",
"162 467 OFFCURVE",
"162 442 CURVE SMOOTH"
);
}
);
width = 560;
}
);
note = uni0E0A;
unicode = 0E0A;
},
{
glyphname = "soSo-thai";
lastChange = "2017-12-19 06:16:21 +0000";
layers = (
{
layerId = "0B1DFD06-3317-40CA-B510-4969A0718C16";
paths = (
{
closed = 1;
nodes = (
"542 338 LINE SMOOTH",
"542 352 OFFCURVE",
"542 388 OFFCURVE",
"523 411 CURVE SMOOTH",
"499 437 OFFCURVE",
"470 446 OFFCURVE",
"470 446 CURVE",
"489 501 OFFCURVE",
"538 551 OFFCURVE",
"622 609 CURVE",
"619 610 OFFCURVE",
"588 651 OFFCURVE",
"588 651 CURVE",
"427 535 OFFCURVE",
"417 422 OFFCURVE",
"414 415 CURVE",
"414 415 OFFCURVE",
"476 408 OFFCURVE",
"484 363 CURVE",
"484 56 LINE",
"304 56 LINE",
"315 64 OFFCURVE",
"318 75 OFFCURVE",
"318 90 CURVE SMOOTH",
"318 275 LINE SMOOTH",
"318 318 OFFCURVE",
"329 331 OFFCURVE",
"344 349 CURVE SMOOTH",
"394 411 OFFCURVE",
"417 424 OFFCURVE",
"415 476 CURVE",
"415 511 OFFCURVE",
"381 583 OFFCURVE",
"353 594 CURVE",
"340 600 OFFCURVE",
"329 606 OFFCURVE",
"266 548 CURVE",
"220 604 OFFCURVE",
"161 609 OFFCURVE",
"112 586 CURVE SMOOTH",
"75 569 OFFCURVE",
"38 527 OFFCURVE",
"28 482 CURVE SMOOTH",
"10 411 OFFCURVE",
"44 309 OFFCURVE",
"136 309 CURVE SMOOTH",
"189 309 OFFCURVE",
"233 352 OFFCURVE",
"233 406 CURVE SMOOTH",
"233 480 OFFCURVE",
"149 530 OFFCURVE",
"83 484 CURVE",
"114 549 OFFCURVE",
"186 582 OFFCURVE",
"244 492 CURVE",
"251 474 OFFCURVE",
"260 468 OFFCURVE",
"275 474 CURVE SMOOTH",
"292 482 OFFCURVE",
"298 489 OFFCURVE",
"291 505 CURVE",
"309 521 OFFCURVE",
"322 533 OFFCURVE",
"332 541 CURVE",
"340 545 OFFCURVE",
"365 496 OFFCURVE",
"368 470 CURVE SMOOTH",
"369 455 OFFCURVE",
"340 422 OFFCURVE",
"306 383 CURVE SMOOTH",
"270 341 OFFCURVE",
"260 315 OFFCURVE",
"260 278 CURVE SMOOTH",
"260 83 LINE SMOOTH",
"260 72 OFFCURVE",
"256 55 OFFCURVE",
"235 41 CURVE SMOOTH",
"219 31 OFFCURVE",
"214 27 OFFCURVE",
"222 13 CURVE",
"238 -13 OFFCURVE",
"244 -12 OFFCURVE",
"258 -7 CURVE SMOOTH",
"267 -4 OFFCURVE",
"267 0 OFFCURVE",
"276 0 CURVE SMOOTH",
"470 0 LINE SMOOTH",
"493 0 OFFCURVE",
"514 7 OFFCURVE",
"526 21 CURVE",
"536 31 OFFCURVE",
"542 43 OFFCURVE",
"542 58 CURVE SMOOTH"
);
},
{
closed = 1;
nodes = (
"162 453 OFFCURVE",
"183 431 OFFCURVE",
"183 406 CURVE SMOOTH",
"183 380 OFFCURVE",
"162 357 OFFCURVE",
"136 357 CURVE SMOOTH",
"109 357 OFFCURVE",
"89 380 OFFCURVE",
"89 406 CURVE SMOOTH",
"89 431 OFFCURVE",
"109 453 OFFCURVE",
"136 453 CURVE SMOOTH"
);
}
);
width = 628;
}
);
note = uni0E0B;
unicode = 0E0B;
},
{
glyphname = "khoKhwai-thai";
lastChange = "2017-12-19 06:16:21 +0000";
layers = (
{
layerId = "0B1DFD06-3317-40CA-B510-4969A0718C16";
paths = (
{
closed = 1;
nodes = (
"501 459 OFFCURVE",
"499 449 OFFCURVE",
"499 437 CURVE SMOOTH",
"499 0 LINE",
"557 0 LINE",
"557 422 LINE SMOOTH",
"557 437 OFFCURVE",
"561 448 OFFCURVE",
"567 453 CURVE SMOOTH",
"580 467 OFFCURVE",
"588 474 OFFCURVE",
"570 495 CURVE SMOOTH",
"555 511 OFFCURVE",
"544 511 OFFCURVE",
"539 507 CURVE",
"502 552 OFFCURVE",
"437 603 OFFCURVE",
"323 603 CURVE SMOOTH",
"180 603 OFFCURVE",
"92 517 OFFCURVE",
"86 384 CURVE SMOOTH",
"77 217 OFFCURVE",
"143 106 OFFCURVE",
"105 46 CURVE SMOOTH",
"90 22 OFFCURVE",
"92 19 OFFCURVE",
"108 6 CURVE SMOOTH",
"120 -4 OFFCURVE",
"136 -4 OFFCURVE",
"146 9 CURVE SMOOTH",
"222 106 OFFCURVE",
"239 226 OFFCURVE",
"260 300 CURVE",
"278 282 OFFCURVE",
"300 272 OFFCURVE",
"328 272 CURVE SMOOTH",
"381 272 OFFCURVE",
"425 315 OFFCURVE",
"425 368 CURVE SMOOTH",
"425 421 OFFCURVE",
"381 465 OFFCURVE",
"328 465 CURVE SMOOTH",
"288 465 OFFCURVE",
"254 446 OFFCURVE",
"235 405 CURVE SMOOTH",
"216 365 OFFCURVE",
"220 306 OFFCURVE",
"164 124 CURVE",
"165 155 OFFCURVE",
"134 264 OFFCURVE",
"142 380 CURVE SMOOTH",
"148 490 OFFCURVE",
"220 552 OFFCURVE",
"325 552 CURVE SMOOTH",
"458 552 OFFCURVE",
"510 467 OFFCURVE",
"507 468 CURVE"
);
},
{
closed = 1;
nodes = (
"375 341 OFFCURVE",
"354 321 OFFCURVE",
"328 321 CURVE SMOOTH",
"301 321 OFFCURVE",
"281 341 OFFCURVE",
"281 368 CURVE SMOOTH",
"281 394 OFFCURVE",
"301 415 OFFCURVE",
"328 415 CURVE SMOOTH",
"354 415 OFFCURVE",
"375 394 OFFCURVE",
"375 368 CURVE SMOOTH"
);
}
);
width = 642;
}
);
note = uni0E04;
unicode = 0E04;
},
{
glyphname = "khoKhon-thai";
lastChange = "2017-12-19 06:16:21 +0000";
layers = (
{
layerId = "0B1DFD06-3317-40CA-B510-4969A0718C16";
paths = (
{
closed = 1;
nodes = (
"501 456 OFFCURVE",
"499 446 OFFCURVE",
"499 434 CURVE SMOOTH",
"499 0 LINE",
"557 0 LINE",
"557 422 LINE SMOOTH",
"557 437 OFFCURVE",
"561 448 OFFCURVE",
"567 453 CURVE SMOOTH",
"580 467 OFFCURVE",
"588 474 OFFCURVE",
"570 495 CURVE SMOOTH",
"558 508 OFFCURVE",
"548 510 OFFCURVE",
"542 508 CURVE",
"524 535 OFFCURVE",
"487 575 OFFCURVE",
"430 595 CURVE",
"399 603 OFFCURVE",
"362 572 OFFCURVE",
"331 536 CURVE",
"300 572 OFFCURVE",
"253 606 OFFCURVE",
"220 595 CURVE SMOOTH",
"126 563 OFFCURVE",
"84 505 OFFCURVE",
"81 405 CURVE SMOOTH",
"78 253 OFFCURVE",
"145 108 OFFCURVE",
"105 46 CURVE SMOOTH",
"92 25 OFFCURVE",
"92 19 OFFCURVE",
"108 6 CURVE SMOOTH",
"120 -4 OFFCURVE",
"136 -4 OFFCURVE",
"146 9 CURVE SMOOTH",
"222 106 OFFCURVE",
"244 208 OFFCURVE",
"264 282 CURVE",
"282 263 OFFCURVE",
"304 253 OFFCURVE",
"332 253 CURVE SMOOTH",
"385 253 OFFCURVE",
"430 297 OFFCURVE",
"430 350 CURVE SMOOTH",
"430 403 OFFCURVE",
"385 448 OFFCURVE",
"332 448 CURVE SMOOTH",
"292 448 OFFCURVE",
"258 427 OFFCURVE",
"239 387 CURVE SMOOTH",
"219 344 OFFCURVE",
"223 281 OFFCURVE",
"164 124 CURVE",
"174 182 OFFCURVE",
"49 507 OFFCURVE",
"233 551 CURVE",
"251 549 OFFCURVE",
"278 530 OFFCURVE",
"310 489 CURVE",
"321 477 OFFCURVE",
"331 468 OFFCURVE",
"344 477 CURVE",
"350 480 OFFCURVE",
"354 489 OFFCURVE",
"356 493 CURVE",
"380 521 OFFCURVE",
"406 544 OFFCURVE",
"417 548 CURVE",
"465 533 OFFCURVE",
"495 489 OFFCURVE",
"507 465 CURVE"
);
},
{
closed = 1;
nodes = (
"380 323 OFFCURVE",
"359 303 OFFCURVE",
"332 303 CURVE SMOOTH",
"306 303 OFFCURVE",
"284 323 OFFCURVE",
"284 350 CURVE SMOOTH",
"284 377 OFFCURVE",
"306 397 OFFCURVE",
"332 397 CURVE SMOOTH",
"359 397 OFFCURVE",
"380 377 OFFCURVE",
"380 350 CURVE SMOOTH"
);
}
);
width = 642;
}
);
note = uni0E05;
unicode = 0E05;
},
{
glyphname = "soSala-thai";
lastChange = "2017-12-19 06:16:21 +0000";
layers = (
{
layerId = "0B1DFD06-3317-40CA-B510-4969A0718C16";
paths = (
{
closed = 1;
nodes = (
"369 341 OFFCURVE",
"349 321 OFFCURVE",
"322 321 CURVE SMOOTH",
"295 321 OFFCURVE",
"275 341 OFFCURVE",
"275 368 CURVE SMOOTH",
"275 394 OFFCURVE",
"295 415 OFFCURVE",
"322 415 CURVE SMOOTH",
"349 415 OFFCURVE",
"369 394 OFFCURVE",
"369 368 CURVE SMOOTH"
);
},
{
closed = 1;
nodes = (
"517 524 LINE",
"542 551 OFFCURVE",
"578 578 OFFCURVE",
"625 610 CURVE",
"597 651 LINE",
"560 628 OFFCURVE",
"508 591 OFFCURVE",
"477 557 CURVE",
"440 583 OFFCURVE",
"388 603 OFFCURVE",
"318 603 CURVE SMOOTH",
"174 603 OFFCURVE",
"86 517 OFFCURVE",
"80 384 CURVE SMOOTH",
"71 217 OFFCURVE",
"137 106 OFFCURVE",
"99 46 CURVE SMOOTH",
"84 22 OFFCURVE",
"86 19 OFFCURVE",
"102 6 CURVE SMOOTH",
"114 -4 OFFCURVE",
"130 -4 OFFCURVE",
"140 9 CURVE SMOOTH",
"216 106 OFFCURVE",
"233 226 OFFCURVE",
"254 300 CURVE",
"272 282 OFFCURVE",
"294 272 OFFCURVE",
"322 272 CURVE SMOOTH",
"375 272 OFFCURVE",
"419 315 OFFCURVE",
"419 368 CURVE SMOOTH",
"419 421 OFFCURVE",
"375 465 OFFCURVE",
"322 465 CURVE SMOOTH",
"282 465 OFFCURVE",
"248 446 OFFCURVE",
"229 405 CURVE SMOOTH",
"210 365 OFFCURVE",
"214 306 OFFCURVE",
"158 124 CURVE",
"160 155 OFFCURVE",
"128 264 OFFCURVE",
"136 380 CURVE SMOOTH",
"142 490 OFFCURVE",
"214 552 OFFCURVE",
"319 552 CURVE SMOOTH",
"452 552 OFFCURVE",
"504 467 OFFCURVE",
"501 468 CURVE",
"495 459 OFFCURVE",
"493 449 OFFCURVE",
"493 437 CURVE SMOOTH",
"493 0 LINE",
"551 0 LINE",
"551 422 LINE SMOOTH",
"551 437 OFFCURVE",
"555 448 OFFCURVE",
"561 453 CURVE SMOOTH",
"575 467 OFFCURVE",
"582 474 OFFCURVE",
"564 495 CURVE SMOOTH",
"549 511 OFFCURVE",
"538 511 OFFCURVE",
"533 507 CURVE"
);
}
);
width = 635;
}
);
note = uni0E28;
unicode = 0E28;
},
